<svg width="284" height="355" viewBox="0 0 284 355" fill="none" xmlns="http://www.w3.org/2000/svg">
<ellipse cx="15.3809" cy="20.491" rx="2.86768" ry="3.0876" fill="#FF9F9F" fill-opacity="0.17"/>
<ellipse cx="3.12864" cy="75.2252" rx="1.56419" ry="1.68415" fill="#FF9F9F" fill-opacity="0.17"/>
<ellipse cx="66.2172" cy="63.4363" rx="3.12838" ry="3.36829" fill="#FF9F9F" fill-opacity="0.17"/>
<ellipse cx="59.439" cy="2.80691" rx="2.60699" ry="2.80691" fill="#FF9F9F" fill-opacity="0.17"/>
<ellipse cx="91.244" cy="31.4371" rx="2.08559" ry="2.24553" fill="#FF9F9F" fill-opacity="0.17"/>
<ellipse cx="28.4157" cy="44.6304" rx="4.95327" ry="5.33313" fill="#FF9F9F" fill-opacity="0.17"/>
<ellipse cx="2.86768" cy="3.0876" rx="2.86768" ry="3.0876" transform="matrix(-1 0 0 1 202.303 56.6995)" fill="#FF9F9F" fill-opacity="0.17"/>
<ellipse cx="1.56419" cy="1.68415" rx="1.56419" ry="1.68415" transform="matrix(-1 0 0 1 213.251 112.837)" fill="#FF9F9F" fill-opacity="0.17"/>
<ellipse cx="3.12838" cy="3.36829" rx="3.12838" ry="3.36829" transform="matrix(-1 0 0 1 151.727 99.3644)" fill="#FF9F9F" fill-opacity="0.17"/>
<ellipse cx="2.60699" cy="2.80691" rx="2.60699" ry="2.80691" transform="matrix(-1 0 0 1 157.983 39.2973)" fill="#FF9F9F" fill-opacity="0.17"/>
<ellipse cx="2.08559" cy="2.24553" rx="2.08559" ry="2.24553" transform="matrix(-1 0 0 1 125.656 68.489)" fill="#FF9F9F" fill-opacity="0.17"/>
<ellipse cx="4.95327" cy="5.33313" rx="4.95327" ry="5.33313" transform="matrix(-1 0 0 1 191.353 78.5934)" fill="#FF9F9F" fill-opacity="0.17"/>
<ellipse cx="2.34784" cy="2.52477" rx="2.34784" ry="2.52477" transform="matrix(-0.995172 -0.0981466 -0.0847679 0.996401 76.4683 107.23)" fill="#FF9F9F" fill-opacity="0.17"/>
<ellipse cx="1.30436" cy="1.40265" rx="1.30436" ry="1.40265" transform="matrix(-0.995172 -0.0981466 -0.0847679 0.996401 81.3955 153.941)" fill="#FF9F9F" fill-opacity="0.17"/>
<ellipse cx="2.34784" cy="2.52477" rx="2.34784" ry="2.52477" transform="matrix(-0.995172 -0.0981466 -0.0847679 0.996401 31.9338 138.353)" fill="#FF9F9F" fill-opacity="0.17"/>
<ellipse cx="2.08697" cy="2.24424" rx="2.08697" ry="2.24424" transform="matrix(-0.995172 -0.0981466 -0.0847679 0.996401 41.3118 89.6697)" fill="#FF9F9F" fill-opacity="0.17"/>
<ellipse cx="1.8261" cy="1.68318" rx="1.8261" ry="1.68318" transform="matrix(-0.995172 -0.0981466 -0.0847679 0.996401 13.3052 111.148)" fill="#FF9F9F" fill-opacity="0.17"/>
<ellipse cx="4.17394" cy="4.48849" rx="4.17394" ry="4.48849" transform="matrix(-0.995172 -0.0981466 -0.0847679 0.996401 66.1196 124.249)" fill="#FF9F9F" fill-opacity="0.17"/>
<ellipse cx="2.07373" cy="2.21703" rx="2.07373" ry="2.21703" transform="matrix(-0.972169 0.234281 0.20353 0.979069 229.239 144.286)" fill="#FF9F9F" fill-opacity="0.17"/>
<ellipse cx="1.15207" cy="1.23168" rx="1.15207" ry="1.23168" transform="matrix(-0.972169 0.234281 0.20353 0.979069 245.077 182.004)" fill="#FF9F9F" fill-opacity="0.17"/>
<ellipse cx="2.07373" cy="2.21703" rx="2.07373" ry="2.21703" transform="matrix(-0.972169 0.234281 0.20353 0.979069 199.716 183.311)" fill="#FF9F9F" fill-opacity="0.17"/>
<ellipse cx="1.84332" cy="1.97069" rx="1.84332" ry="1.97069" transform="matrix(-0.972169 0.234281 0.20353 0.979069 195.371 139.783)" fill="#FF9F9F" fill-opacity="0.17"/>
<ellipse cx="1.6129" cy="1.47802" rx="1.6129" ry="1.47802" transform="matrix(-0.972169 0.234281 0.20353 0.979069 177.283 165.923)" fill="#FF9F9F" fill-opacity="0.17"/>
<ellipse cx="3.68663" cy="3.94138" rx="3.68663" ry="3.94138" transform="matrix(-0.972169 0.234281 0.20353 0.979069 224.831 161.556)" fill="#FF9F9F" fill-opacity="0.17"/>
<ellipse cx="2.93183" cy="3.13442" rx="2.93183" ry="3.13442" transform="matrix(-0.972169 0.234281 0.20353 0.979069 260.898 208.462)" fill="#FF9F9F" fill-opacity="0.17"/>
<ellipse cx="1.62879" cy="1.74134" rx="1.62879" ry="1.74134" transform="matrix(-0.972169 0.234281 0.20353 0.979069 283.291 261.787)" fill="#FF9F9F" fill-opacity="0.17"/>
<ellipse cx="2.93183" cy="3.13442" rx="2.93183" ry="3.13442" transform="matrix(-0.972169 0.234281 0.20353 0.979069 219.159 263.636)" fill="#FF9F9F" fill-opacity="0.17"/>
<ellipse cx="2.60607" cy="2.78615" rx="2.60607" ry="2.78615" transform="matrix(-0.972169 0.234281 0.20353 0.979069 213.018 202.097)" fill="#FF9F9F" fill-opacity="0.17"/>
<ellipse cx="2.28031" cy="2.08961" rx="2.28031" ry="2.08961" transform="matrix(-0.972169 0.234281 0.20353 0.979069 187.445 239.054)" fill="#FF9F9F" fill-opacity="0.17"/>
<ellipse cx="5.21214" cy="5.5723" rx="5.21214" ry="5.5723" transform="matrix(-0.972169 0.234281 0.20353 0.979069 254.667 232.879)" fill="#FF9F9F" fill-opacity="0.17"/>
<ellipse cx="3.18724" cy="3.0284" rx="3.18724" ry="3.0284" transform="matrix(0.368063 -0.929801 -0.908872 -0.417075 57.6453 263.84)" fill="#FF9F9F" fill-opacity="0.17"/>
<ellipse cx="1.77069" cy="1.68244" rx="1.77069" ry="1.68244" transform="matrix(0.368063 -0.929801 -0.908872 -0.417075 3.05811 252.019)" fill="#FF9F9F" fill-opacity="0.17"/>
<ellipse cx="3.18724" cy="3.0284" rx="3.18724" ry="3.0284" transform="matrix(0.368063 -0.929801 -0.908872 -0.417075 39.9658 193.473)" fill="#FF9F9F" fill-opacity="0.17"/>
<ellipse cx="2.83311" cy="2.69191" rx="2.83311" ry="2.69191" transform="matrix(0.368063 -0.929801 -0.908872 -0.417075 91.1848 224.758)" fill="#FF9F9F" fill-opacity="0.17"/>
<ellipse cx="2.47897" cy="2.01893" rx="2.47897" ry="2.01893" transform="matrix(0.368063 -0.929801 -0.908872 -0.417075 77.9185 179.761)" fill="#FF9F9F" fill-opacity="0.17"/>
<ellipse cx="5.66621" cy="5.38382" rx="5.66621" ry="5.38382" transform="matrix(0.368063 -0.929801 -0.908872 -0.417075 42.5051 243.662)" fill="#FF9F9F" fill-opacity="0.17"/>
<ellipse cx="2.16421" cy="2.12879" rx="2.16421" ry="2.12879" transform="matrix(-0.594724 -0.80393 -0.759091 0.650984 276.555 54.7873)" fill="#FF9F9F" fill-opacity="0.17"/>
<ellipse cx="1.20234" cy="1.18266" rx="1.20234" ry="1.18266" transform="matrix(-0.594724 -0.80393 -0.759091 0.650984 251.971 86.6136)" fill="#FF9F9F" fill-opacity="0.17"/>
<ellipse cx="2.16421" cy="2.12879" rx="2.16421" ry="2.12879" transform="matrix(-0.594724 -0.80393 -0.759091 0.650984 231.05 43.2585)" fill="#FF9F9F" fill-opacity="0.17"/>
<ellipse cx="1.92374" cy="1.89226" rx="1.92374" ry="1.89226" transform="matrix(-0.594724 -0.80393 -0.759091 0.650984 265.51 20.0243)" fill="#FF9F9F" fill-opacity="0.17"/>
<ellipse cx="1.68327" cy="1.4192" rx="1.68327" ry="1.4192" transform="matrix(-0.594724 -0.80393 -0.759091 0.650984 235.769 13.9337)" fill="#FF9F9F" fill-opacity="0.17"/>
<ellipse cx="3.84748" cy="3.78452" rx="3.84748" ry="3.78452" transform="matrix(-0.594724 -0.80393 -0.759091 0.650984 260.202 58.0697)" fill="#FF9F9F" fill-opacity="0.17"/>
<ellipse cx="15.3809" cy="20.491" rx="2.86768" ry="3.0876" fill="#FF9F9F" fill-opacity="0.17"/>
<ellipse cx="3.12864" cy="75.2252" rx="1.56419" ry="1.68415" fill="#FF9F9F" fill-opacity="0.17"/>
<ellipse cx="66.2172" cy="63.4363" rx="3.12838" ry="3.36829" fill="#FF9F9F" fill-opacity="0.17"/>
<ellipse cx="59.439" cy="2.80691" rx="2.60699" ry="2.80691" fill="#FF9F9F" fill-opacity="0.17"/>
<ellipse cx="91.244" cy="31.4371" rx="2.08559" ry="2.24553" fill="#FF9F9F" fill-opacity="0.17"/>
<ellipse cx="28.4157" cy="44.6304" rx="4.95327" ry="5.33313" fill="#FF9F9F" fill-opacity="0.17"/>
<ellipse cx="2.86768" cy="3.0876" rx="2.86768" ry="3.0876" transform="matrix(-1 0 0 1 202.303 56.6995)" fill="#FF9F9F" fill-opacity="0.17"/>
<ellipse cx="1.56419" cy="1.68415" rx="1.56419" ry="1.68415" transform="matrix(-1 0 0 1 213.251 112.837)" fill="#FF9F9F" fill-opacity="0.17"/>
<ellipse cx="3.12838" cy="3.36829" rx="3.12838" ry="3.36829" transform="matrix(-1 0 0 1 151.727 99.3644)" fill="#FF9F9F" fill-opacity="0.17"/>
<ellipse cx="2.60699" cy="2.80691" rx="2.60699" ry="2.80691" transform="matrix(-1 0 0 1 157.983 39.2973)" fill="#FF9F9F" fill-opacity="0.17"/>
<ellipse cx="2.08559" cy="2.24553" rx="2.08559" ry="2.24553" transform="matrix(-1 0 0 1 125.656 68.489)" fill="#FF9F9F" fill-opacity="0.17"/>
<ellipse cx="4.95327" cy="5.33313" rx="4.95327" ry="5.33313" transform="matrix(-1 0 0 1 191.353 78.5934)" fill="#FF9F9F" fill-opacity="0.17"/>
<ellipse cx="2.34784" cy="2.52477" rx="2.34784" ry="2.52477" transform="matrix(-0.995172 -0.0981466 -0.0847679 0.996401 76.4683 107.23)" fill="#FF9F9F" fill-opacity="0.17"/>
<ellipse cx="1.30436" cy="1.40265" rx="1.30436" ry="1.40265" transform="matrix(-0.995172 -0.0981466 -0.0847679 0.996401 81.3955 153.941)" fill="#FF9F9F" fill-opacity="0.17"/>
<ellipse cx="2.34784" cy="2.52477" rx="2.34784" ry="2.52477" transform="matrix(-0.995172 -0.0981466 -0.0847679 0.996401 31.9338 138.353)" fill="#FF9F9F" fill-opacity="0.17"/>
<ellipse cx="2.08697" cy="2.24424" rx="2.08697" ry="2.24424" transform="matrix(-0.995172 -0.0981466 -0.0847679 0.996401 41.3118 89.6697)" fill="#FF9F9F" fill-opacity="0.17"/>
<ellipse cx="1.8261" cy="1.68318" rx="1.8261" ry="1.68318" transform="matrix(-0.995172 -0.0981466 -0.0847679 0.996401 13.3052 111.148)" fill="#FF9F9F" fill-opacity="0.17"/>
<ellipse cx="4.17394" cy="4.48849" rx="4.17394" ry="4.48849" transform="matrix(-0.995172 -0.0981466 -0.0847679 0.996401 66.1196 124.249)" fill="#FF9F9F" fill-opacity="0.17"/>
<ellipse cx="2.07373" cy="2.21703" rx="2.07373" ry="2.21703" transform="matrix(-0.972169 0.234281 0.20353 0.979069 229.239 144.286)" fill="#FF9F9F" fill-opacity="0.17"/>
<ellipse cx="1.15207" cy="1.23168" rx="1.15207" ry="1.23168" transform="matrix(-0.972169 0.234281 0.20353 0.979069 245.077 182.004)" fill="#FF9F9F" fill-opacity="0.17"/>
<ellipse cx="2.07373" cy="2.21703" rx="2.07373" ry="2.21703" transform="matrix(-0.972169 0.234281 0.20353 0.979069 199.716 183.311)" fill="#FF9F9F" fill-opacity="0.17"/>
<ellipse cx="1.84332" cy="1.97069" rx="1.84332" ry="1.97069" transform="matrix(-0.972169 0.234281 0.20353 0.979069 195.371 139.783)" fill="#FF9F9F" fill-opacity="0.17"/>
<ellipse cx="1.6129" cy="1.47802" rx="1.6129" ry="1.47802" transform="matrix(-0.972169 0.234281 0.20353 0.979069 177.283 165.923)" fill="#FF9F9F" fill-opacity="0.17"/>
<ellipse cx="3.68663" cy="3.94138" rx="3.68663" ry="3.94138" transform="matrix(-0.972169 0.234281 0.20353 0.979069 224.831 161.556)" fill="#FF9F9F" fill-opacity="0.17"/>
<ellipse cx="2.93183" cy="3.13442" rx="2.93183" ry="3.13442" transform="matrix(-0.972169 0.234281 0.20353 0.979069 260.898 208.462)" fill="#FF9F9F" fill-opacity="0.17"/>
<ellipse cx="1.62879" cy="1.74134" rx="1.62879" ry="1.74134" transform="matrix(-0.972169 0.234281 0.20353 0.979069 283.291 261.787)" fill="#FF9F9F" fill-opacity="0.17"/>
<ellipse cx="2.93183" cy="3.13442" rx="2.93183" ry="3.13442" transform="matrix(-0.972169 0.234281 0.20353 0.979069 219.159 263.636)" fill="#FF9F9F" fill-opacity="0.17"/>
<ellipse cx="2.60607" cy="2.78615" rx="2.60607" ry="2.78615" transform="matrix(-0.972169 0.234281 0.20353 0.979069 213.018 202.097)" fill="#FF9F9F" fill-opacity="0.17"/>
<ellipse cx="2.28031" cy="2.08961" rx="2.28031" ry="2.08961" transform="matrix(-0.972169 0.234281 0.20353 0.979069 187.445 239.054)" fill="#FF9F9F" fill-opacity="0.17"/>
<ellipse cx="5.21214" cy="5.5723" rx="5.21214" ry="5.5723" transform="matrix(-0.972169 0.234281 0.20353 0.979069 254.667 232.879)" fill="#FF9F9F" fill-opacity="0.17"/>
<ellipse cx="3.18724" cy="3.0284" rx="3.18724" ry="3.0284" transform="matrix(0.368063 -0.929801 -0.908872 -0.417075 57.6453 263.84)" fill="#FF9F9F" fill-opacity="0.17"/>
<ellipse cx="1.77069" cy="1.68244" rx="1.77069" ry="1.68244" transform="matrix(0.368063 -0.929801 -0.908872 -0.417075 3.05811 252.019)" fill="#FF9F9F" fill-opacity="0.17"/>
<ellipse cx="3.18724" cy="3.0284" rx="3.18724" ry="3.0284" transform="matrix(0.368063 -0.929801 -0.908872 -0.417075 39.9658 193.473)" fill="#FF9F9F" fill-opacity="0.17"/>
<ellipse cx="2.83311" cy="2.69191" rx="2.83311" ry="2.69191" transform="matrix(0.368063 -0.929801 -0.908872 -0.417075 91.1848 224.758)" fill="#FF9F9F" fill-opacity="0.17"/>
<ellipse cx="2.47897" cy="2.01893" rx="2.47897" ry="2.01893" transform="matrix(0.368063 -0.929801 -0.908872 -0.417075 77.9185 179.761)" fill="#FF9F9F" fill-opacity="0.17"/>
<ellipse cx="5.66621" cy="5.38382" rx="5.66621" ry="5.38382" transform="matrix(0.368063 -0.929801 -0.908872 -0.417075 42.5051 243.662)" fill="#FF9F9F" fill-opacity="0.17"/>
<ellipse cx="2.16421" cy="2.12879" rx="2.16421" ry="2.12879" transform="matrix(-0.594724 -0.80393 -0.759091 0.650984 276.555 54.7873)" fill="#FF9F9F" fill-opacity="0.17"/>
<ellipse cx="1.20234" cy="1.18266" rx="1.20234" ry="1.18266" transform="matrix(-0.594724 -0.80393 -0.759091 0.650984 251.971 86.6136)" fill="#FF9F9F" fill-opacity="0.17"/>
<ellipse cx="2.16421" cy="2.12879" rx="2.16421" ry="2.12879" transform="matrix(-0.594724 -0.80393 -0.759091 0.650984 231.05 43.2585)" fill="#FF9F9F" fill-opacity="0.17"/>
<ellipse cx="1.92374" cy="1.89226" rx="1.92374" ry="1.89226" transform="matrix(-0.594724 -0.80393 -0.759091 0.650984 265.51 20.0243)" fill="#FF9F9F" fill-opacity="0.17"/>
<ellipse cx="1.68327" cy="1.4192" rx="1.68327" ry="1.4192" transform="matrix(-0.594724 -0.80393 -0.759091 0.650984 235.769 13.9337)" fill="#FF9F9F" fill-opacity="0.17"/>
<ellipse cx="3.84748" cy="3.78452" rx="3.84748" ry="3.78452" transform="matrix(-0.594724 -0.80393 -0.759091 0.650984 260.202 58.0697)" fill="#FF9F9F" fill-opacity="0.17"/>
<ellipse cx="2.13208" cy="2.16097" rx="2.13208" ry="2.16097" transform="matrix(0.745054 -0.667004 -0.611213 -0.791466 131.124 314.849)" fill="#FF9F9F" fill-opacity="0.17"/>
<ellipse cx="1.18449" cy="1.20054" rx="1.18449" ry="1.20054" transform="matrix(0.745054 -0.667004 -0.611213 -0.791466 101.054 289.056)" fill="#FF9F9F" fill-opacity="0.17"/>
<ellipse cx="2.13208" cy="2.16097" rx="2.13208" ry="2.16097" transform="matrix(0.745054 -0.667004 -0.611213 -0.791466 140.872 265.623)" fill="#FF9F9F" fill-opacity="0.17"/>
<ellipse cx="1.89518" cy="1.92086" rx="1.89518" ry="1.92086" transform="matrix(0.745054 -0.667004 -0.611213 -0.791466 163.172 302.23)" fill="#FF9F9F" fill-opacity="0.17"/>
<ellipse cx="1.65828" cy="1.44065" rx="1.65828" ry="1.44065" transform="matrix(0.745054 -0.667004 -0.611213 -0.791466 168.201 270.085)" fill="#FF9F9F" fill-opacity="0.17"/>
<ellipse cx="3.79036" cy="3.84173" rx="3.79036" ry="3.84173" transform="matrix(0.745054 -0.667004 -0.611213 -0.791466 127.733 297.315)" fill="#FF9F9F" fill-opacity="0.17"/>
<ellipse cx="15.3809" cy="20.491" rx="2.86768" ry="3.0876" fill="#FF9F9F" fill-opacity="0.17"/>
<ellipse cx="3.12864" cy="75.2252" rx="1.56419" ry="1.68415" fill="#FF9F9F" fill-opacity="0.17"/>
<ellipse cx="66.2172" cy="63.4363" rx="3.12838" ry="3.36829" fill="#FF9F9F" fill-opacity="0.17"/>
<ellipse cx="59.439" cy="2.80691" rx="2.60699" ry="2.80691" fill="#FF9F9F" fill-opacity="0.17"/>
<ellipse cx="91.244" cy="31.4371" rx="2.08559" ry="2.24553" fill="#FF9F9F" fill-opacity="0.17"/>
<ellipse cx="28.4157" cy="44.6304" rx="4.95327" ry="5.33313" fill="#FF9F9F" fill-opacity="0.17"/>
<ellipse cx="2.86768" cy="3.0876" rx="2.86768" ry="3.0876" transform="matrix(-1 0 0 1 202.303 56.6995)" fill="#FF9F9F" fill-opacity="0.17"/>
<ellipse cx="1.56419" cy="1.68415" rx="1.56419" ry="1.68415" transform="matrix(-1 0 0 1 213.251 112.837)" fill="#FF9F9F" fill-opacity="0.17"/>
<ellipse cx="3.12838" cy="3.36829" rx="3.12838" ry="3.36829" transform="matrix(-1 0 0 1 151.727 99.3644)" fill="#FF9F9F" fill-opacity="0.17"/>
<ellipse cx="2.60699" cy="2.80691" rx="2.60699" ry="2.80691" transform="matrix(-1 0 0 1 157.983 39.2973)" fill="#FF9F9F" fill-opacity="0.17"/>
<ellipse cx="2.08559" cy="2.24553" rx="2.08559" ry="2.24553" transform="matrix(-1 0 0 1 125.656 68.489)" fill="#FF9F9F" fill-opacity="0.17"/>
<ellipse cx="4.95327" cy="5.33313" rx="4.95327" ry="5.33313" transform="matrix(-1 0 0 1 191.353 78.5934)" fill="#FF9F9F" fill-opacity="0.17"/>
<ellipse cx="2.34784" cy="2.52477" rx="2.34784" ry="2.52477" transform="matrix(-0.995172 -0.0981466 -0.0847679 0.996401 76.4683 107.23)" fill="#FF9F9F" fill-opacity="0.17"/>
<ellipse cx="1.30436" cy="1.40265" rx="1.30436" ry="1.40265" transform="matrix(-0.995172 -0.0981466 -0.0847679 0.996401 81.3955 153.941)" fill="#FF9F9F" fill-opacity="0.17"/>
<ellipse cx="2.34784" cy="2.52477" rx="2.34784" ry="2.52477" transform="matrix(-0.995172 -0.0981466 -0.0847679 0.996401 31.9338 138.353)" fill="#FF9F9F" fill-opacity="0.17"/>
<ellipse cx="2.08697" cy="2.24424" rx="2.08697" ry="2.24424" transform="matrix(-0.995172 -0.0981466 -0.0847679 0.996401 41.3118 89.6697)" fill="#FF9F9F" fill-opacity="0.17"/>
<ellipse cx="1.8261" cy="1.68318" rx="1.8261" ry="1.68318" transform="matrix(-0.995172 -0.0981466 -0.0847679 0.996401 13.3052 111.148)" fill="#FF9F9F" fill-opacity="0.17"/>
<ellipse cx="4.17394" cy="4.48849" rx="4.17394" ry="4.48849" transform="matrix(-0.995172 -0.0981466 -0.0847679 0.996401 66.1196 124.249)" fill="#FF9F9F" fill-opacity="0.17"/>
<ellipse cx="2.07373" cy="2.21703" rx="2.07373" ry="2.21703" transform="matrix(-0.972169 0.234281 0.20353 0.979069 229.239 144.286)" fill="#FF9F9F" fill-opacity="0.17"/>
<ellipse cx="1.15207" cy="1.23168" rx="1.15207" ry="1.23168" transform="matrix(-0.972169 0.234281 0.20353 0.979069 245.077 182.004)" fill="#FF9F9F" fill-opacity="0.17"/>
<ellipse cx="2.07373" cy="2.21703" rx="2.07373" ry="2.21703" transform="matrix(-0.972169 0.234281 0.20353 0.979069 199.716 183.311)" fill="#FF9F9F" fill-opacity="0.17"/>
<ellipse cx="1.84332" cy="1.97069" rx="1.84332" ry="1.97069" transform="matrix(-0.972169 0.234281 0.20353 0.979069 195.371 139.783)" fill="#FF9F9F" fill-opacity="0.17"/>
<ellipse cx="1.6129" cy="1.47802" rx="1.6129" ry="1.47802" transform="matrix(-0.972169 0.234281 0.20353 0.979069 177.283 165.923)" fill="#FF9F9F" fill-opacity="0.17"/>
<ellipse cx="3.68663" cy="3.94138" rx="3.68663" ry="3.94138" transform="matrix(-0.972169 0.234281 0.20353 0.979069 224.831 161.556)" fill="#FF9F9F" fill-opacity="0.17"/>
<ellipse cx="2.93183" cy="3.13442" rx="2.93183" ry="3.13442" transform="matrix(-0.972169 0.234281 0.20353 0.979069 260.898 208.462)" fill="#FF9F9F" fill-opacity="0.17"/>
<ellipse cx="1.62879" cy="1.74134" rx="1.62879" ry="1.74134" transform="matrix(-0.972169 0.234281 0.20353 0.979069 283.291 261.787)" fill="#FF9F9F" fill-opacity="0.17"/>
<ellipse cx="2.93183" cy="3.13442" rx="2.93183" ry="3.13442" transform="matrix(-0.972169 0.234281 0.20353 0.979069 219.159 263.636)" fill="#FF9F9F" fill-opacity="0.17"/>
<ellipse cx="2.60607" cy="2.78615" rx="2.60607" ry="2.78615" transform="matrix(-0.972169 0.234281 0.20353 0.979069 213.018 202.097)" fill="#FF9F9F" fill-opacity="0.17"/>
<ellipse cx="2.28031" cy="2.08961" rx="2.28031" ry="2.08961" transform="matrix(-0.972169 0.234281 0.20353 0.979069 187.445 239.054)" fill="#FF9F9F" fill-opacity="0.17"/>
<ellipse cx="5.21214" cy="5.5723" rx="5.21214" ry="5.5723" transform="matrix(-0.972169 0.234281 0.20353 0.979069 254.667 232.879)" fill="#FF9F9F" fill-opacity="0.17"/>
<ellipse cx="3.18724" cy="3.0284" rx="3.18724" ry="3.0284" transform="matrix(0.368063 -0.929801 -0.908872 -0.417075 57.6453 263.84)" fill="#FF9F9F" fill-opacity="0.17"/>
<ellipse cx="1.77069" cy="1.68244" rx="1.77069" ry="1.68244" transform="matrix(0.368063 -0.929801 -0.908872 -0.417075 3.05811 252.019)" fill="#FF9F9F" fill-opacity="0.17"/>
<ellipse cx="3.18724" cy="3.0284" rx="3.18724" ry="3.0284" transform="matrix(0.368063 -0.929801 -0.908872 -0.417075 39.9658 193.473)" fill="#FF9F9F" fill-opacity="0.17"/>
<ellipse cx="2.83311" cy="2.69191" rx="2.83311" ry="2.69191" transform="matrix(0.368063 -0.929801 -0.908872 -0.417075 91.1848 224.758)" fill="#FF9F9F" fill-opacity="0.17"/>
<ellipse cx="2.47897" cy="2.01893" rx="2.47897" ry="2.01893" transform="matrix(0.368063 -0.929801 -0.908872 -0.417075 77.9185 179.761)" fill="#FF9F9F" fill-opacity="0.17"/>
<ellipse cx="5.66621" cy="5.38382" rx="5.66621" ry="5.38382" transform="matrix(0.368063 -0.929801 -0.908872 -0.417075 42.5051 243.662)" fill="#FF9F9F" fill-opacity="0.17"/>
<ellipse cx="2.16421" cy="2.12879" rx="2.16421" ry="2.12879" transform="matrix(-0.594724 -0.80393 -0.759091 0.650984 276.555 54.7873)" fill="#FF9F9F" fill-opacity="0.17"/>
<ellipse cx="1.20234" cy="1.18266" rx="1.20234" ry="1.18266" transform="matrix(-0.594724 -0.80393 -0.759091 0.650984 251.971 86.6136)" fill="#FF9F9F" fill-opacity="0.17"/>
<ellipse cx="2.16421" cy="2.12879" rx="2.16421" ry="2.12879" transform="matrix(-0.594724 -0.80393 -0.759091 0.650984 231.05 43.2585)" fill="#FF9F9F" fill-opacity="0.17"/>
<ellipse cx="1.92374" cy="1.89226" rx="1.92374" ry="1.89226" transform="matrix(-0.594724 -0.80393 -0.759091 0.650984 265.51 20.0243)" fill="#FF9F9F" fill-opacity="0.17"/>
<ellipse cx="1.68327" cy="1.4192" rx="1.68327" ry="1.4192" transform="matrix(-0.594724 -0.80393 -0.759091 0.650984 235.769 13.9337)" fill="#FF9F9F" fill-opacity="0.17"/>
<ellipse cx="3.84748" cy="3.78452" rx="3.84748" ry="3.78452" transform="matrix(-0.594724 -0.80393 -0.759091 0.650984 260.202 58.0697)" fill="#FF9F9F" fill-opacity="0.17"/>
<ellipse cx="15.3809" cy="20.491" rx="2.86768" ry="3.0876" fill="#FF9F9F" fill-opacity="0.17"/>
<ellipse cx="3.12864" cy="75.2252" rx="1.56419" ry="1.68415" fill="#FF9F9F" fill-opacity="0.17"/>
<ellipse cx="66.2172" cy="63.4363" rx="3.12838" ry="3.36829" fill="#FF9F9F" fill-opacity="0.17"/>
<ellipse cx="59.439" cy="2.80691" rx="2.60699" ry="2.80691" fill="#FF9F9F" fill-opacity="0.17"/>
<ellipse cx="91.244" cy="31.4371" rx="2.08559" ry="2.24553" fill="#FF9F9F" fill-opacity="0.17"/>
<ellipse cx="28.4157" cy="44.6304" rx="4.95327" ry="5.33313" fill="#FF9F9F" fill-opacity="0.17"/>
<ellipse cx="2.86768" cy="3.0876" rx="2.86768" ry="3.0876" transform="matrix(-1 0 0 1 202.303 56.6995)" fill="#FF9F9F" fill-opacity="0.17"/>
<ellipse cx="1.56419" cy="1.68415" rx="1.56419" ry="1.68415" transform="matrix(-1 0 0 1 213.251 112.837)" fill="#FF9F9F" fill-opacity="0.17"/>
<ellipse cx="3.12838" cy="3.36829" rx="3.12838" ry="3.36829" transform="matrix(-1 0 0 1 151.727 99.3644)" fill="#FF9F9F" fill-opacity="0.17"/>
<ellipse cx="2.60699" cy="2.80691" rx="2.60699" ry="2.80691" transform="matrix(-1 0 0 1 157.983 39.2973)" fill="#FF9F9F" fill-opacity="0.17"/>
<ellipse cx="2.08559" cy="2.24553" rx="2.08559" ry="2.24553" transform="matrix(-1 0 0 1 125.656 68.489)" fill="#FF9F9F" fill-opacity="0.17"/>
<ellipse cx="4.95327" cy="5.33313" rx="4.95327" ry="5.33313" transform="matrix(-1 0 0 1 191.353 78.5934)" fill="#FF9F9F" fill-opacity="0.17"/>
<ellipse cx="2.34784" cy="2.52477" rx="2.34784" ry="2.52477" transform="matrix(-0.995172 -0.0981466 -0.0847679 0.996401 76.4683 107.23)" fill="#FF9F9F" fill-opacity="0.17"/>
<ellipse cx="1.30436" cy="1.40265" rx="1.30436" ry="1.40265" transform="matrix(-0.995172 -0.0981466 -0.0847679 0.996401 81.3955 153.941)" fill="#FF9F9F" fill-opacity="0.17"/>
<ellipse cx="2.34784" cy="2.52477" rx="2.34784" ry="2.52477" transform="matrix(-0.995172 -0.0981466 -0.0847679 0.996401 31.9338 138.353)" fill="#FF9F9F" fill-opacity="0.17"/>
<ellipse cx="2.08697" cy="2.24424" rx="2.08697" ry="2.24424" transform="matrix(-0.995172 -0.0981466 -0.0847679 0.996401 41.3118 89.6697)" fill="#FF9F9F" fill-opacity="0.17"/>
<ellipse cx="1.8261" cy="1.68318" rx="1.8261" ry="1.68318" transform="matrix(-0.995172 -0.0981466 -0.0847679 0.996401 13.3052 111.148)" fill="#FF9F9F" fill-opacity="0.17"/>
<ellipse cx="4.17394" cy="4.48849" rx="4.17394" ry="4.48849" transform="matrix(-0.995172 -0.0981466 -0.0847679 0.996401 66.1196 124.249)" fill="#FF9F9F" fill-opacity="0.17"/>
<ellipse cx="2.07373" cy="2.21703" rx="2.07373" ry="2.21703" transform="matrix(-0.972169 0.234281 0.20353 0.979069 229.239 144.286)" fill="#FF9F9F" fill-opacity="0.17"/>
<ellipse cx="1.15207" cy="1.23168" rx="1.15207" ry="1.23168" transform="matrix(-0.972169 0.234281 0.20353 0.979069 245.077 182.004)" fill="#FF9F9F" fill-opacity="0.17"/>
<ellipse cx="2.07373" cy="2.21703" rx="2.07373" ry="2.21703" transform="matrix(-0.972169 0.234281 0.20353 0.979069 199.716 183.311)" fill="#FF9F9F" fill-opacity="0.17"/>
<ellipse cx="1.84332" cy="1.97069" rx="1.84332" ry="1.97069" transform="matrix(-0.972169 0.234281 0.20353 0.979069 195.371 139.783)" fill="#FF9F9F" fill-opacity="0.17"/>
<ellipse cx="1.6129" cy="1.47802" rx="1.6129" ry="1.47802" transform="matrix(-0.972169 0.234281 0.20353 0.979069 177.283 165.923)" fill="#FF9F9F" fill-opacity="0.17"/>
<ellipse cx="3.68663" cy="3.94138" rx="3.68663" ry="3.94138" transform="matrix(-0.972169 0.234281 0.20353 0.979069 224.831 161.556)" fill="#FF9F9F" fill-opacity="0.17"/>
<ellipse cx="2.93183" cy="3.13442" rx="2.93183" ry="3.13442" transform="matrix(-0.972169 0.234281 0.20353 0.979069 260.898 208.462)" fill="#FF9F9F" fill-opacity="0.17"/>
<ellipse cx="1.62879" cy="1.74134" rx="1.62879" ry="1.74134" transform="matrix(-0.972169 0.234281 0.20353 0.979069 283.291 261.787)" fill="#FF9F9F" fill-opacity="0.17"/>
<ellipse cx="2.93183" cy="3.13442" rx="2.93183" ry="3.13442" transform="matrix(-0.972169 0.234281 0.20353 0.979069 219.159 263.636)" fill="#FF9F9F" fill-opacity="0.17"/>
<ellipse cx="2.60607" cy="2.78615" rx="2.60607" ry="2.78615" transform="matrix(-0.972169 0.234281 0.20353 0.979069 213.018 202.097)" fill="#FF9F9F" fill-opacity="0.17"/>
<ellipse cx="2.28031" cy="2.08961" rx="2.28031" ry="2.08961" transform="matrix(-0.972169 0.234281 0.20353 0.979069 187.445 239.054)" fill="#FF9F9F" fill-opacity="0.17"/>
<ellipse cx="5.21214" cy="5.5723" rx="5.21214" ry="5.5723" transform="matrix(-0.972169 0.234281 0.20353 0.979069 254.667 232.879)" fill="#FF9F9F" fill-opacity="0.17"/>
<ellipse cx="3.18724" cy="3.0284" rx="3.18724" ry="3.0284" transform="matrix(0.368063 -0.929801 -0.908872 -0.417075 57.6453 263.84)" fill="#FF9F9F" fill-opacity="0.17"/>
<ellipse cx="1.77069" cy="1.68244" rx="1.77069" ry="1.68244" transform="matrix(0.368063 -0.929801 -0.908872 -0.417075 3.05811 252.019)" fill="#FF9F9F" fill-opacity="0.17"/>
<ellipse cx="3.18724" cy="3.0284" rx="3.18724" ry="3.0284" transform="matrix(0.368063 -0.929801 -0.908872 -0.417075 39.9658 193.473)" fill="#FF9F9F" fill-opacity="0.17"/>
<ellipse cx="2.83311" cy="2.69191" rx="2.83311" ry="2.69191" transform="matrix(0.368063 -0.929801 -0.908872 -0.417075 91.1848 224.758)" fill="#FF9F9F" fill-opacity="0.17"/>
<ellipse cx="2.47897" cy="2.01893" rx="2.47897" ry="2.01893" transform="matrix(0.368063 -0.929801 -0.908872 -0.417075 77.9185 179.761)" fill="#FF9F9F" fill-opacity="0.17"/>
<ellipse cx="5.66621" cy="5.38382" rx="5.66621" ry="5.38382" transform="matrix(0.368063 -0.929801 -0.908872 -0.417075 42.5051 243.662)" fill="#FF9F9F" fill-opacity="0.17"/>
<ellipse cx="2.16421" cy="2.12879" rx="2.16421" ry="2.12879" transform="matrix(-0.594724 -0.80393 -0.759091 0.650984 276.555 54.7873)" fill="#FF9F9F" fill-opacity="0.17"/>
<ellipse cx="1.20234" cy="1.18266" rx="1.20234" ry="1.18266" transform="matrix(-0.594724 -0.80393 -0.759091 0.650984 251.971 86.6136)" fill="#FF9F9F" fill-opacity="0.17"/>
<ellipse cx="2.16421" cy="2.12879" rx="2.16421" ry="2.12879" transform="matrix(-0.594724 -0.80393 -0.759091 0.650984 231.05 43.2585)" fill="#FF9F9F" fill-opacity="0.17"/>
<ellipse cx="1.92374" cy="1.89226" rx="1.92374" ry="1.89226" transform="matrix(-0.594724 -0.80393 -0.759091 0.650984 265.51 20.0243)" fill="#FF9F9F" fill-opacity="0.17"/>
<ellipse cx="1.68327" cy="1.4192" rx="1.68327" ry="1.4192" transform="matrix(-0.594724 -0.80393 -0.759091 0.650984 235.769 13.9337)" fill="#FF9F9F" fill-opacity="0.17"/>
<ellipse cx="3.84748" cy="3.78452" rx="3.84748" ry="3.78452" transform="matrix(-0.594724 -0.80393 -0.759091 0.650984 260.202 58.0697)" fill="#FF9F9F" fill-opacity="0.17"/>
<ellipse cx="2.13208" cy="2.16097" rx="2.13208" ry="2.16097" transform="matrix(0.745054 -0.667004 -0.611213 -0.791466 131.124 314.849)" fill="#FF9F9F" fill-opacity="0.17"/>
<ellipse cx="1.18449" cy="1.20054" rx="1.18449" ry="1.20054" transform="matrix(0.745054 -0.667004 -0.611213 -0.791466 101.054 289.056)" fill="#FF9F9F" fill-opacity="0.17"/>
<ellipse cx="2.13208" cy="2.16097" rx="2.13208" ry="2.16097" transform="matrix(0.745054 -0.667004 -0.611213 -0.791466 140.872 265.623)" fill="#FF9F9F" fill-opacity="0.17"/>
<ellipse cx="1.89518" cy="1.92086" rx="1.89518" ry="1.92086" transform="matrix(0.745054 -0.667004 -0.611213 -0.791466 163.172 302.23)" fill="#FF9F9F" fill-opacity="0.17"/>
<ellipse cx="1.65828" cy="1.44065" rx="1.65828" ry="1.44065" transform="matrix(0.745054 -0.667004 -0.611213 -0.791466 168.201 270.085)" fill="#FF9F9F" fill-opacity="0.17"/>
<ellipse cx="3.79036" cy="3.84173" rx="3.79036" ry="3.84173" transform="matrix(0.745054 -0.667004 -0.611213 -0.791466 127.733 297.315)" fill="#FF9F9F" fill-opacity="0.17"/>
<ellipse cx="2.66254" cy="2.69862" rx="2.66254" ry="2.69862" transform="matrix(0.745054 -0.667004 -0.611213 -0.791466 35.8301 309.286)" fill="#FF9F9F" fill-opacity="0.17"/>
<ellipse cx="2.3667" cy="2.39877" rx="2.3667" ry="2.39877" transform="matrix(0.745054 -0.667004 -0.611213 -0.791466 63.678 355)" fill="#FF9F9F" fill-opacity="0.17"/>
<ellipse cx="2.07086" cy="1.79908" rx="2.07086" ry="1.79908" transform="matrix(0.745054 -0.667004 -0.611213 -0.791466 69.9573 314.859)" fill="#FF9F9F" fill-opacity="0.17"/>
<ellipse cx="4.7334" cy="4.79754" rx="4.7334" ry="4.79754" transform="matrix(0.745054 -0.667004 -0.611213 -0.791466 19.4216 348.862)" fill="#FF9F9F" fill-opacity="0.17"/>
<ellipse cx="2.13208" cy="2.16097" rx="2.13208" ry="2.16097" transform="matrix(-0.745054 -0.667004 0.611213 -0.791466 242.529 317.832)" fill="#FF9F9F" fill-opacity="0.17"/>
<ellipse cx="1.89518" cy="1.92086" rx="1.89518" ry="1.92086" transform="matrix(-0.745054 -0.667004 0.611213 -0.791466 220.231 354.438)" fill="#FF9F9F" fill-opacity="0.17"/>
<ellipse cx="1.65828" cy="1.44065" rx="1.65828" ry="1.44065" transform="matrix(-0.745054 -0.667004 0.611213 -0.791466 215.201 322.294)" fill="#FF9F9F" fill-opacity="0.17"/>
<ellipse cx="3.79036" cy="3.84173" rx="3.79036" ry="3.84173" transform="matrix(-0.745054 -0.667004 0.611213 -0.791466 255.669 349.524)" fill="#FF9F9F" fill-opacity="0.17"/>
<path d="M217.503 281H64.6924V89.1841L217.503 140.69V281Z" fill="#F2F2F2"/>
<path d="M198.983 213.213H78.9172V273.896H198.983V213.213Z" fill="#3F3D56"/>
<path d="M172.98 201.861C182.201 201.861 189.677 193.752 189.677 183.749C189.677 173.746 182.201 165.637 172.98 165.637C163.759 165.637 156.284 173.746 156.284 183.749C156.284 193.752 163.759 201.861 172.98 201.861Z" fill="#E97777"/>
<path d="M172.829 216.503L172.966 183.649" stroke="#3F3D56" stroke-width="2" stroke-miterlimit="10"/>
<path d="M172.966 188.295C175.331 188.295 177.249 186.215 177.249 183.649C177.249 181.083 175.331 179.003 172.966 179.003C170.601 179.003 168.683 181.083 168.683 183.649C168.683 186.215 170.601 188.295 172.966 188.295Z" fill="#3F3D56"/>
<path d="M172.882 203.898C172.882 203.898 172.329 189.62 159.78 191.218L172.882 203.898Z" fill="#3F3D56"/>
<path d="M103.038 165.498C112.259 165.498 119.734 157.389 119.734 147.386C119.734 137.383 112.259 129.274 103.038 129.274C93.8169 129.274 86.3418 137.383 86.3418 147.386C86.3418 157.389 93.8169 165.498 103.038 165.498Z" fill="#E97777"/>
<path d="M102.093 214.25L103.053 147.366" stroke="#3F3D56" stroke-width="2" stroke-miterlimit="10"/>
<path d="M103.053 152.012C105.419 152.012 107.336 149.932 107.336 147.366C107.336 144.8 105.419 142.72 103.053 142.72C100.688 142.72 98.7705 144.8 98.7705 147.366C98.7705 149.932 100.688 152.012 103.053 152.012Z" fill="#3F3D56"/>
<path d="M102.782 166.285C102.782 166.285 102.375 152.001 89.8098 153.448L102.782 166.285Z" fill="#3F3D56"/>
<path d="M102.111 212.973C102.111 212.973 105.258 185.572 89.3713 183.976" stroke="#3F3D56" stroke-width="2" stroke-miterlimit="10"/>
<path d="M89.3713 188.622C91.7367 188.622 93.6542 186.542 93.6542 183.976C93.6542 181.41 91.7367 179.33 89.3713 179.33C87.0059 179.33 85.0884 181.41 85.0884 183.976C85.0884 186.542 87.0059 188.622 89.3713 188.622Z" fill="#3F3D56"/>
<path d="M138.943 125.289C148.164 125.289 155.639 117.18 155.639 107.177C155.639 97.1745 148.164 89.0656 138.943 89.0656C129.722 89.0656 122.247 97.1745 122.247 107.177C122.247 117.18 129.722 125.289 138.943 125.289Z" fill="#E97777"/>
<path d="M138.953 216.829V107.244" stroke="#3F3D56" stroke-width="2" stroke-miterlimit="10"/>
<path d="M138.954 111.838C141.319 111.838 143.236 109.758 143.236 107.192C143.236 104.626 141.319 102.546 138.954 102.546C136.588 102.546 134.671 104.626 134.671 107.192C134.671 109.758 136.588 111.838 138.954 111.838Z" fill="#3F3D56"/>
<path d="M125.799 191.124C128.164 191.124 130.082 189.043 130.082 186.478C130.082 183.912 128.164 181.832 125.799 181.832C123.433 181.832 121.516 183.912 121.516 186.478C121.516 189.043 123.433 191.124 125.799 191.124Z" fill="#3F3D56"/>
<path d="M138.953 130.924C138.953 130.924 138.342 116.649 125.799 118.308L138.953 130.924Z" fill="#3F3D56"/>
<path d="M138.953 171.392C138.953 171.392 138.342 157.117 125.799 158.777L138.953 171.392Z" fill="#3F3D56"/>
<path d="M138.953 215.552C138.953 215.552 141.707 187.805 125.799 186.478" stroke="#3F3D56" stroke-width="2" stroke-miterlimit="10"/>
<path d="M152.371 147.542C154.736 147.542 156.654 145.462 156.654 142.896C156.654 140.33 154.736 138.25 152.371 138.25C150.005 138.25 148.088 140.33 148.088 142.896C148.088 145.462 150.005 147.542 152.371 147.542Z" fill="#3F3D56"/>
<path d="M139.216 170.491C139.216 170.491 136.463 144.224 152.371 142.896" stroke="#3F3D56" stroke-width="2" stroke-miterlimit="10"/>
<path d="M174.662 132.402C173.474 132.402 172.314 132.02 171.326 131.304C170.339 130.589 169.57 129.572 169.115 128.382C168.661 127.192 168.542 125.882 168.774 124.619C169.005 123.356 169.577 122.195 170.417 121.285C171.256 120.374 172.326 119.754 173.491 119.502C174.655 119.251 175.862 119.38 176.959 119.873C178.056 120.366 178.994 121.201 179.653 122.272C180.313 123.343 180.665 124.602 180.665 125.89C180.663 127.616 180.03 129.271 178.905 130.492C177.779 131.713 176.253 132.4 174.662 132.402ZM174.662 119.969C173.582 119.969 172.527 120.317 171.63 120.967C170.732 121.618 170.033 122.542 169.62 123.624C169.207 124.706 169.098 125.896 169.309 127.045C169.52 128.193 170.039 129.248 170.803 130.076C171.566 130.904 172.538 131.468 173.597 131.696C174.656 131.925 175.753 131.807 176.75 131.359C177.747 130.911 178.6 130.152 179.2 129.179C179.799 128.205 180.119 127.061 180.119 125.89C180.118 124.32 179.542 122.815 178.519 121.705C177.496 120.595 176.109 119.971 174.662 119.969Z" fill="#3F3D56"/>
<path d="M80.2462 101.025C79.0589 101.025 77.8982 100.643 76.911 99.927C75.9237 99.2114 75.1543 98.1944 74.6999 97.0044C74.2455 95.8144 74.1266 94.505 74.3583 93.2418C74.5899 91.9785 75.1617 90.8182 76.0012 89.9074C76.8408 88.9966 77.9105 88.3764 79.075 88.1251C80.2396 87.8739 81.4466 88.0028 82.5436 88.4957C83.6405 88.9886 84.5781 89.8233 85.2378 90.8942C85.8974 91.9652 86.2495 93.2243 86.2495 94.5123C86.2477 96.2388 85.6146 97.8941 84.4892 99.115C83.3638 100.336 81.8378 101.023 80.2462 101.025ZM80.2462 88.592C79.1668 88.592 78.1117 88.9392 77.2142 89.5898C76.3167 90.2403 75.6172 91.1649 75.2041 92.2467C74.791 93.3285 74.683 94.5188 74.8935 95.6673C75.1041 96.8157 75.6239 97.8706 76.3872 98.6985C77.1504 99.5265 78.1228 100.09 79.1815 100.319C80.2402 100.547 81.3375 100.43 82.3347 99.9819C83.332 99.5338 84.1843 98.775 84.784 97.8014C85.3837 96.8278 85.7038 95.6832 85.7038 94.5123C85.7021 92.9427 85.1266 91.4379 84.1035 90.328C83.0803 89.2181 81.6931 88.5938 80.2462 88.592Z" fill="#3F3D56"/>
<path d="M217.503 197.525C216.316 197.525 215.155 197.143 214.168 196.427C213.181 195.711 212.411 194.694 211.957 193.504C211.503 192.314 211.384 191.005 211.615 189.742C211.847 188.479 212.419 187.318 213.258 186.407C214.098 185.497 215.168 184.876 216.332 184.625C217.497 184.374 218.704 184.503 219.801 184.996C220.898 185.489 221.835 186.323 222.495 187.394C223.154 188.465 223.507 189.724 223.507 191.012C223.505 192.739 222.872 194.394 221.746 195.615C220.621 196.836 219.095 197.523 217.503 197.525ZM217.503 185.092C216.424 185.092 215.369 185.439 214.471 186.09C213.574 186.74 212.874 187.665 212.461 188.747C212.048 189.828 211.94 191.019 212.151 192.167C212.361 193.316 212.881 194.371 213.644 195.199C214.407 196.026 215.38 196.59 216.439 196.819C217.497 197.047 218.595 196.93 219.592 196.482C220.589 196.034 221.441 195.275 222.041 194.301C222.641 193.328 222.961 192.183 222.961 191.012C222.959 189.443 222.384 187.938 221.361 186.828C220.337 185.718 218.95 185.094 217.503 185.092Z" fill="#3F3D56"/>
<path d="M192.126 146.61C194.085 146.61 195.673 144.888 195.673 142.762C195.673 140.637 194.085 138.914 192.126 138.914C190.167 138.914 188.578 140.637 188.578 142.762C188.578 144.888 190.167 146.61 192.126 146.61Z" fill="#3F3D56"/>
<path d="M64.5474 211.696C66.5066 211.696 68.0948 209.973 68.0948 207.848C68.0948 205.723 66.5066 204 64.5474 204C62.5882 204 61 205.723 61 207.848C61 209.973 62.5882 211.696 64.5474 211.696Z" fill="#3F3D56"/>
<path d="M217.503 281V213.213H192.126C192.126 244.929 168.425 270.64 139.188 270.64C109.951 270.64 86.2497 244.929 86.2497 213.213H64.6924V281H217.503Z" fill="#3F3D56"/>
<path d="M139.188 270.64C168.425 270.64 192.126 244.929 192.126 213.213H86.2495C86.2495 244.929 109.951 270.64 139.188 270.64Z" fill="#E97777"/>
<path d="M101.112 295.664C101.112 296.144 101.2 296.576 101.376 296.96C101.552 297.328 101.792 297.648 102.096 297.92C102.416 298.176 102.784 298.376 103.2 298.52C103.616 298.664 104.072 298.736 104.568 298.736C105.064 298.736 105.52 298.664 105.936 298.52C106.368 298.376 106.736 298.176 107.04 297.92C107.36 297.648 107.608 297.328 107.784 296.96C107.96 296.576 108.048 296.144 108.048 295.664C108.048 295.184 107.96 294.752 107.784 294.368C107.608 293.984 107.36 293.656 107.04 293.384C106.736 293.112 106.368 292.904 105.936 292.76C105.52 292.616 105.064 292.544 104.568 292.544C104.072 292.544 103.616 292.616 103.2 292.76C102.784 292.904 102.416 293.112 102.096 293.384C101.792 293.656 101.552 293.984 101.376 294.368C101.2 294.752 101.112 295.184 101.112 295.664ZM99.3838 295.664C99.3838 295.088 99.5038 294.544 99.7438 294.032C99.9838 293.504 100.328 293.048 100.776 292.664C101.224 292.28 101.768 291.976 102.408 291.752C103.048 291.528 103.76 291.416 104.544 291.416C105.312 291.416 106.016 291.528 106.656 291.752C107.296 291.976 107.84 292.28 108.288 292.664C108.736 293.048 109.08 293.504 109.32 294.032C109.576 294.544 109.704 295.088 109.704 295.664C109.704 296.24 109.576 296.792 109.32 297.32C109.08 297.848 108.736 298.312 108.288 298.712C107.84 299.112 107.296 299.432 106.656 299.672C106.016 299.912 105.312 300.032 104.544 300.032C103.76 300.032 103.048 299.912 102.408 299.672C101.768 299.432 101.224 299.112 100.776 298.712C100.328 298.312 99.9838 297.848 99.7438 297.32C99.5038 296.792 99.3838 296.24 99.3838 295.664ZM115.776 291.392V297.152C115.776 297.408 115.768 297.752 115.752 298.184C115.752 298.616 115.72 299.04 115.656 299.456C115.592 299.872 115.488 300.232 115.344 300.536C115.216 300.84 115.024 300.992 114.768 300.992C114.4 300.992 114.216 300.312 114.216 298.952V291.848C114.216 291.56 114.064 291.296 113.76 291.056C113.472 290.816 113.032 290.584 112.44 290.36C112.312 290.296 112.2 290.24 112.104 290.192C112.024 290.128 111.984 290.056 111.984 289.976C111.984 289.896 112.04 289.808 112.152 289.712C112.28 289.616 112.464 289.568 112.704 289.568C112.816 289.568 113.024 289.584 113.328 289.616C113.632 289.648 113.952 289.696 114.288 289.76C114.64 289.808 114.968 289.864 115.272 289.928C115.576 289.992 115.776 290.048 115.872 290.096L115.776 291.392ZM115.2 305.576C115.504 305.64 115.712 305.72 115.824 305.816C115.936 305.912 115.992 306.032 115.992 306.176C115.992 306.544 115.704 306.736 115.128 306.752L107.52 306.92V309.392C107.52 309.792 107.728 309.992 108.144 309.992L112.944 309.968C113.392 309.968 113.768 309.904 114.072 309.776C114.392 309.648 114.624 309.52 114.768 309.392C115.184 309.392 115.576 309.408 115.944 309.44C116.312 309.488 116.632 309.544 116.904 309.608C117.32 309.736 117.528 309.96 117.528 310.28C117.528 310.68 117.24 310.88 116.664 310.88L107.784 310.904C106.536 310.904 105.912 310.288 105.912 309.056V307.232C105.688 306.864 105.248 306.6 104.592 306.44C104.288 306.376 104.136 306.264 104.136 306.104C104.136 305.992 104.192 305.896 104.304 305.816C104.432 305.736 104.624 305.696 104.88 305.696C105.456 305.696 105.92 305.712 106.272 305.744C106.64 305.776 107.024 305.88 107.424 306.056C108.448 306.024 109.488 306 110.544 305.984C111.616 305.952 112.656 305.92 113.664 305.888C113.76 305.888 113.848 305.84 113.928 305.744V302.864C113.624 302.864 113.24 302.872 112.776 302.888C112.328 302.888 111.856 302.896 111.36 302.912C110.88 302.928 110.408 302.952 109.944 302.984C109.48 303 109.096 303.024 108.792 303.056C108.424 303.088 108.088 303.16 107.784 303.272C107.48 303.368 107.184 303.496 106.896 303.656C106.672 303.608 106.44 303.536 106.2 303.44C105.96 303.328 105.728 303.216 105.504 303.104C105.296 302.992 105.104 302.888 104.928 302.792C104.768 302.68 104.648 302.592 104.568 302.528C104.472 302.432 104.424 302.328 104.424 302.216C104.424 301.992 104.632 301.92 105.048 302C105.464 302.064 105.864 302.104 106.248 302.12C106.632 302.12 107.008 302.12 107.376 302.12C107.696 302.12 108.064 302.12 108.48 302.12C108.896 302.12 109.336 302.12 109.8 302.12C110.28 302.104 110.76 302.096 111.24 302.096C111.72 302.08 112.184 302.056 112.632 302.024C112.92 302.008 113.2 301.96 113.472 301.88C113.76 301.8 113.944 301.728 114.024 301.664C114.248 301.648 114.488 301.648 114.744 301.664C115 301.68 115.216 301.704 115.392 301.736C115.68 301.784 115.832 301.872 115.848 302C115.864 302.128 115.856 302.256 115.824 302.384C115.792 302.608 115.744 302.808 115.68 302.984C115.632 303.16 115.576 303.384 115.512 303.656L115.2 305.576ZM134.854 302.768C135.078 302.752 135.318 302.752 135.574 302.768C135.83 302.784 136.046 302.808 136.222 302.84C136.51 302.904 136.654 303 136.654 303.128C136.67 303.256 136.67 303.384 136.654 303.512C136.622 303.784 136.574 304 136.51 304.16C136.462 304.32 136.422 304.56 136.39 304.88C136.358 305.184 136.326 305.52 136.294 305.888C136.262 306.24 136.23 306.6 136.198 306.968C136.166 307.336 136.134 307.688 136.102 308.024C136.07 308.376 136.038 308.696 136.006 308.984C136.31 309.048 136.518 309.136 136.63 309.248C136.758 309.376 136.822 309.504 136.822 309.632C136.822 309.984 136.526 310.176 135.934 310.208C134.606 310.176 133.334 310.168 132.118 310.184C130.918 310.2 129.67 310.224 128.374 310.256C128.358 310.416 128.286 310.6 128.158 310.808C128.046 311.016 127.902 311.12 127.726 311.12C127.502 311.12 127.342 311.016 127.246 310.808C127.166 310.6 127.11 310.36 127.078 310.088L126.67 304.688C126.558 304.448 126.398 304.272 126.19 304.16C125.998 304.032 125.75 303.92 125.446 303.824C125.318 303.776 125.206 303.72 125.11 303.656C125.014 303.576 124.966 303.496 124.966 303.416C124.966 303.336 125.022 303.248 125.134 303.152C125.262 303.056 125.446 303.008 125.686 303.008C126.054 303.008 126.494 303.04 127.006 303.104C127.534 303.152 128.038 303.2 128.518 303.248C129.446 303.28 130.326 303.28 131.158 303.248C132.006 303.216 132.862 303.168 133.726 303.104C133.998 303.072 134.222 303.032 134.398 302.984C134.574 302.92 134.726 302.848 134.854 302.768ZM134.566 309.224C134.662 309.224 134.75 309.176 134.83 309.08V304.112C134.334 304.112 133.782 304.112 133.174 304.112C132.566 304.112 131.958 304.12 131.35 304.136C130.758 304.152 130.198 304.176 129.67 304.208C129.158 304.224 128.742 304.24 128.422 304.256C128.406 304.432 128.398 304.56 128.398 304.64C128.398 304.704 128.398 304.76 128.398 304.808V309.272C128.67 309.272 129.086 309.272 129.646 309.272C130.222 309.272 130.822 309.272 131.446 309.272C132.07 309.272 132.67 309.264 133.246 309.248C133.822 309.248 134.262 309.24 134.566 309.224ZM131.23 293.288C130.702 294.376 130.03 295.408 129.214 296.384C128.414 297.36 127.55 298.256 126.622 299.072C125.71 299.888 124.766 300.624 123.79 301.28C122.814 301.92 121.886 302.456 121.006 302.888C120.798 302.984 120.63 303.032 120.502 303.032C120.374 303.016 120.286 302.968 120.238 302.888C120.206 302.808 120.214 302.712 120.262 302.6C120.326 302.488 120.438 302.384 120.598 302.288C121.414 301.792 122.254 301.216 123.118 300.56C123.982 299.904 124.806 299.184 125.59 298.4C126.374 297.6 127.086 296.744 127.726 295.832C128.382 294.904 128.91 293.928 129.31 292.904C129.038 292.904 128.718 292.912 128.35 292.928C127.982 292.928 127.598 292.936 127.198 292.952C126.798 292.968 126.406 292.992 126.022 293.024C125.638 293.04 125.31 293.064 125.038 293.096C124.718 293.128 124.414 293.184 124.126 293.264C123.854 293.344 123.59 293.464 123.334 293.624C123.142 293.576 122.934 293.512 122.71 293.432C122.486 293.336 122.27 293.24 122.062 293.144C121.854 293.048 121.67 292.952 121.51 292.856C121.35 292.744 121.238 292.656 121.174 292.592C121.078 292.496 121.03 292.392 121.03 292.28C121.03 292.056 121.214 291.984 121.582 292.064C121.95 292.128 122.302 292.168 122.638 292.184C122.974 292.184 123.302 292.184 123.622 292.184C123.91 292.184 124.278 292.184 124.726 292.184C125.174 292.168 125.654 292.152 126.166 292.136C126.678 292.104 127.19 292.08 127.702 292.064C128.214 292.048 128.662 292.024 129.046 291.992C129.302 291.976 129.526 291.928 129.718 291.848C129.91 291.768 130.046 291.704 130.126 291.656C130.27 291.656 130.446 291.664 130.654 291.68C130.878 291.696 131.102 291.72 131.326 291.752C131.518 291.784 131.646 291.848 131.71 291.944C131.79 292.024 131.83 292.128 131.83 292.256C131.83 292.368 131.702 292.584 131.446 292.904C131.414 292.952 131.374 293.016 131.326 293.096C131.294 293.176 131.262 293.24 131.23 293.288ZM136.582 291.392V296.264C136.71 296.248 136.83 296.24 136.942 296.24C137.054 296.24 137.142 296.24 137.206 296.24C137.558 296.208 137.87 296.136 138.142 296.024C138.43 295.912 138.63 295.784 138.742 295.64C138.966 295.64 139.246 295.656 139.582 295.688C139.934 295.704 140.246 295.728 140.518 295.76C140.982 295.84 141.214 296.072 141.214 296.456C141.214 296.872 140.934 297.08 140.374 297.08C139.798 297.096 139.166 297.112 138.478 297.128C137.806 297.128 137.174 297.136 136.582 297.152V298.184C136.582 298.44 136.574 298.784 136.558 299.216C136.558 299.648 136.526 300.072 136.462 300.488C136.398 300.904 136.294 301.264 136.15 301.568C136.022 301.872 135.83 302.024 135.574 302.024C135.206 302.024 135.022 301.344 135.022 299.984V291.848C135.022 291.56 134.87 291.296 134.566 291.056C134.278 290.816 133.838 290.584 133.246 290.36C133.118 290.296 133.006 290.24 132.91 290.192C132.83 290.128 132.79 290.056 132.79 289.976C132.79 289.896 132.846 289.808 132.958 289.712C133.086 289.616 133.27 289.568 133.51 289.568C133.622 289.568 133.83 289.584 134.134 289.616C134.438 289.648 134.758 289.696 135.094 289.76C135.446 289.808 135.774 289.864 136.078 289.928C136.382 289.992 136.582 290.048 136.678 290.096L136.582 291.392ZM147.476 305.48C147.348 305.272 147.172 305.112 146.948 305C146.74 304.888 146.516 304.792 146.276 304.712C145.956 304.616 145.788 304.464 145.772 304.256C145.756 304.032 145.932 303.912 146.3 303.896C146.636 303.88 147.076 303.896 147.62 303.944C148.164 303.992 148.724 304.04 149.3 304.088C150.308 304.12 151.332 304.112 152.372 304.064C153.412 304.016 154.34 303.976 155.156 303.944C155.62 303.912 156.108 303.888 156.62 303.872C157.132 303.84 157.5 303.816 157.724 303.8C157.98 303.784 158.148 303.824 158.228 303.92C158.324 304 158.364 304.096 158.348 304.208C158.332 304.32 158.3 304.472 158.252 304.664C158.22 304.856 158.188 305.04 158.156 305.216C158.076 305.776 157.964 306.424 157.82 307.16C157.692 307.88 157.556 308.608 157.412 309.344C158.004 309.328 158.292 309.536 158.276 309.968C158.26 310.112 158.188 310.232 158.06 310.328C157.948 310.44 157.74 310.496 157.436 310.496C156.092 310.496 154.756 310.512 153.428 310.544C152.1 310.576 150.748 310.624 149.372 310.688C149.356 310.832 149.276 310.976 149.132 311.12C148.988 311.28 148.828 311.368 148.652 311.384C148.476 311.4 148.332 311.328 148.22 311.168C148.108 311.008 148.036 310.8 148.004 310.544L147.476 305.48ZM149.3 305.096C149.284 305.272 149.276 305.4 149.276 305.48C149.276 305.544 149.276 305.6 149.276 305.648L149.396 309.704C149.748 309.704 150.204 309.696 150.764 309.68C151.34 309.68 151.94 309.664 152.564 309.632C153.204 309.616 153.844 309.592 154.484 309.56C155.124 309.528 155.7 309.48 156.212 309.416L156.332 304.952C155.82 304.936 155.244 304.936 154.604 304.952C153.98 304.952 153.348 304.96 152.708 304.976C152.068 304.976 151.444 304.992 150.836 305.024C150.244 305.04 149.732 305.064 149.3 305.096ZM158.252 300.44C158.364 300.44 158.508 300.432 158.684 300.416C158.86 300.384 159.036 300.352 159.212 300.32C159.388 300.272 159.556 300.224 159.716 300.176C159.876 300.112 160.004 300.04 160.1 299.96C160.372 299.944 160.7 299.96 161.084 300.008C161.468 300.04 161.772 300.08 161.996 300.128C162.252 300.176 162.476 300.264 162.668 300.392C162.876 300.504 162.964 300.696 162.932 300.968C162.9 301.24 162.748 301.432 162.476 301.544C162.204 301.64 161.868 301.672 161.468 301.64C161.26 301.624 161.004 301.608 160.7 301.592C160.396 301.576 160.076 301.568 159.74 301.568C159.42 301.552 159.092 301.544 158.756 301.544C158.436 301.528 158.156 301.52 157.916 301.52C157.404 301.52 156.812 301.52 156.14 301.52C155.484 301.52 154.788 301.528 154.052 301.544C153.332 301.544 152.604 301.552 151.868 301.568C151.132 301.584 150.436 301.6 149.78 301.616C149.124 301.632 148.54 301.656 148.028 301.688C147.516 301.704 147.116 301.728 146.828 301.76C146.428 301.792 146.044 301.872 145.676 302C145.308 302.112 145.044 302.208 144.884 302.288C144.708 302.24 144.508 302.168 144.284 302.072C144.06 301.976 143.836 301.872 143.612 301.76C143.388 301.648 143.18 301.536 142.988 301.424C142.796 301.296 142.66 301.184 142.58 301.088C142.388 300.88 142.348 300.712 142.46 300.584C142.588 300.456 142.74 300.408 142.916 300.44C143.012 300.456 143.156 300.48 143.348 300.512C143.54 300.528 143.74 300.544 143.948 300.56C144.172 300.576 144.38 300.592 144.572 300.608C144.78 300.624 144.932 300.632 145.028 300.632C147.364 300.664 149.604 300.672 151.748 300.656C153.892 300.64 156.06 300.568 158.252 300.44ZM149.012 294.56C149.012 295.008 149.1 295.416 149.276 295.784C149.468 296.136 149.724 296.44 150.044 296.696C150.364 296.936 150.74 297.12 151.172 297.248C151.62 297.376 152.108 297.44 152.636 297.44C153.164 297.44 153.644 297.376 154.076 297.248C154.524 297.12 154.908 296.936 155.228 296.696C155.564 296.44 155.82 296.136 155.996 295.784C156.188 295.416 156.284 295.008 156.284 294.56C156.284 294.112 156.188 293.712 155.996 293.36C155.82 292.992 155.564 292.68 155.228 292.424C154.908 292.168 154.524 291.976 154.076 291.848C153.644 291.72 153.164 291.656 152.636 291.656C152.108 291.656 151.62 291.72 151.172 291.848C150.74 291.976 150.364 292.168 150.044 292.424C149.724 292.68 149.468 292.992 149.276 293.36C149.1 293.712 149.012 294.112 149.012 294.56ZM147.332 294.536C147.332 293.944 147.46 293.408 147.716 292.928C147.972 292.448 148.332 292.032 148.796 291.68C149.276 291.328 149.836 291.056 150.476 290.864C151.116 290.672 151.82 290.576 152.588 290.576C153.356 290.576 154.06 290.672 154.7 290.864C155.356 291.056 155.916 291.328 156.38 291.68C156.86 292.032 157.228 292.448 157.484 292.928C157.756 293.408 157.892 293.944 157.892 294.536C157.892 295.112 157.756 295.648 157.484 296.144C157.228 296.624 156.86 297.04 156.38 297.392C155.916 297.728 155.356 297.992 154.7 298.184C154.06 298.376 153.356 298.472 152.588 298.472C151.82 298.472 151.116 298.376 150.476 298.184C149.836 297.992 149.276 297.728 148.796 297.392C148.332 297.04 147.972 296.624 147.716 296.144C147.46 295.648 147.332 295.112 147.332 294.536ZM167.226 300.584C167.034 300.632 166.874 300.632 166.746 300.584C166.618 300.536 166.522 300.464 166.458 300.368C166.41 300.272 166.402 300.176 166.434 300.08C166.482 299.984 166.594 299.912 166.77 299.864C169.298 299.096 171.482 298.208 173.322 297.2C175.178 296.192 176.706 295.176 177.906 294.152C177.602 294.152 177.17 294.16 176.61 294.176C176.066 294.176 175.49 294.184 174.882 294.2C174.29 294.216 173.714 294.24 173.154 294.272C172.594 294.288 172.162 294.312 171.858 294.344C171.49 294.376 171.154 294.448 170.85 294.56C170.546 294.656 170.25 294.784 169.962 294.944C169.738 294.896 169.506 294.824 169.266 294.728C169.026 294.616 168.794 294.504 168.57 294.392C168.362 294.28 168.17 294.176 167.994 294.08C167.834 293.968 167.714 293.88 167.634 293.816C167.538 293.72 167.49 293.616 167.49 293.504C167.49 293.28 167.698 293.208 168.114 293.288C168.53 293.352 168.93 293.392 169.314 293.408C169.698 293.408 170.074 293.408 170.442 293.408C170.762 293.408 171.218 293.408 171.81 293.408C172.418 293.392 173.066 293.384 173.754 293.384C174.442 293.368 175.114 293.352 175.77 293.336C176.442 293.32 177.002 293.296 177.45 293.264C177.738 293.248 177.994 293.2 178.218 293.12C178.458 293.04 178.618 292.976 178.698 292.928C178.858 292.928 179.09 292.944 179.394 292.976C179.698 292.992 179.978 293.016 180.234 293.048C180.458 293.08 180.61 293.144 180.69 293.24C180.77 293.32 180.81 293.424 180.81 293.552C180.81 293.616 180.77 293.712 180.69 293.84C180.61 293.968 180.498 294.088 180.354 294.2C180.274 294.28 180.186 294.352 180.09 294.416C179.994 294.48 179.93 294.528 179.898 294.56C179.338 295.056 178.73 295.528 178.074 295.976C177.434 296.408 176.738 296.832 175.986 297.248C176.162 297.312 176.354 297.376 176.562 297.44C176.77 297.504 176.978 297.568 177.186 297.632C177.394 297.68 177.586 297.728 177.762 297.776C177.954 297.808 178.106 297.832 178.218 297.848C178.346 297.896 178.506 297.912 178.698 297.896C178.89 297.88 179.05 297.856 179.178 297.824C179.354 297.76 179.49 297.736 179.586 297.752C179.682 297.752 179.794 297.768 179.922 297.8C180.098 297.848 180.298 297.92 180.522 298.016C180.746 298.112 180.97 298.216 181.194 298.328C181.418 298.424 181.618 298.528 181.794 298.64C181.986 298.736 182.138 298.816 182.25 298.88C182.522 299.056 182.73 299.24 182.874 299.432C182.97 299.56 183.002 299.688 182.97 299.816C182.954 299.928 182.882 300.016 182.754 300.08C182.658 300.128 182.506 300.152 182.298 300.152C182.106 300.136 181.826 300.064 181.458 299.936L174.882 297.824C173.698 298.4 172.458 298.928 171.162 299.408C169.866 299.872 168.554 300.264 167.226 300.584ZM173.85 302.84C173.13 302.872 172.418 302.904 171.714 302.936C171.01 302.968 170.298 303 169.578 303.032C169.258 303.064 168.93 303.128 168.594 303.224C168.274 303.304 167.97 303.432 167.682 303.608C167.458 303.592 167.218 303.552 166.962 303.488C166.706 303.408 166.45 303.32 166.194 303.224C165.938 303.112 165.69 303 165.45 302.888C165.226 302.76 165.026 302.632 164.85 302.504C164.738 302.424 164.65 302.336 164.586 302.24C164.538 302.128 164.514 302.032 164.514 301.952C164.514 301.712 164.77 301.632 165.282 301.712C165.746 301.792 166.242 301.856 166.77 301.904C167.298 301.936 167.85 301.952 168.426 301.952C170.474 301.952 172.386 301.936 174.162 301.904C175.954 301.856 177.658 301.792 179.274 301.712C179.882 301.68 180.37 301.624 180.738 301.544C181.106 301.448 181.434 301.312 181.722 301.136C182.042 301.152 182.402 301.184 182.802 301.232C183.218 301.28 183.61 301.344 183.978 301.424C184.586 301.552 184.89 301.8 184.89 302.168C184.89 302.664 184.586 302.912 183.978 302.912C183.818 302.912 183.554 302.904 183.186 302.888C182.834 302.856 182.402 302.816 181.89 302.768C181.682 302.752 181.33 302.744 180.834 302.744C180.338 302.728 179.738 302.72 179.034 302.72C178.442 302.736 177.85 302.752 177.258 302.768C176.666 302.768 176.074 302.776 175.482 302.792V306.776C175.482 307.064 175.474 307.464 175.458 307.976C175.458 308.472 175.418 308.96 175.338 309.44C175.274 309.92 175.17 310.336 175.026 310.688C174.882 311.04 174.674 311.216 174.402 311.216C174.034 311.216 173.85 310.312 173.85 308.504V302.84ZM177.69 291.104C177.69 291.36 177.586 291.544 177.378 291.656C177.17 291.768 176.93 291.816 176.658 291.8C176.466 291.8 176.21 291.8 175.89 291.8C175.586 291.784 175.266 291.784 174.93 291.8C174.594 291.8 174.258 291.808 173.922 291.824C173.602 291.84 173.322 291.872 173.082 291.92C172.586 291.76 172.178 291.576 171.858 291.368C171.554 291.16 171.274 290.92 171.018 290.648C170.954 290.584 170.914 290.512 170.898 290.432C170.882 290.352 170.89 290.28 170.922 290.216C170.97 290.136 171.034 290.08 171.114 290.048C171.194 290.016 171.306 290.024 171.45 290.072C171.562 290.104 171.77 290.16 172.074 290.24C172.394 290.304 172.674 290.352 172.914 290.384C173.122 290.416 173.378 290.44 173.682 290.456C174.002 290.472 174.33 290.488 174.666 290.504C175.018 290.504 175.37 290.512 175.722 290.528C176.074 290.528 176.394 290.528 176.682 290.528C177.002 290.544 177.25 290.584 177.426 290.648C177.602 290.712 177.69 290.864 177.69 291.104Z" fill="#DE5757"/>
<path d="M82.5671 334.53C82.4924 334.409 82.3897 334.315 82.2591 334.25C82.1377 334.185 82.0071 334.129 81.8671 334.082C81.6804 334.026 81.5824 333.937 81.5731 333.816C81.5637 333.685 81.6664 333.615 81.8811 333.606C82.0771 333.597 82.3337 333.606 82.6511 333.634C82.9684 333.662 83.2951 333.69 83.6311 333.718C84.2191 333.737 84.8164 333.732 85.4231 333.704C86.0297 333.676 86.5711 333.653 87.0471 333.634C87.3177 333.615 87.6024 333.601 87.9011 333.592C88.1997 333.573 88.4144 333.559 88.5451 333.55C88.6944 333.541 88.7924 333.564 88.8391 333.62C88.8951 333.667 88.9184 333.723 88.9091 333.788C88.8997 333.853 88.8811 333.942 88.8531 334.054C88.8344 334.166 88.8157 334.273 88.7971 334.376C88.7504 334.703 88.6851 335.081 88.6011 335.51C88.5264 335.93 88.4471 336.355 88.3631 336.784C88.7084 336.775 88.8764 336.896 88.8671 337.148C88.8577 337.232 88.8157 337.302 88.7411 337.358C88.6757 337.423 88.5544 337.456 88.3771 337.456C87.5931 337.456 86.8137 337.465 86.0391 337.484C85.2644 337.503 84.4757 337.531 83.6731 337.568C83.6637 337.652 83.6171 337.736 83.5331 337.82C83.4491 337.913 83.3557 337.965 83.2531 337.974C83.1504 337.983 83.0664 337.941 83.0011 337.848C82.9357 337.755 82.8937 337.633 82.8751 337.484L82.5671 334.53ZM83.6311 334.306C83.6217 334.409 83.6171 334.483 83.6171 334.53C83.6171 334.567 83.6171 334.6 83.6171 334.628L83.6871 336.994C83.8924 336.994 84.1584 336.989 84.4851 336.98C84.8211 336.98 85.1711 336.971 85.5351 336.952C85.9084 336.943 86.2817 336.929 86.6551 336.91C87.0284 336.891 87.3644 336.863 87.6631 336.826L87.7331 334.222C87.4344 334.213 87.0984 334.213 86.7251 334.222C86.3611 334.222 85.9924 334.227 85.6191 334.236C85.2457 334.236 84.8817 334.245 84.5271 334.264C84.1817 334.273 83.8831 334.287 83.6311 334.306ZM88.8531 331.59C88.9184 331.59 89.0024 331.585 89.1051 331.576C89.2077 331.557 89.3104 331.539 89.4131 331.52C89.5157 331.492 89.6137 331.464 89.7071 331.436C89.8004 331.399 89.8751 331.357 89.9311 331.31C90.0897 331.301 90.2811 331.31 90.5051 331.338C90.7291 331.357 90.9064 331.38 91.0371 331.408C91.1864 331.436 91.3171 331.487 91.4291 331.562C91.5504 331.627 91.6017 331.739 91.5831 331.898C91.5644 332.057 91.4757 332.169 91.3171 332.234C91.1584 332.29 90.9624 332.309 90.7291 332.29C90.6077 332.281 90.4584 332.271 90.2811 332.262C90.1037 332.253 89.9171 332.248 89.7211 332.248C89.5344 332.239 89.3431 332.234 89.1471 332.234C88.9604 332.225 88.7971 332.22 88.6571 332.22C88.3584 332.22 88.0131 332.22 87.6211 332.22C87.2384 332.22 86.8324 332.225 86.4031 332.234C85.9831 332.234 85.5584 332.239 85.1291 332.248C84.6997 332.257 84.2937 332.267 83.9111 332.276C83.5284 332.285 83.1877 332.299 82.8891 332.318C82.5904 332.327 82.3571 332.341 82.1891 332.36C81.9557 332.379 81.7317 332.425 81.5171 332.5C81.3024 332.565 81.1484 332.621 81.0551 332.668C80.9524 332.64 80.8357 332.598 80.7051 332.542C80.5744 332.486 80.4437 332.425 80.3131 332.36C80.1824 332.295 80.0611 332.229 79.9491 332.164C79.8371 332.089 79.7577 332.024 79.7111 331.968C79.5991 331.847 79.5757 331.749 79.6411 331.674C79.7157 331.599 79.8044 331.571 79.9071 331.59C79.9631 331.599 80.0471 331.613 80.1591 331.632C80.2711 331.641 80.3877 331.651 80.5091 331.66C80.6397 331.669 80.7611 331.679 80.8731 331.688C80.9944 331.697 81.0831 331.702 81.1391 331.702C82.5017 331.721 83.8084 331.725 85.0591 331.716C86.3097 331.707 87.5744 331.665 88.8531 331.59ZM83.4631 328.16C83.4631 328.421 83.5144 328.659 83.6171 328.874C83.7291 329.079 83.8784 329.257 84.0651 329.406C84.2517 329.546 84.4711 329.653 84.7231 329.728C84.9844 329.803 85.2691 329.84 85.5771 329.84C85.8851 329.84 86.1651 329.803 86.4171 329.728C86.6784 329.653 86.9024 329.546 87.0891 329.406C87.2851 329.257 87.4344 329.079 87.5371 328.874C87.6491 328.659 87.7051 328.421 87.7051 328.16C87.7051 327.899 87.6491 327.665 87.5371 327.46C87.4344 327.245 87.2851 327.063 87.0891 326.914C86.9024 326.765 86.6784 326.653 86.4171 326.578C86.1651 326.503 85.8851 326.466 85.5771 326.466C85.2691 326.466 84.9844 326.503 84.7231 326.578C84.4711 326.653 84.2517 326.765 84.0651 326.914C83.8784 327.063 83.7291 327.245 83.6171 327.46C83.5144 327.665 83.4631 327.899 83.4631 328.16ZM82.4831 328.146C82.4831 327.801 82.5577 327.488 82.7071 327.208C82.8564 326.928 83.0664 326.685 83.3371 326.48C83.6171 326.275 83.9437 326.116 84.3171 326.004C84.6904 325.892 85.1011 325.836 85.5491 325.836C85.9971 325.836 86.4077 325.892 86.7811 326.004C87.1637 326.116 87.4904 326.275 87.7611 326.48C88.0411 326.685 88.2557 326.928 88.4051 327.208C88.5637 327.488 88.6431 327.801 88.6431 328.146C88.6431 328.482 88.5637 328.795 88.4051 329.084C88.2557 329.364 88.0411 329.607 87.7611 329.812C87.4904 330.008 87.1637 330.162 86.7811 330.274C86.4077 330.386 85.9971 330.442 85.5491 330.442C85.1011 330.442 84.6904 330.386 84.3171 330.274C83.9437 330.162 83.6171 330.008 83.3371 329.812C83.0664 329.607 82.8564 329.364 82.7071 329.084C82.5577 328.795 82.4831 328.482 82.4831 328.146ZM99.072 329.294C99.072 329.695 98.9926 330.064 98.834 330.4C98.6753 330.727 98.4606 331.007 98.19 331.24C97.9193 331.473 97.602 331.655 97.238 331.786C96.8833 331.917 96.5053 331.982 96.104 331.982C95.7026 331.982 95.32 331.917 94.956 331.786C94.6013 331.655 94.2886 331.473 94.018 331.24C93.7473 330.997 93.5326 330.713 93.374 330.386C93.2153 330.059 93.136 329.695 93.136 329.294C93.136 328.893 93.2153 328.529 93.374 328.202C93.5326 327.875 93.7473 327.595 94.018 327.362C94.2886 327.129 94.6013 326.947 94.956 326.816C95.32 326.685 95.7026 326.62 96.104 326.62C96.5053 326.62 96.8833 326.685 97.238 326.816C97.602 326.947 97.9193 327.129 98.19 327.362C98.4606 327.595 98.6753 327.875 98.834 328.202C98.9926 328.529 99.072 328.893 99.072 329.294ZM98.092 329.308C98.092 329.019 98.0406 328.753 97.938 328.51C97.8353 328.267 97.6953 328.062 97.518 327.894C97.3406 327.717 97.1306 327.581 96.888 327.488C96.6453 327.395 96.384 327.348 96.104 327.348C95.824 327.348 95.5626 327.395 95.32 327.488C95.0773 327.581 94.8673 327.717 94.69 327.894C94.5126 328.062 94.3726 328.267 94.27 328.51C94.1673 328.753 94.116 329.019 94.116 329.308C94.116 329.597 94.1673 329.863 94.27 330.106C94.3726 330.339 94.5126 330.545 94.69 330.722C94.8673 330.89 95.0773 331.025 95.32 331.128C95.5626 331.221 95.824 331.268 96.104 331.268C96.384 331.268 96.6453 331.221 96.888 331.128C97.1306 331.025 97.3406 330.89 97.518 330.722C97.6953 330.545 97.8353 330.335 97.938 330.092C98.0406 329.849 98.092 329.588 98.092 329.308ZM101.97 326.312V328.93C102.045 328.921 102.115 328.916 102.18 328.916C102.245 328.916 102.297 328.916 102.334 328.916C102.539 328.897 102.721 328.855 102.88 328.79C103.048 328.725 103.165 328.65 103.23 328.566C103.361 328.566 103.524 328.575 103.72 328.594C103.925 328.603 104.107 328.617 104.266 328.636C104.537 328.683 104.672 328.818 104.672 329.042C104.672 329.285 104.509 329.406 104.182 329.406C103.846 329.415 103.477 329.425 103.076 329.434C102.684 329.434 102.315 329.439 101.97 329.448V330.582C101.97 330.731 101.965 330.932 101.956 331.184C101.956 331.436 101.937 331.683 101.9 331.926C101.863 332.169 101.802 332.379 101.718 332.556C101.643 332.733 101.531 332.822 101.382 332.822C101.167 332.822 101.06 332.425 101.06 331.632V326.578C101.06 326.41 100.971 326.256 100.794 326.116C100.626 325.976 100.369 325.841 100.024 325.71C99.9493 325.673 99.884 325.64 99.828 325.612C99.7813 325.575 99.758 325.533 99.758 325.486C99.758 325.439 99.7906 325.388 99.856 325.332C99.9306 325.276 100.038 325.248 100.178 325.248C100.243 325.248 100.365 325.257 100.542 325.276C100.719 325.295 100.906 325.323 101.102 325.36C101.307 325.388 101.499 325.421 101.676 325.458C101.853 325.495 101.97 325.528 102.026 325.556L101.97 326.312ZM100.136 333.536C100.304 333.527 100.467 333.503 100.626 333.466C100.794 333.419 100.901 333.377 100.948 333.34C101.079 333.331 101.223 333.331 101.382 333.34C101.541 333.349 101.671 333.363 101.774 333.382C101.942 333.41 102.026 333.466 102.026 333.55C102.035 333.625 102.035 333.699 102.026 333.774C102.007 333.933 101.979 334.087 101.942 334.236C101.914 334.385 101.895 334.535 101.886 334.684C101.867 334.992 101.858 335.3 101.858 335.608C101.858 335.907 101.849 336.21 101.83 336.518C101.83 336.621 101.816 336.77 101.788 336.966C101.769 337.162 101.737 337.353 101.69 337.54C101.653 337.736 101.597 337.904 101.522 338.044C101.447 338.193 101.354 338.268 101.242 338.268C101.121 338.268 101.032 338.137 100.976 337.876C100.929 337.624 100.906 337.19 100.906 336.574V334.04C100.747 334.04 100.523 334.045 100.234 334.054C99.954 334.054 99.6553 334.063 99.338 334.082C99.0206 334.091 98.7126 334.105 98.414 334.124C98.1153 334.133 97.8773 334.147 97.7 334.166C97.3173 334.203 96.9626 334.32 96.636 334.516C96.5053 334.488 96.37 334.446 96.23 334.39C96.09 334.334 95.9546 334.273 95.824 334.208C95.7026 334.143 95.5906 334.082 95.488 334.026C95.3853 333.961 95.3153 333.909 95.278 333.872C95.2126 333.816 95.18 333.755 95.18 333.69C95.18 333.559 95.2966 333.517 95.53 333.564C95.754 333.601 95.9733 333.625 96.188 333.634C96.4026 333.634 96.6126 333.634 96.818 333.634C96.9953 333.634 97.224 333.634 97.504 333.634C97.784 333.625 98.0826 333.615 98.4 333.606C98.7173 333.597 99.03 333.587 99.338 333.578C99.646 333.569 99.912 333.555 100.136 333.536ZM112.739 329.154C112.739 329.378 112.664 329.569 112.515 329.728C112.365 329.877 112.188 329.952 111.983 329.952C111.777 329.952 111.6 329.877 111.451 329.728C111.301 329.569 111.227 329.378 111.227 329.154C111.227 328.921 111.301 328.725 111.451 328.566C111.6 328.407 111.777 328.328 111.983 328.328C112.188 328.328 112.365 328.407 112.515 328.566C112.664 328.725 112.739 328.921 112.739 329.154ZM112.739 334.404C112.739 334.637 112.664 334.833 112.515 334.992C112.365 335.151 112.188 335.23 111.983 335.23C111.777 335.23 111.6 335.151 111.451 334.992C111.301 334.833 111.227 334.637 111.227 334.404C111.227 334.18 111.301 333.989 111.451 333.83C111.6 333.671 111.777 333.592 111.983 333.592C112.188 333.592 112.365 333.671 112.515 333.83C112.664 333.989 112.739 334.18 112.739 334.404ZM121.324 328.804C121.324 329.084 121.375 329.336 121.478 329.56C121.581 329.775 121.721 329.961 121.898 330.12C122.085 330.269 122.299 330.386 122.542 330.47C122.785 330.554 123.051 330.596 123.34 330.596C123.629 330.596 123.895 330.554 124.138 330.47C124.39 330.386 124.605 330.269 124.782 330.12C124.969 329.961 125.113 329.775 125.216 329.56C125.319 329.336 125.37 329.084 125.37 328.804C125.37 328.524 125.319 328.272 125.216 328.048C125.113 327.824 124.969 327.633 124.782 327.474C124.605 327.315 124.39 327.194 124.138 327.11C123.895 327.026 123.629 326.984 123.34 326.984C123.051 326.984 122.785 327.026 122.542 327.11C122.299 327.194 122.085 327.315 121.898 327.474C121.721 327.633 121.581 327.824 121.478 328.048C121.375 328.272 121.324 328.524 121.324 328.804ZM120.316 328.804C120.316 328.468 120.386 328.151 120.526 327.852C120.666 327.544 120.867 327.278 121.128 327.054C121.389 326.83 121.707 326.653 122.08 326.522C122.453 326.391 122.869 326.326 123.326 326.326C123.774 326.326 124.185 326.391 124.558 326.522C124.931 326.653 125.249 326.83 125.51 327.054C125.771 327.278 125.972 327.544 126.112 327.852C126.261 328.151 126.336 328.468 126.336 328.804C126.336 329.14 126.261 329.462 126.112 329.77C125.972 330.078 125.771 330.349 125.51 330.582C125.249 330.815 124.931 331.002 124.558 331.142C124.185 331.282 123.774 331.352 123.326 331.352C122.869 331.352 122.453 331.282 122.08 331.142C121.707 331.002 121.389 330.815 121.128 330.582C120.867 330.349 120.666 330.078 120.526 329.77C120.386 329.462 120.316 329.14 120.316 328.804ZM129.878 326.312V329.672C129.878 329.821 129.873 330.022 129.864 330.274C129.864 330.526 129.845 330.773 129.808 331.016C129.771 331.259 129.71 331.469 129.626 331.646C129.551 331.823 129.439 331.912 129.29 331.912C129.075 331.912 128.968 331.515 128.968 330.722V326.578C128.968 326.41 128.879 326.256 128.702 326.116C128.534 325.976 128.277 325.841 127.932 325.71C127.857 325.673 127.792 325.64 127.736 325.612C127.689 325.575 127.666 325.533 127.666 325.486C127.666 325.439 127.699 325.388 127.764 325.332C127.839 325.276 127.946 325.248 128.086 325.248C128.151 325.248 128.273 325.257 128.45 325.276C128.627 325.295 128.814 325.323 129.01 325.36C129.215 325.388 129.407 325.421 129.584 325.458C129.761 325.495 129.878 325.528 129.934 325.556L129.878 326.312ZM129.542 334.586C129.719 334.623 129.841 334.67 129.906 334.726C129.971 334.782 130.004 334.852 130.004 334.936C130.004 335.151 129.836 335.263 129.5 335.272L125.062 335.37V336.812C125.062 337.045 125.183 337.162 125.426 337.162L128.226 337.148C128.487 337.148 128.707 337.111 128.884 337.036C129.071 336.961 129.206 336.887 129.29 336.812C129.533 336.812 129.761 336.821 129.976 336.84C130.191 336.868 130.377 336.901 130.536 336.938C130.779 337.013 130.9 337.143 130.9 337.33C130.9 337.563 130.732 337.68 130.396 337.68L125.216 337.694C124.488 337.694 124.124 337.335 124.124 336.616V335.552C123.993 335.337 123.737 335.183 123.354 335.09C123.177 335.053 123.088 334.987 123.088 334.894C123.088 334.829 123.121 334.773 123.186 334.726C123.261 334.679 123.373 334.656 123.522 334.656C123.858 334.656 124.129 334.665 124.334 334.684C124.549 334.703 124.773 334.763 125.006 334.866C125.603 334.847 126.21 334.833 126.826 334.824C127.451 334.805 128.058 334.787 128.646 334.768C128.702 334.768 128.753 334.74 128.8 334.684V333.004C128.623 333.004 128.399 333.009 128.128 333.018C127.867 333.018 127.591 333.023 127.302 333.032C127.022 333.041 126.747 333.055 126.476 333.074C126.205 333.083 125.981 333.097 125.804 333.116C125.589 333.135 125.393 333.177 125.216 333.242C125.039 333.298 124.866 333.373 124.698 333.466C124.567 333.438 124.432 333.396 124.292 333.34C124.152 333.275 124.017 333.209 123.886 333.144C123.765 333.079 123.653 333.018 123.55 332.962C123.457 332.897 123.387 332.845 123.34 332.808C123.284 332.752 123.256 332.691 123.256 332.626C123.256 332.495 123.377 332.453 123.62 332.5C123.863 332.537 124.096 332.561 124.32 332.57C124.544 332.57 124.763 332.57 124.978 332.57C125.165 332.57 125.379 332.57 125.622 332.57C125.865 332.57 126.121 332.57 126.392 332.57C126.672 332.561 126.952 332.556 127.232 332.556C127.512 332.547 127.783 332.533 128.044 332.514C128.212 332.505 128.375 332.477 128.534 332.43C128.702 332.383 128.809 332.341 128.856 332.304C128.987 332.295 129.127 332.295 129.276 332.304C129.425 332.313 129.551 332.327 129.654 332.346C129.822 332.374 129.911 332.425 129.92 332.5C129.929 332.575 129.925 332.649 129.906 332.724C129.887 332.855 129.859 332.971 129.822 333.074C129.794 333.177 129.761 333.307 129.724 333.466L129.542 334.586ZM142.673 326.312V334.46C142.673 334.581 142.673 334.745 142.673 334.95C142.673 335.155 142.668 335.379 142.659 335.622C142.65 335.865 142.631 336.107 142.603 336.35C142.575 336.602 142.538 336.826 142.491 337.022C142.454 337.227 142.398 337.391 142.323 337.512C142.258 337.643 142.174 337.708 142.071 337.708C141.866 337.708 141.763 337.129 141.763 335.972V326.578C141.763 326.41 141.674 326.256 141.497 326.116C141.329 325.976 141.072 325.841 140.727 325.71C140.652 325.673 140.587 325.64 140.531 325.612C140.484 325.575 140.461 325.533 140.461 325.486C140.461 325.439 140.494 325.388 140.559 325.332C140.634 325.276 140.741 325.248 140.881 325.248C140.946 325.248 141.068 325.257 141.245 325.276C141.422 325.295 141.609 325.323 141.805 325.36C142.01 325.388 142.202 325.421 142.379 325.458C142.556 325.495 142.673 325.528 142.729 325.556L142.673 326.312ZM138.011 327.53C138.16 327.521 138.291 327.493 138.403 327.446C138.515 327.399 138.594 327.362 138.641 327.334C138.725 327.334 138.828 327.339 138.949 327.348C139.08 327.357 139.21 327.371 139.341 327.39C139.453 327.409 139.528 327.446 139.565 327.502C139.612 327.549 139.635 327.609 139.635 327.684C139.635 327.749 139.56 327.875 139.411 328.062C139.43 328.043 139.416 328.071 139.369 328.146C139.322 328.221 139.294 328.267 139.285 328.286C138.641 329.695 137.862 330.927 136.947 331.982C136.042 333.027 134.95 333.961 133.671 334.782C133.606 334.819 133.54 334.833 133.475 334.824C133.419 334.805 133.372 334.777 133.335 334.74C133.298 334.693 133.279 334.642 133.279 334.586C133.279 334.53 133.312 334.474 133.377 334.418C133.918 334.017 134.432 333.569 134.917 333.074C135.402 332.579 135.85 332.061 136.261 331.52C136.672 330.969 137.036 330.4 137.353 329.812C137.68 329.224 137.95 328.636 138.165 328.048C138.006 328.048 137.82 328.053 137.605 328.062C137.39 328.062 137.166 328.067 136.933 328.076C136.709 328.085 136.485 328.099 136.261 328.118C136.046 328.127 135.86 328.141 135.701 328.16C135.514 328.179 135.337 328.211 135.169 328.258C135.01 328.305 134.856 328.375 134.707 328.468C134.595 328.44 134.474 328.403 134.343 328.356C134.212 328.3 134.086 328.244 133.965 328.188C133.844 328.132 133.736 328.076 133.643 328.02C133.55 327.964 133.484 327.917 133.447 327.88C133.391 327.824 133.363 327.763 133.363 327.698C133.363 327.567 133.47 327.525 133.685 327.572C133.9 327.609 134.105 327.633 134.301 327.642C134.497 327.642 134.688 327.642 134.875 327.642C135.043 327.642 135.258 327.642 135.519 327.642C135.78 327.633 136.056 327.623 136.345 327.614C136.644 327.595 136.938 327.581 137.227 327.572C137.526 327.563 137.787 327.549 138.011 327.53ZM145.584 330.778C145.584 330.395 145.649 330.036 145.78 329.7C145.92 329.364 146.116 329.07 146.368 328.818C146.62 328.566 146.918 328.37 147.264 328.23C147.618 328.081 148.01 328.006 148.44 328.006C148.813 328.006 149.158 328.062 149.476 328.174C149.793 328.286 150.073 328.445 150.316 328.65C150.558 328.855 150.759 329.098 150.918 329.378C151.076 329.649 151.184 329.943 151.24 330.26C151.473 330.269 151.716 330.274 151.968 330.274C152.229 330.265 152.495 330.255 152.766 330.246V327.474C152.766 327.343 152.733 327.231 152.668 327.138C152.612 327.035 152.532 326.951 152.43 326.886C152.336 326.811 152.224 326.751 152.094 326.704C151.972 326.648 151.846 326.597 151.716 326.55C151.548 326.485 151.464 326.41 151.464 326.326C151.464 326.27 151.496 326.214 151.562 326.158C151.627 326.102 151.725 326.074 151.856 326.074C151.921 326.074 152.042 326.088 152.22 326.116C152.397 326.135 152.588 326.158 152.794 326.186C152.999 326.214 153.19 326.247 153.368 326.284C153.545 326.321 153.662 326.354 153.718 326.382L153.662 327.124V333.62C153.662 333.741 153.662 333.905 153.662 334.11C153.662 334.315 153.657 334.539 153.648 334.782C153.638 335.025 153.62 335.272 153.592 335.524C153.573 335.767 153.54 335.986 153.494 336.182C153.447 336.387 153.391 336.551 153.326 336.672C153.26 336.803 153.176 336.868 153.074 336.868C152.868 336.868 152.766 336.289 152.766 335.132V330.792C152.691 330.801 152.621 330.811 152.556 330.82C152.5 330.829 152.448 330.839 152.402 330.848C152.299 330.876 152.21 330.904 152.136 330.932C152.061 330.951 151.972 330.997 151.87 331.072C151.776 331.053 151.683 331.03 151.59 331.002C151.496 330.974 151.398 330.941 151.296 330.904C151.277 331.277 151.193 331.623 151.044 331.94C150.904 332.257 150.708 332.533 150.456 332.766C150.204 332.999 149.905 333.186 149.56 333.326C149.224 333.457 148.85 333.522 148.44 333.522C148.01 333.522 147.618 333.452 147.264 333.312C146.918 333.172 146.62 332.981 146.368 332.738C146.116 332.486 145.92 332.192 145.78 331.856C145.649 331.52 145.584 331.161 145.584 330.778ZM146.606 330.722C146.606 331.039 146.652 331.324 146.746 331.576C146.839 331.828 146.97 332.047 147.138 332.234C147.306 332.411 147.502 332.551 147.726 332.654C147.95 332.747 148.192 332.794 148.454 332.794C148.715 332.794 148.958 332.747 149.182 332.654C149.415 332.551 149.616 332.411 149.784 332.234C149.952 332.047 150.082 331.828 150.176 331.576C150.269 331.324 150.316 331.039 150.316 330.722C150.316 330.414 150.269 330.134 150.176 329.882C150.082 329.621 149.952 329.401 149.784 329.224C149.616 329.037 149.415 328.897 149.182 328.804C148.958 328.701 148.715 328.65 148.454 328.65C148.192 328.65 147.95 328.701 147.726 328.804C147.502 328.897 147.306 329.037 147.138 329.224C146.97 329.401 146.839 329.621 146.746 329.882C146.652 330.134 146.606 330.414 146.606 330.722ZM156.014 326.312V334.46C156.014 334.581 156.014 334.745 156.014 334.95C156.014 335.155 156.009 335.379 156 335.622C155.99 335.865 155.972 336.107 155.944 336.35C155.916 336.602 155.878 336.826 155.832 337.022C155.794 337.227 155.738 337.391 155.664 337.512C155.598 337.643 155.514 337.708 155.412 337.708C155.206 337.708 155.104 337.129 155.104 335.972V326.578C155.104 326.41 155.015 326.256 154.838 326.116C154.67 325.976 154.413 325.841 154.068 325.71C153.993 325.673 153.928 325.64 153.872 325.612C153.825 325.575 153.802 325.533 153.802 325.486C153.802 325.439 153.834 325.388 153.9 325.332C153.974 325.276 154.082 325.248 154.222 325.248C154.287 325.248 154.408 325.257 154.586 325.276C154.763 325.295 154.95 325.323 155.146 325.36C155.351 325.388 155.542 325.421 155.72 325.458C155.897 325.495 156.014 325.528 156.07 325.556L156.014 326.312ZM164.991 337.722C164.916 337.75 164.841 337.755 164.767 337.736C164.701 337.727 164.65 337.703 164.613 337.666C164.575 337.638 164.561 337.596 164.571 337.54C164.58 337.484 164.631 337.428 164.725 337.372C165.21 337.083 165.658 336.775 166.069 336.448C166.489 336.121 166.862 335.795 167.189 335.468C167.525 335.141 167.814 334.824 168.057 334.516C168.299 334.208 168.486 333.928 168.617 333.676C168.663 333.601 168.687 333.536 168.687 333.48C168.696 333.405 168.626 333.312 168.477 333.2C168.327 333.079 168.117 332.957 167.847 332.836C167.772 332.799 167.716 332.752 167.679 332.696C167.641 332.631 167.632 332.575 167.651 332.528C167.669 332.481 167.711 332.439 167.777 332.402C167.851 332.355 167.954 332.341 168.085 332.36C168.206 332.379 168.365 332.421 168.561 332.486C168.757 332.551 168.953 332.626 169.149 332.71C169.354 332.785 169.541 332.869 169.709 332.962C169.886 333.046 170.012 333.125 170.087 333.2C170.059 333.349 169.998 333.494 169.905 333.634C169.821 333.765 169.732 333.895 169.639 334.026C169.555 334.147 169.461 334.273 169.359 334.404C169.461 334.479 169.583 334.567 169.723 334.67C169.872 334.773 170.017 334.88 170.157 334.992C170.306 335.095 170.441 335.193 170.563 335.286C170.693 335.37 170.791 335.431 170.857 335.468C170.931 335.515 171.025 335.552 171.137 335.58C171.249 335.599 171.342 335.617 171.417 335.636C171.529 335.655 171.622 335.683 171.697 335.72C171.771 335.757 171.841 335.799 171.907 335.846C172.084 335.977 172.266 336.14 172.453 336.336C172.649 336.541 172.803 336.714 172.915 336.854C172.961 336.919 173.008 336.985 173.055 337.05C173.101 337.125 173.134 337.199 173.153 337.274C173.181 337.349 173.162 337.428 173.097 337.512C173.041 337.596 172.952 337.638 172.831 337.638C172.775 337.638 172.695 337.615 172.593 337.568C172.499 337.521 172.359 337.433 172.173 337.302L169.009 334.838C168.729 335.146 168.425 335.445 168.099 335.734C167.772 336.023 167.436 336.289 167.091 336.532C166.745 336.784 166.391 337.008 166.027 337.204C165.672 337.409 165.327 337.582 164.991 337.722ZM168.981 327.712C168.654 328.375 168.253 328.991 167.777 329.56C167.31 330.129 166.811 330.652 166.279 331.128C165.747 331.595 165.205 332.01 164.655 332.374C164.104 332.738 163.586 333.046 163.101 333.298C162.979 333.363 162.881 333.391 162.807 333.382C162.732 333.373 162.681 333.345 162.653 333.298C162.634 333.251 162.639 333.195 162.667 333.13C162.704 333.065 162.769 333.004 162.863 332.948C163.339 332.659 163.824 332.323 164.319 331.94C164.823 331.557 165.299 331.133 165.747 330.666C166.195 330.19 166.605 329.686 166.979 329.154C167.352 328.613 167.655 328.043 167.889 327.446C167.73 327.446 167.548 327.451 167.343 327.46C167.147 327.46 166.941 327.465 166.727 327.474C166.521 327.483 166.316 327.497 166.111 327.516C165.905 327.525 165.723 327.539 165.565 327.558C165.378 327.577 165.201 327.609 165.033 327.656C164.874 327.703 164.72 327.773 164.571 327.866C164.459 327.838 164.337 327.801 164.207 327.754C164.076 327.698 163.95 327.642 163.829 327.586C163.707 327.53 163.6 327.474 163.507 327.418C163.413 327.353 163.348 327.301 163.311 327.264C163.255 327.208 163.227 327.147 163.227 327.082C163.227 326.951 163.334 326.909 163.549 326.956C163.763 326.993 163.969 327.017 164.165 327.026C164.361 327.026 164.552 327.026 164.739 327.026C164.907 327.026 165.107 327.026 165.341 327.026C165.583 327.017 165.835 327.007 166.097 326.998C166.367 326.979 166.638 326.965 166.909 326.956C167.179 326.947 167.427 326.933 167.651 326.914C167.8 326.905 167.931 326.877 168.043 326.83C168.155 326.783 168.234 326.746 168.281 326.718C168.374 326.718 168.486 326.723 168.617 326.732C168.757 326.741 168.892 326.755 169.023 326.774C169.135 326.793 169.209 326.825 169.247 326.872C169.293 326.919 169.317 326.979 169.317 327.054C169.317 327.129 169.261 327.25 169.149 327.418C169.13 327.446 169.102 327.497 169.065 327.572C169.027 327.637 168.999 327.684 168.981 327.712ZM172.439 326.312V331.59C172.439 331.739 172.434 331.94 172.425 332.192C172.425 332.444 172.406 332.691 172.369 332.934C172.331 333.177 172.271 333.387 172.187 333.564C172.112 333.741 172 333.83 171.851 333.83C171.636 333.83 171.529 333.433 171.529 332.64V326.578C171.529 326.41 171.44 326.256 171.263 326.116C171.095 325.976 170.838 325.841 170.493 325.71C170.418 325.673 170.353 325.64 170.297 325.612C170.25 325.575 170.227 325.533 170.227 325.486C170.227 325.439 170.259 325.388 170.325 325.332C170.399 325.276 170.507 325.248 170.647 325.248C170.712 325.248 170.833 325.257 171.011 325.276C171.188 325.295 171.375 325.323 171.571 325.36C171.776 325.388 171.967 325.421 172.145 325.458C172.322 325.495 172.439 325.528 172.495 325.556L172.439 326.312ZM176.903 332.066C176.782 332.057 176.647 332.033 176.497 331.996C176.357 331.949 176.213 331.898 176.063 331.842C175.923 331.786 175.783 331.725 175.643 331.66C175.513 331.585 175.401 331.511 175.307 331.436C175.242 331.389 175.191 331.338 175.153 331.282C175.125 331.226 175.111 331.175 175.111 331.128C175.111 330.988 175.256 330.941 175.545 330.988C175.816 331.035 176.096 331.072 176.385 331.1C176.684 331.119 176.997 331.128 177.323 331.128C178.49 331.128 179.633 331.114 180.753 331.086C181.883 331.058 182.905 331.021 183.819 330.974C184.165 330.955 184.44 330.927 184.645 330.89C184.86 330.843 185.047 330.769 185.205 330.666C185.392 330.675 185.597 330.694 185.821 330.722C186.055 330.75 186.274 330.787 186.479 330.834C186.825 330.899 186.997 331.035 186.997 331.24C186.997 331.501 186.825 331.632 186.479 331.632C186.395 331.632 186.232 331.627 185.989 331.618C185.756 331.599 185.527 331.581 185.303 331.562C185.163 331.553 184.958 331.548 184.687 331.548C184.417 331.548 184.085 331.548 183.693 331.548C183.255 331.557 182.793 331.567 182.307 331.576C181.822 331.585 181.332 331.599 180.837 331.618C180.352 331.637 179.867 331.655 179.381 331.674C178.896 331.693 178.429 331.711 177.981 331.73C177.795 331.749 177.608 331.786 177.421 331.842C177.235 331.889 177.062 331.963 176.903 332.066ZM184.099 334.922C184.277 334.959 184.398 335.011 184.463 335.076C184.538 335.132 184.575 335.197 184.575 335.272C184.575 335.477 184.403 335.589 184.057 335.608L179.003 335.706V336.952C179.003 337.185 179.125 337.302 179.367 337.302L182.587 337.288C182.849 337.288 183.068 337.251 183.245 337.176C183.432 337.101 183.567 337.027 183.651 336.952C183.894 336.952 184.123 336.961 184.337 336.98C184.552 337.008 184.739 337.041 184.897 337.078C185.14 337.153 185.261 337.283 185.261 337.47C185.261 337.703 185.093 337.82 184.757 337.82L179.157 337.834C178.793 337.834 178.518 337.755 178.331 337.596C178.154 337.437 178.065 337.181 178.065 336.826V335.888C177.935 335.673 177.678 335.519 177.295 335.426C177.118 335.389 177.029 335.323 177.029 335.23C177.029 335.165 177.062 335.109 177.127 335.062C177.202 335.015 177.314 334.992 177.463 334.992C177.715 334.992 177.939 335.001 178.135 335.02C178.341 335.029 178.518 335.053 178.667 335.09C178.705 335.099 178.747 335.118 178.793 335.146C178.849 335.165 178.901 335.183 178.947 335.202C179.246 335.193 179.577 335.183 179.941 335.174C180.315 335.165 180.693 335.16 181.075 335.16C181.467 335.151 181.845 335.141 182.209 335.132C182.573 335.123 182.905 335.113 183.203 335.104C183.259 335.104 183.311 335.076 183.357 335.02V333.452C183.18 333.452 182.928 333.457 182.601 333.466C182.275 333.466 181.929 333.471 181.565 333.48C181.201 333.489 180.851 333.503 180.515 333.522C180.179 333.531 179.923 333.545 179.745 333.564C179.531 333.583 179.335 333.625 179.157 333.69C178.98 333.746 178.807 333.821 178.639 333.914C178.509 333.886 178.373 333.844 178.233 333.788C178.093 333.723 177.958 333.657 177.827 333.592C177.706 333.527 177.594 333.466 177.491 333.41C177.398 333.345 177.328 333.293 177.281 333.256C177.225 333.2 177.197 333.139 177.197 333.074C177.197 332.943 177.319 332.901 177.561 332.948C177.804 332.985 178.037 333.009 178.261 333.018C178.485 333.018 178.705 333.018 178.919 333.018C179.106 333.018 179.358 333.018 179.675 333.018C179.993 333.018 180.329 333.013 180.683 333.004C181.047 332.995 181.407 332.99 181.761 332.99C182.116 332.981 182.424 332.967 182.685 332.948C182.853 332.939 182.998 332.911 183.119 332.864C183.25 332.817 183.339 332.78 183.385 332.752C183.507 332.752 183.647 332.761 183.805 332.78C183.973 332.789 184.109 332.803 184.211 332.822C184.37 332.859 184.454 332.915 184.463 332.99C184.473 333.065 184.468 333.139 184.449 333.214C184.431 333.345 184.398 333.466 184.351 333.578C184.314 333.69 184.281 333.825 184.253 333.984L184.099 334.922ZM178.639 328.93C178.639 329.219 178.761 329.355 179.003 329.336L182.279 329.252C182.494 329.233 182.69 329.191 182.867 329.126C183.045 329.061 183.157 328.995 183.203 328.93C183.39 328.93 183.591 328.939 183.805 328.958C184.029 328.967 184.235 328.991 184.421 329.028C184.701 329.075 184.841 329.201 184.841 329.406C184.841 329.649 184.673 329.77 184.337 329.77L178.751 329.854C178.042 329.873 177.687 329.476 177.687 328.664V327.194C177.687 326.97 177.333 326.769 176.623 326.592C176.437 326.545 176.343 326.475 176.343 326.382C176.343 326.307 176.376 326.237 176.441 326.172C176.507 326.107 176.605 326.069 176.735 326.06C176.903 326.051 177.081 326.051 177.267 326.06C177.454 326.069 177.631 326.083 177.799 326.102C177.967 326.121 178.121 326.144 178.261 326.172C178.401 326.2 178.509 326.228 178.583 326.256C179.181 326.237 179.736 326.223 180.249 326.214C180.772 326.205 181.327 326.191 181.915 326.172C182.111 326.172 182.289 326.144 182.447 326.088C182.606 326.032 182.737 325.953 182.839 325.85C183.026 325.85 183.222 325.859 183.427 325.878C183.633 325.887 183.829 325.911 184.015 325.948C184.295 325.995 184.435 326.125 184.435 326.34C184.435 326.583 184.267 326.704 183.931 326.704C183.007 326.713 182.125 326.727 181.285 326.746C180.445 326.755 179.563 326.765 178.639 326.774V328.93ZM189.236 328.622C189.236 328.398 188.882 328.197 188.172 328.02C187.986 327.973 187.892 327.903 187.892 327.81C187.892 327.735 187.925 327.665 187.99 327.6C188.056 327.535 188.154 327.497 188.284 327.488C188.452 327.479 188.63 327.479 188.816 327.488C189.003 327.497 189.18 327.511 189.348 327.53C189.516 327.549 189.67 327.572 189.81 327.6C189.95 327.628 190.058 327.656 190.132 327.684C190.291 327.675 190.464 327.67 190.65 327.67C190.846 327.661 191.042 327.651 191.238 327.642C191.444 327.633 191.64 327.628 191.826 327.628C192.013 327.619 192.186 327.609 192.344 327.6C192.54 327.591 192.718 327.563 192.876 327.516C193.035 327.46 193.166 327.381 193.268 327.278C193.455 327.278 193.651 327.287 193.856 327.306C194.062 327.315 194.258 327.339 194.444 327.376C194.724 327.423 194.864 327.553 194.864 327.768C194.864 328.011 194.696 328.132 194.36 328.132C193.716 328.141 193.021 328.151 192.274 328.16C191.528 328.169 190.832 328.183 190.188 328.202V333.032C190.188 333.144 190.226 333.228 190.3 333.284C190.384 333.34 190.566 333.359 190.846 333.34C191.192 333.331 191.593 333.298 192.05 333.242C192.517 333.186 193.002 333.121 193.506 333.046C194.01 332.962 194.524 332.869 195.046 332.766C195.569 332.654 196.068 332.542 196.544 332.43V326.578C196.544 326.41 196.456 326.256 196.278 326.116C196.11 325.976 195.854 325.841 195.508 325.71C195.434 325.673 195.368 325.64 195.312 325.612C195.266 325.575 195.242 325.533 195.242 325.486C195.242 325.439 195.275 325.388 195.34 325.332C195.415 325.276 195.522 325.248 195.662 325.248C195.728 325.248 195.849 325.257 196.026 325.276C196.204 325.295 196.39 325.323 196.586 325.36C196.792 325.388 196.983 325.421 197.16 325.458C197.338 325.495 197.454 325.528 197.51 325.556L197.454 326.312V330.4C197.529 330.391 197.599 330.386 197.664 330.386C197.73 330.386 197.781 330.386 197.818 330.386C198.024 330.367 198.206 330.325 198.364 330.26C198.532 330.195 198.649 330.12 198.714 330.036C198.845 330.036 199.008 330.045 199.204 330.064C199.41 330.073 199.592 330.087 199.75 330.106C200.021 330.153 200.156 330.288 200.156 330.512C200.156 330.755 199.993 330.876 199.666 330.876C199.33 330.885 198.962 330.895 198.56 330.904C198.168 330.904 197.8 330.909 197.454 330.918V334.46C197.454 334.581 197.454 334.745 197.454 334.95C197.454 335.155 197.45 335.379 197.44 335.622C197.431 335.865 197.412 336.107 197.384 336.35C197.356 336.602 197.319 336.826 197.272 337.022C197.235 337.227 197.179 337.391 197.104 337.512C197.039 337.643 196.955 337.708 196.852 337.708C196.647 337.708 196.544 337.129 196.544 335.972V332.962C196.134 333.083 195.662 333.214 195.13 333.354C194.608 333.494 194.066 333.629 193.506 333.76C192.946 333.881 192.391 333.989 191.84 334.082C191.299 334.175 190.809 334.236 190.37 334.264C189.922 334.292 189.619 334.185 189.46 333.942C189.311 333.699 189.236 333.382 189.236 332.99V328.622ZM200.561 336.546C200.561 336.331 200.631 336.149 200.771 336C200.921 335.86 201.093 335.79 201.289 335.79C201.504 335.79 201.681 335.86 201.821 336C201.971 336.149 202.045 336.331 202.045 336.546C202.045 336.742 201.971 336.91 201.821 337.05C201.681 337.199 201.504 337.274 201.289 337.274C201.093 337.274 200.921 337.199 200.771 337.05C200.631 336.91 200.561 336.742 200.561 336.546Z" fill="#DE5757"/>
</svg>
