<svg width="360" height="844" viewBox="0 0 360 844" fill="none" xmlns="http://www.w3.org/2000/svg">
<rect width="360" height="844" fill="#FEFCF3"/>
<ellipse cx="53.3809" cy="78.491" rx="2.86768" ry="3.0876" fill="#FF9F9F" fill-opacity="0.17"/>
<ellipse cx="41.1286" cy="133.225" rx="1.56419" ry="1.68415" fill="#FF9F9F" fill-opacity="0.17"/>
<ellipse cx="104.217" cy="121.436" rx="3.12838" ry="3.36829" fill="#FF9F9F" fill-opacity="0.17"/>
<ellipse cx="97.439" cy="60.8069" rx="2.60699" ry="2.80691" fill="#FF9F9F" fill-opacity="0.17"/>
<ellipse cx="129.244" cy="89.4371" rx="2.08559" ry="2.24553" fill="#FF9F9F" fill-opacity="0.17"/>
<ellipse cx="66.4157" cy="102.63" rx="4.95327" ry="5.33313" fill="#FF9F9F" fill-opacity="0.17"/>
<ellipse cx="2.86768" cy="3.0876" rx="2.86768" ry="3.0876" transform="matrix(-1 0 0 1 240.303 114.699)" fill="#FF9F9F" fill-opacity="0.17"/>
<ellipse cx="1.56419" cy="1.68415" rx="1.56419" ry="1.68415" transform="matrix(-1 0 0 1 251.251 170.837)" fill="#FF9F9F" fill-opacity="0.17"/>
<ellipse cx="3.12838" cy="3.36829" rx="3.12838" ry="3.36829" transform="matrix(-1 0 0 1 189.727 157.364)" fill="#FF9F9F" fill-opacity="0.17"/>
<ellipse cx="2.60699" cy="2.80691" rx="2.60699" ry="2.80691" transform="matrix(-1 0 0 1 195.983 97.2973)" fill="#FF9F9F" fill-opacity="0.17"/>
<ellipse cx="2.08559" cy="2.24553" rx="2.08559" ry="2.24553" transform="matrix(-1 0 0 1 163.656 126.489)" fill="#FF9F9F" fill-opacity="0.17"/>
<ellipse cx="4.95327" cy="5.33313" rx="4.95327" ry="5.33313" transform="matrix(-1 0 0 1 229.353 136.593)" fill="#FF9F9F" fill-opacity="0.17"/>
<ellipse cx="2.34784" cy="2.52477" rx="2.34784" ry="2.52477" transform="matrix(-0.995172 -0.0981466 -0.0847679 0.996401 114.468 165.23)" fill="#FF9F9F" fill-opacity="0.17"/>
<ellipse cx="1.30436" cy="1.40265" rx="1.30436" ry="1.40265" transform="matrix(-0.995172 -0.0981466 -0.0847679 0.996401 119.396 211.941)" fill="#FF9F9F" fill-opacity="0.17"/>
<ellipse cx="2.34784" cy="2.52477" rx="2.34784" ry="2.52477" transform="matrix(-0.995172 -0.0981466 -0.0847679 0.996401 69.9338 196.353)" fill="#FF9F9F" fill-opacity="0.17"/>
<ellipse cx="2.08697" cy="2.24424" rx="2.08697" ry="2.24424" transform="matrix(-0.995172 -0.0981466 -0.0847679 0.996401 79.3118 147.67)" fill="#FF9F9F" fill-opacity="0.17"/>
<ellipse cx="1.8261" cy="1.68318" rx="1.8261" ry="1.68318" transform="matrix(-0.995172 -0.0981466 -0.0847679 0.996401 51.3052 169.148)" fill="#FF9F9F" fill-opacity="0.17"/>
<ellipse cx="4.17394" cy="4.48849" rx="4.17394" ry="4.48849" transform="matrix(-0.995172 -0.0981466 -0.0847679 0.996401 104.12 182.249)" fill="#FF9F9F" fill-opacity="0.17"/>
<ellipse cx="2.07373" cy="2.21703" rx="2.07373" ry="2.21703" transform="matrix(-0.972169 0.234281 0.20353 0.979069 267.239 202.286)" fill="#FF9F9F" fill-opacity="0.17"/>
<ellipse cx="1.15207" cy="1.23168" rx="1.15207" ry="1.23168" transform="matrix(-0.972169 0.234281 0.20353 0.979069 283.077 240.004)" fill="#FF9F9F" fill-opacity="0.17"/>
<ellipse cx="2.07373" cy="2.21703" rx="2.07373" ry="2.21703" transform="matrix(-0.972169 0.234281 0.20353 0.979069 237.716 241.311)" fill="#FF9F9F" fill-opacity="0.17"/>
<ellipse cx="1.84332" cy="1.97069" rx="1.84332" ry="1.97069" transform="matrix(-0.972169 0.234281 0.20353 0.979069 233.371 197.783)" fill="#FF9F9F" fill-opacity="0.17"/>
<ellipse cx="1.6129" cy="1.47802" rx="1.6129" ry="1.47802" transform="matrix(-0.972169 0.234281 0.20353 0.979069 215.283 223.923)" fill="#FF9F9F" fill-opacity="0.17"/>
<ellipse cx="3.68663" cy="3.94138" rx="3.68663" ry="3.94138" transform="matrix(-0.972169 0.234281 0.20353 0.979069 262.831 219.556)" fill="#FF9F9F" fill-opacity="0.17"/>
<ellipse cx="2.93183" cy="3.13442" rx="2.93183" ry="3.13442" transform="matrix(-0.972169 0.234281 0.20353 0.979069 298.898 266.462)" fill="#FF9F9F" fill-opacity="0.17"/>
<ellipse cx="1.62879" cy="1.74134" rx="1.62879" ry="1.74134" transform="matrix(-0.972169 0.234281 0.20353 0.979069 321.291 319.787)" fill="#FF9F9F" fill-opacity="0.17"/>
<ellipse cx="2.93183" cy="3.13442" rx="2.93183" ry="3.13442" transform="matrix(-0.972169 0.234281 0.20353 0.979069 257.159 321.636)" fill="#FF9F9F" fill-opacity="0.17"/>
<ellipse cx="2.60607" cy="2.78615" rx="2.60607" ry="2.78615" transform="matrix(-0.972169 0.234281 0.20353 0.979069 251.018 260.097)" fill="#FF9F9F" fill-opacity="0.17"/>
<ellipse cx="2.28031" cy="2.08961" rx="2.28031" ry="2.08961" transform="matrix(-0.972169 0.234281 0.20353 0.979069 225.445 297.054)" fill="#FF9F9F" fill-opacity="0.17"/>
<ellipse cx="5.21214" cy="5.5723" rx="5.21214" ry="5.5723" transform="matrix(-0.972169 0.234281 0.20353 0.979069 292.667 290.879)" fill="#FF9F9F" fill-opacity="0.17"/>
<ellipse cx="3.18724" cy="3.0284" rx="3.18724" ry="3.0284" transform="matrix(0.368063 -0.929801 -0.908872 -0.417075 95.6453 321.84)" fill="#FF9F9F" fill-opacity="0.17"/>
<ellipse cx="1.77069" cy="1.68244" rx="1.77069" ry="1.68244" transform="matrix(0.368063 -0.929801 -0.908872 -0.417075 41.0581 310.019)" fill="#FF9F9F" fill-opacity="0.17"/>
<ellipse cx="3.18724" cy="3.0284" rx="3.18724" ry="3.0284" transform="matrix(0.368063 -0.929801 -0.908872 -0.417075 77.9658 251.473)" fill="#FF9F9F" fill-opacity="0.17"/>
<ellipse cx="2.83311" cy="2.69191" rx="2.83311" ry="2.69191" transform="matrix(0.368063 -0.929801 -0.908872 -0.417075 129.185 282.758)" fill="#FF9F9F" fill-opacity="0.17"/>
<ellipse cx="2.47897" cy="2.01893" rx="2.47897" ry="2.01893" transform="matrix(0.368063 -0.929801 -0.908872 -0.417075 115.918 237.761)" fill="#FF9F9F" fill-opacity="0.17"/>
<ellipse cx="5.66621" cy="5.38382" rx="5.66621" ry="5.38382" transform="matrix(0.368063 -0.929801 -0.908872 -0.417075 80.5051 301.662)" fill="#FF9F9F" fill-opacity="0.17"/>
<ellipse cx="2.16421" cy="2.12879" rx="2.16421" ry="2.12879" transform="matrix(-0.594724 -0.80393 -0.759091 0.650984 314.555 112.787)" fill="#FF9F9F" fill-opacity="0.17"/>
<ellipse cx="1.20234" cy="1.18266" rx="1.20234" ry="1.18266" transform="matrix(-0.594724 -0.80393 -0.759091 0.650984 289.971 144.614)" fill="#FF9F9F" fill-opacity="0.17"/>
<ellipse cx="2.16421" cy="2.12879" rx="2.16421" ry="2.12879" transform="matrix(-0.594724 -0.80393 -0.759091 0.650984 269.05 101.259)" fill="#FF9F9F" fill-opacity="0.17"/>
<ellipse cx="1.92374" cy="1.89226" rx="1.92374" ry="1.89226" transform="matrix(-0.594724 -0.80393 -0.759091 0.650984 303.51 78.0243)" fill="#FF9F9F" fill-opacity="0.17"/>
<ellipse cx="1.68327" cy="1.4192" rx="1.68327" ry="1.4192" transform="matrix(-0.594724 -0.80393 -0.759091 0.650984 273.769 71.9337)" fill="#FF9F9F" fill-opacity="0.17"/>
<ellipse cx="3.84748" cy="3.78452" rx="3.84748" ry="3.78452" transform="matrix(-0.594724 -0.80393 -0.759091 0.650984 298.202 116.07)" fill="#FF9F9F" fill-opacity="0.17"/>
<ellipse cx="53.3809" cy="78.491" rx="2.86768" ry="3.0876" fill="#FF9F9F" fill-opacity="0.17"/>
<ellipse cx="41.1286" cy="133.225" rx="1.56419" ry="1.68415" fill="#FF9F9F" fill-opacity="0.17"/>
<ellipse cx="104.217" cy="121.436" rx="3.12838" ry="3.36829" fill="#FF9F9F" fill-opacity="0.17"/>
<ellipse cx="97.439" cy="60.8069" rx="2.60699" ry="2.80691" fill="#FF9F9F" fill-opacity="0.17"/>
<ellipse cx="129.244" cy="89.4371" rx="2.08559" ry="2.24553" fill="#FF9F9F" fill-opacity="0.17"/>
<ellipse cx="66.4157" cy="102.63" rx="4.95327" ry="5.33313" fill="#FF9F9F" fill-opacity="0.17"/>
<ellipse cx="2.86768" cy="3.0876" rx="2.86768" ry="3.0876" transform="matrix(-1 0 0 1 240.303 114.699)" fill="#FF9F9F" fill-opacity="0.17"/>
<ellipse cx="1.56419" cy="1.68415" rx="1.56419" ry="1.68415" transform="matrix(-1 0 0 1 251.251 170.837)" fill="#FF9F9F" fill-opacity="0.17"/>
<ellipse cx="3.12838" cy="3.36829" rx="3.12838" ry="3.36829" transform="matrix(-1 0 0 1 189.727 157.364)" fill="#FF9F9F" fill-opacity="0.17"/>
<ellipse cx="2.60699" cy="2.80691" rx="2.60699" ry="2.80691" transform="matrix(-1 0 0 1 195.983 97.2973)" fill="#FF9F9F" fill-opacity="0.17"/>
<ellipse cx="2.08559" cy="2.24553" rx="2.08559" ry="2.24553" transform="matrix(-1 0 0 1 163.656 126.489)" fill="#FF9F9F" fill-opacity="0.17"/>
<ellipse cx="4.95327" cy="5.33313" rx="4.95327" ry="5.33313" transform="matrix(-1 0 0 1 229.353 136.593)" fill="#FF9F9F" fill-opacity="0.17"/>
<ellipse cx="2.34784" cy="2.52477" rx="2.34784" ry="2.52477" transform="matrix(-0.995172 -0.0981466 -0.0847679 0.996401 114.468 165.23)" fill="#FF9F9F" fill-opacity="0.17"/>
<ellipse cx="1.30436" cy="1.40265" rx="1.30436" ry="1.40265" transform="matrix(-0.995172 -0.0981466 -0.0847679 0.996401 119.396 211.941)" fill="#FF9F9F" fill-opacity="0.17"/>
<ellipse cx="2.34784" cy="2.52477" rx="2.34784" ry="2.52477" transform="matrix(-0.995172 -0.0981466 -0.0847679 0.996401 69.9338 196.353)" fill="#FF9F9F" fill-opacity="0.17"/>
<ellipse cx="2.08697" cy="2.24424" rx="2.08697" ry="2.24424" transform="matrix(-0.995172 -0.0981466 -0.0847679 0.996401 79.3118 147.67)" fill="#FF9F9F" fill-opacity="0.17"/>
<ellipse cx="1.8261" cy="1.68318" rx="1.8261" ry="1.68318" transform="matrix(-0.995172 -0.0981466 -0.0847679 0.996401 51.3052 169.148)" fill="#FF9F9F" fill-opacity="0.17"/>
<ellipse cx="4.17394" cy="4.48849" rx="4.17394" ry="4.48849" transform="matrix(-0.995172 -0.0981466 -0.0847679 0.996401 104.12 182.249)" fill="#FF9F9F" fill-opacity="0.17"/>
<ellipse cx="2.07373" cy="2.21703" rx="2.07373" ry="2.21703" transform="matrix(-0.972169 0.234281 0.20353 0.979069 267.239 202.286)" fill="#FF9F9F" fill-opacity="0.17"/>
<ellipse cx="1.15207" cy="1.23168" rx="1.15207" ry="1.23168" transform="matrix(-0.972169 0.234281 0.20353 0.979069 283.077 240.004)" fill="#FF9F9F" fill-opacity="0.17"/>
<ellipse cx="2.07373" cy="2.21703" rx="2.07373" ry="2.21703" transform="matrix(-0.972169 0.234281 0.20353 0.979069 237.716 241.311)" fill="#FF9F9F" fill-opacity="0.17"/>
<ellipse cx="1.84332" cy="1.97069" rx="1.84332" ry="1.97069" transform="matrix(-0.972169 0.234281 0.20353 0.979069 233.371 197.783)" fill="#FF9F9F" fill-opacity="0.17"/>
<ellipse cx="1.6129" cy="1.47802" rx="1.6129" ry="1.47802" transform="matrix(-0.972169 0.234281 0.20353 0.979069 215.283 223.923)" fill="#FF9F9F" fill-opacity="0.17"/>
<ellipse cx="3.68663" cy="3.94138" rx="3.68663" ry="3.94138" transform="matrix(-0.972169 0.234281 0.20353 0.979069 262.831 219.556)" fill="#FF9F9F" fill-opacity="0.17"/>
<ellipse cx="2.93183" cy="3.13442" rx="2.93183" ry="3.13442" transform="matrix(-0.972169 0.234281 0.20353 0.979069 298.898 266.462)" fill="#FF9F9F" fill-opacity="0.17"/>
<ellipse cx="1.62879" cy="1.74134" rx="1.62879" ry="1.74134" transform="matrix(-0.972169 0.234281 0.20353 0.979069 321.291 319.787)" fill="#FF9F9F" fill-opacity="0.17"/>
<ellipse cx="2.93183" cy="3.13442" rx="2.93183" ry="3.13442" transform="matrix(-0.972169 0.234281 0.20353 0.979069 257.159 321.636)" fill="#FF9F9F" fill-opacity="0.17"/>
<ellipse cx="2.60607" cy="2.78615" rx="2.60607" ry="2.78615" transform="matrix(-0.972169 0.234281 0.20353 0.979069 251.018 260.097)" fill="#FF9F9F" fill-opacity="0.17"/>
<ellipse cx="2.28031" cy="2.08961" rx="2.28031" ry="2.08961" transform="matrix(-0.972169 0.234281 0.20353 0.979069 225.445 297.054)" fill="#FF9F9F" fill-opacity="0.17"/>
<ellipse cx="5.21214" cy="5.5723" rx="5.21214" ry="5.5723" transform="matrix(-0.972169 0.234281 0.20353 0.979069 292.667 290.879)" fill="#FF9F9F" fill-opacity="0.17"/>
<ellipse cx="3.18724" cy="3.0284" rx="3.18724" ry="3.0284" transform="matrix(0.368063 -0.929801 -0.908872 -0.417075 95.6453 321.84)" fill="#FF9F9F" fill-opacity="0.17"/>
<ellipse cx="1.77069" cy="1.68244" rx="1.77069" ry="1.68244" transform="matrix(0.368063 -0.929801 -0.908872 -0.417075 41.0581 310.019)" fill="#FF9F9F" fill-opacity="0.17"/>
<ellipse cx="3.18724" cy="3.0284" rx="3.18724" ry="3.0284" transform="matrix(0.368063 -0.929801 -0.908872 -0.417075 77.9658 251.473)" fill="#FF9F9F" fill-opacity="0.17"/>
<ellipse cx="2.83311" cy="2.69191" rx="2.83311" ry="2.69191" transform="matrix(0.368063 -0.929801 -0.908872 -0.417075 129.185 282.758)" fill="#FF9F9F" fill-opacity="0.17"/>
<ellipse cx="2.47897" cy="2.01893" rx="2.47897" ry="2.01893" transform="matrix(0.368063 -0.929801 -0.908872 -0.417075 115.918 237.761)" fill="#FF9F9F" fill-opacity="0.17"/>
<ellipse cx="5.66621" cy="5.38382" rx="5.66621" ry="5.38382" transform="matrix(0.368063 -0.929801 -0.908872 -0.417075 80.5051 301.662)" fill="#FF9F9F" fill-opacity="0.17"/>
<ellipse cx="2.16421" cy="2.12879" rx="2.16421" ry="2.12879" transform="matrix(-0.594724 -0.80393 -0.759091 0.650984 314.555 112.787)" fill="#FF9F9F" fill-opacity="0.17"/>
<ellipse cx="1.20234" cy="1.18266" rx="1.20234" ry="1.18266" transform="matrix(-0.594724 -0.80393 -0.759091 0.650984 289.971 144.614)" fill="#FF9F9F" fill-opacity="0.17"/>
<ellipse cx="2.16421" cy="2.12879" rx="2.16421" ry="2.12879" transform="matrix(-0.594724 -0.80393 -0.759091 0.650984 269.05 101.259)" fill="#FF9F9F" fill-opacity="0.17"/>
<ellipse cx="1.92374" cy="1.89226" rx="1.92374" ry="1.89226" transform="matrix(-0.594724 -0.80393 -0.759091 0.650984 303.51 78.0243)" fill="#FF9F9F" fill-opacity="0.17"/>
<ellipse cx="1.68327" cy="1.4192" rx="1.68327" ry="1.4192" transform="matrix(-0.594724 -0.80393 -0.759091 0.650984 273.769 71.9337)" fill="#FF9F9F" fill-opacity="0.17"/>
<ellipse cx="3.84748" cy="3.78452" rx="3.84748" ry="3.78452" transform="matrix(-0.594724 -0.80393 -0.759091 0.650984 298.202 116.07)" fill="#FF9F9F" fill-opacity="0.17"/>
<ellipse cx="2.13208" cy="2.16097" rx="2.13208" ry="2.16097" transform="matrix(0.745054 -0.667004 -0.611213 -0.791466 169.124 372.849)" fill="#FF9F9F" fill-opacity="0.17"/>
<ellipse cx="1.18449" cy="1.20054" rx="1.18449" ry="1.20054" transform="matrix(0.745054 -0.667004 -0.611213 -0.791466 139.054 347.056)" fill="#FF9F9F" fill-opacity="0.17"/>
<ellipse cx="2.13208" cy="2.16097" rx="2.13208" ry="2.16097" transform="matrix(0.745054 -0.667004 -0.611213 -0.791466 178.872 323.623)" fill="#FF9F9F" fill-opacity="0.17"/>
<ellipse cx="1.89518" cy="1.92086" rx="1.89518" ry="1.92086" transform="matrix(0.745054 -0.667004 -0.611213 -0.791466 201.172 360.23)" fill="#FF9F9F" fill-opacity="0.17"/>
<ellipse cx="1.65828" cy="1.44065" rx="1.65828" ry="1.44065" transform="matrix(0.745054 -0.667004 -0.611213 -0.791466 206.201 328.085)" fill="#FF9F9F" fill-opacity="0.17"/>
<ellipse cx="3.79036" cy="3.84173" rx="3.79036" ry="3.84173" transform="matrix(0.745054 -0.667004 -0.611213 -0.791466 165.733 355.315)" fill="#FF9F9F" fill-opacity="0.17"/>
<ellipse cx="53.3809" cy="78.491" rx="2.86768" ry="3.0876" fill="#FF9F9F" fill-opacity="0.17"/>
<ellipse cx="41.1286" cy="133.225" rx="1.56419" ry="1.68415" fill="#FF9F9F" fill-opacity="0.17"/>
<ellipse cx="104.217" cy="121.436" rx="3.12838" ry="3.36829" fill="#FF9F9F" fill-opacity="0.17"/>
<ellipse cx="97.439" cy="60.8069" rx="2.60699" ry="2.80691" fill="#FF9F9F" fill-opacity="0.17"/>
<ellipse cx="129.244" cy="89.4371" rx="2.08559" ry="2.24553" fill="#FF9F9F" fill-opacity="0.17"/>
<ellipse cx="66.4157" cy="102.63" rx="4.95327" ry="5.33313" fill="#FF9F9F" fill-opacity="0.17"/>
<ellipse cx="2.86768" cy="3.0876" rx="2.86768" ry="3.0876" transform="matrix(-1 0 0 1 240.303 114.699)" fill="#FF9F9F" fill-opacity="0.17"/>
<ellipse cx="1.56419" cy="1.68415" rx="1.56419" ry="1.68415" transform="matrix(-1 0 0 1 251.251 170.837)" fill="#FF9F9F" fill-opacity="0.17"/>
<ellipse cx="3.12838" cy="3.36829" rx="3.12838" ry="3.36829" transform="matrix(-1 0 0 1 189.727 157.364)" fill="#FF9F9F" fill-opacity="0.17"/>
<ellipse cx="2.60699" cy="2.80691" rx="2.60699" ry="2.80691" transform="matrix(-1 0 0 1 195.983 97.2973)" fill="#FF9F9F" fill-opacity="0.17"/>
<ellipse cx="2.08559" cy="2.24553" rx="2.08559" ry="2.24553" transform="matrix(-1 0 0 1 163.656 126.489)" fill="#FF9F9F" fill-opacity="0.17"/>
<ellipse cx="4.95327" cy="5.33313" rx="4.95327" ry="5.33313" transform="matrix(-1 0 0 1 229.353 136.593)" fill="#FF9F9F" fill-opacity="0.17"/>
<ellipse cx="2.34784" cy="2.52477" rx="2.34784" ry="2.52477" transform="matrix(-0.995172 -0.0981466 -0.0847679 0.996401 114.468 165.23)" fill="#FF9F9F" fill-opacity="0.17"/>
<ellipse cx="1.30436" cy="1.40265" rx="1.30436" ry="1.40265" transform="matrix(-0.995172 -0.0981466 -0.0847679 0.996401 119.396 211.941)" fill="#FF9F9F" fill-opacity="0.17"/>
<ellipse cx="2.34784" cy="2.52477" rx="2.34784" ry="2.52477" transform="matrix(-0.995172 -0.0981466 -0.0847679 0.996401 69.9338 196.353)" fill="#FF9F9F" fill-opacity="0.17"/>
<ellipse cx="2.08697" cy="2.24424" rx="2.08697" ry="2.24424" transform="matrix(-0.995172 -0.0981466 -0.0847679 0.996401 79.3118 147.67)" fill="#FF9F9F" fill-opacity="0.17"/>
<ellipse cx="1.8261" cy="1.68318" rx="1.8261" ry="1.68318" transform="matrix(-0.995172 -0.0981466 -0.0847679 0.996401 51.3052 169.148)" fill="#FF9F9F" fill-opacity="0.17"/>
<ellipse cx="4.17394" cy="4.48849" rx="4.17394" ry="4.48849" transform="matrix(-0.995172 -0.0981466 -0.0847679 0.996401 104.12 182.249)" fill="#FF9F9F" fill-opacity="0.17"/>
<ellipse cx="2.07373" cy="2.21703" rx="2.07373" ry="2.21703" transform="matrix(-0.972169 0.234281 0.20353 0.979069 267.239 202.286)" fill="#FF9F9F" fill-opacity="0.17"/>
<ellipse cx="1.15207" cy="1.23168" rx="1.15207" ry="1.23168" transform="matrix(-0.972169 0.234281 0.20353 0.979069 283.077 240.004)" fill="#FF9F9F" fill-opacity="0.17"/>
<ellipse cx="2.07373" cy="2.21703" rx="2.07373" ry="2.21703" transform="matrix(-0.972169 0.234281 0.20353 0.979069 237.716 241.311)" fill="#FF9F9F" fill-opacity="0.17"/>
<ellipse cx="1.84332" cy="1.97069" rx="1.84332" ry="1.97069" transform="matrix(-0.972169 0.234281 0.20353 0.979069 233.371 197.783)" fill="#FF9F9F" fill-opacity="0.17"/>
<ellipse cx="1.6129" cy="1.47802" rx="1.6129" ry="1.47802" transform="matrix(-0.972169 0.234281 0.20353 0.979069 215.283 223.923)" fill="#FF9F9F" fill-opacity="0.17"/>
<ellipse cx="3.68663" cy="3.94138" rx="3.68663" ry="3.94138" transform="matrix(-0.972169 0.234281 0.20353 0.979069 262.831 219.556)" fill="#FF9F9F" fill-opacity="0.17"/>
<ellipse cx="2.93183" cy="3.13442" rx="2.93183" ry="3.13442" transform="matrix(-0.972169 0.234281 0.20353 0.979069 298.898 266.462)" fill="#FF9F9F" fill-opacity="0.17"/>
<ellipse cx="1.62879" cy="1.74134" rx="1.62879" ry="1.74134" transform="matrix(-0.972169 0.234281 0.20353 0.979069 321.291 319.787)" fill="#FF9F9F" fill-opacity="0.17"/>
<ellipse cx="2.93183" cy="3.13442" rx="2.93183" ry="3.13442" transform="matrix(-0.972169 0.234281 0.20353 0.979069 257.159 321.636)" fill="#FF9F9F" fill-opacity="0.17"/>
<ellipse cx="2.60607" cy="2.78615" rx="2.60607" ry="2.78615" transform="matrix(-0.972169 0.234281 0.20353 0.979069 251.018 260.097)" fill="#FF9F9F" fill-opacity="0.17"/>
<ellipse cx="2.28031" cy="2.08961" rx="2.28031" ry="2.08961" transform="matrix(-0.972169 0.234281 0.20353 0.979069 225.445 297.054)" fill="#FF9F9F" fill-opacity="0.17"/>
<ellipse cx="5.21214" cy="5.5723" rx="5.21214" ry="5.5723" transform="matrix(-0.972169 0.234281 0.20353 0.979069 292.667 290.879)" fill="#FF9F9F" fill-opacity="0.17"/>
<ellipse cx="3.18724" cy="3.0284" rx="3.18724" ry="3.0284" transform="matrix(0.368063 -0.929801 -0.908872 -0.417075 95.6453 321.84)" fill="#FF9F9F" fill-opacity="0.17"/>
<ellipse cx="1.77069" cy="1.68244" rx="1.77069" ry="1.68244" transform="matrix(0.368063 -0.929801 -0.908872 -0.417075 41.0581 310.019)" fill="#FF9F9F" fill-opacity="0.17"/>
<ellipse cx="3.18724" cy="3.0284" rx="3.18724" ry="3.0284" transform="matrix(0.368063 -0.929801 -0.908872 -0.417075 77.9658 251.473)" fill="#FF9F9F" fill-opacity="0.17"/>
<ellipse cx="2.83311" cy="2.69191" rx="2.83311" ry="2.69191" transform="matrix(0.368063 -0.929801 -0.908872 -0.417075 129.185 282.758)" fill="#FF9F9F" fill-opacity="0.17"/>
<ellipse cx="2.47897" cy="2.01893" rx="2.47897" ry="2.01893" transform="matrix(0.368063 -0.929801 -0.908872 -0.417075 115.918 237.761)" fill="#FF9F9F" fill-opacity="0.17"/>
<ellipse cx="5.66621" cy="5.38382" rx="5.66621" ry="5.38382" transform="matrix(0.368063 -0.929801 -0.908872 -0.417075 80.5051 301.662)" fill="#FF9F9F" fill-opacity="0.17"/>
<ellipse cx="2.16421" cy="2.12879" rx="2.16421" ry="2.12879" transform="matrix(-0.594724 -0.80393 -0.759091 0.650984 314.555 112.787)" fill="#FF9F9F" fill-opacity="0.17"/>
<ellipse cx="1.20234" cy="1.18266" rx="1.20234" ry="1.18266" transform="matrix(-0.594724 -0.80393 -0.759091 0.650984 289.971 144.614)" fill="#FF9F9F" fill-opacity="0.17"/>
<ellipse cx="2.16421" cy="2.12879" rx="2.16421" ry="2.12879" transform="matrix(-0.594724 -0.80393 -0.759091 0.650984 269.05 101.259)" fill="#FF9F9F" fill-opacity="0.17"/>
<ellipse cx="1.92374" cy="1.89226" rx="1.92374" ry="1.89226" transform="matrix(-0.594724 -0.80393 -0.759091 0.650984 303.51 78.0243)" fill="#FF9F9F" fill-opacity="0.17"/>
<ellipse cx="1.68327" cy="1.4192" rx="1.68327" ry="1.4192" transform="matrix(-0.594724 -0.80393 -0.759091 0.650984 273.769 71.9337)" fill="#FF9F9F" fill-opacity="0.17"/>
<ellipse cx="3.84748" cy="3.78452" rx="3.84748" ry="3.78452" transform="matrix(-0.594724 -0.80393 -0.759091 0.650984 298.202 116.07)" fill="#FF9F9F" fill-opacity="0.17"/>
<ellipse cx="53.3809" cy="78.491" rx="2.86768" ry="3.0876" fill="#FF9F9F" fill-opacity="0.17"/>
<ellipse cx="41.1286" cy="133.225" rx="1.56419" ry="1.68415" fill="#FF9F9F" fill-opacity="0.17"/>
<ellipse cx="104.217" cy="121.436" rx="3.12838" ry="3.36829" fill="#FF9F9F" fill-opacity="0.17"/>
<ellipse cx="97.439" cy="60.8069" rx="2.60699" ry="2.80691" fill="#FF9F9F" fill-opacity="0.17"/>
<ellipse cx="129.244" cy="89.4371" rx="2.08559" ry="2.24553" fill="#FF9F9F" fill-opacity="0.17"/>
<ellipse cx="66.4157" cy="102.63" rx="4.95327" ry="5.33313" fill="#FF9F9F" fill-opacity="0.17"/>
<ellipse cx="2.86768" cy="3.0876" rx="2.86768" ry="3.0876" transform="matrix(-1 0 0 1 240.303 114.699)" fill="#FF9F9F" fill-opacity="0.17"/>
<ellipse cx="1.56419" cy="1.68415" rx="1.56419" ry="1.68415" transform="matrix(-1 0 0 1 251.251 170.837)" fill="#FF9F9F" fill-opacity="0.17"/>
<ellipse cx="3.12838" cy="3.36829" rx="3.12838" ry="3.36829" transform="matrix(-1 0 0 1 189.727 157.364)" fill="#FF9F9F" fill-opacity="0.17"/>
<ellipse cx="2.60699" cy="2.80691" rx="2.60699" ry="2.80691" transform="matrix(-1 0 0 1 195.983 97.2973)" fill="#FF9F9F" fill-opacity="0.17"/>
<ellipse cx="2.08559" cy="2.24553" rx="2.08559" ry="2.24553" transform="matrix(-1 0 0 1 163.656 126.489)" fill="#FF9F9F" fill-opacity="0.17"/>
<ellipse cx="4.95327" cy="5.33313" rx="4.95327" ry="5.33313" transform="matrix(-1 0 0 1 229.353 136.593)" fill="#FF9F9F" fill-opacity="0.17"/>
<ellipse cx="2.34784" cy="2.52477" rx="2.34784" ry="2.52477" transform="matrix(-0.995172 -0.0981466 -0.0847679 0.996401 114.468 165.23)" fill="#FF9F9F" fill-opacity="0.17"/>
<ellipse cx="1.30436" cy="1.40265" rx="1.30436" ry="1.40265" transform="matrix(-0.995172 -0.0981466 -0.0847679 0.996401 119.396 211.941)" fill="#FF9F9F" fill-opacity="0.17"/>
<ellipse cx="2.34784" cy="2.52477" rx="2.34784" ry="2.52477" transform="matrix(-0.995172 -0.0981466 -0.0847679 0.996401 69.9338 196.353)" fill="#FF9F9F" fill-opacity="0.17"/>
<ellipse cx="2.08697" cy="2.24424" rx="2.08697" ry="2.24424" transform="matrix(-0.995172 -0.0981466 -0.0847679 0.996401 79.3118 147.67)" fill="#FF9F9F" fill-opacity="0.17"/>
<ellipse cx="1.8261" cy="1.68318" rx="1.8261" ry="1.68318" transform="matrix(-0.995172 -0.0981466 -0.0847679 0.996401 51.3052 169.148)" fill="#FF9F9F" fill-opacity="0.17"/>
<ellipse cx="4.17394" cy="4.48849" rx="4.17394" ry="4.48849" transform="matrix(-0.995172 -0.0981466 -0.0847679 0.996401 104.12 182.249)" fill="#FF9F9F" fill-opacity="0.17"/>
<ellipse cx="2.07373" cy="2.21703" rx="2.07373" ry="2.21703" transform="matrix(-0.972169 0.234281 0.20353 0.979069 267.239 202.286)" fill="#FF9F9F" fill-opacity="0.17"/>
<ellipse cx="1.15207" cy="1.23168" rx="1.15207" ry="1.23168" transform="matrix(-0.972169 0.234281 0.20353 0.979069 283.077 240.004)" fill="#FF9F9F" fill-opacity="0.17"/>
<ellipse cx="2.07373" cy="2.21703" rx="2.07373" ry="2.21703" transform="matrix(-0.972169 0.234281 0.20353 0.979069 237.716 241.311)" fill="#FF9F9F" fill-opacity="0.17"/>
<ellipse cx="1.84332" cy="1.97069" rx="1.84332" ry="1.97069" transform="matrix(-0.972169 0.234281 0.20353 0.979069 233.371 197.783)" fill="#FF9F9F" fill-opacity="0.17"/>
<ellipse cx="1.6129" cy="1.47802" rx="1.6129" ry="1.47802" transform="matrix(-0.972169 0.234281 0.20353 0.979069 215.283 223.923)" fill="#FF9F9F" fill-opacity="0.17"/>
<ellipse cx="3.68663" cy="3.94138" rx="3.68663" ry="3.94138" transform="matrix(-0.972169 0.234281 0.20353 0.979069 262.831 219.556)" fill="#FF9F9F" fill-opacity="0.17"/>
<ellipse cx="2.93183" cy="3.13442" rx="2.93183" ry="3.13442" transform="matrix(-0.972169 0.234281 0.20353 0.979069 298.898 266.462)" fill="#FF9F9F" fill-opacity="0.17"/>
<ellipse cx="1.62879" cy="1.74134" rx="1.62879" ry="1.74134" transform="matrix(-0.972169 0.234281 0.20353 0.979069 321.291 319.787)" fill="#FF9F9F" fill-opacity="0.17"/>
<ellipse cx="2.93183" cy="3.13442" rx="2.93183" ry="3.13442" transform="matrix(-0.972169 0.234281 0.20353 0.979069 257.159 321.636)" fill="#FF9F9F" fill-opacity="0.17"/>
<ellipse cx="2.60607" cy="2.78615" rx="2.60607" ry="2.78615" transform="matrix(-0.972169 0.234281 0.20353 0.979069 251.018 260.097)" fill="#FF9F9F" fill-opacity="0.17"/>
<ellipse cx="2.28031" cy="2.08961" rx="2.28031" ry="2.08961" transform="matrix(-0.972169 0.234281 0.20353 0.979069 225.445 297.054)" fill="#FF9F9F" fill-opacity="0.17"/>
<ellipse cx="5.21214" cy="5.5723" rx="5.21214" ry="5.5723" transform="matrix(-0.972169 0.234281 0.20353 0.979069 292.667 290.879)" fill="#FF9F9F" fill-opacity="0.17"/>
<ellipse cx="3.18724" cy="3.0284" rx="3.18724" ry="3.0284" transform="matrix(0.368063 -0.929801 -0.908872 -0.417075 95.6453 321.84)" fill="#FF9F9F" fill-opacity="0.17"/>
<ellipse cx="1.77069" cy="1.68244" rx="1.77069" ry="1.68244" transform="matrix(0.368063 -0.929801 -0.908872 -0.417075 41.0581 310.019)" fill="#FF9F9F" fill-opacity="0.17"/>
<ellipse cx="3.18724" cy="3.0284" rx="3.18724" ry="3.0284" transform="matrix(0.368063 -0.929801 -0.908872 -0.417075 77.9658 251.473)" fill="#FF9F9F" fill-opacity="0.17"/>
<ellipse cx="2.83311" cy="2.69191" rx="2.83311" ry="2.69191" transform="matrix(0.368063 -0.929801 -0.908872 -0.417075 129.185 282.758)" fill="#FF9F9F" fill-opacity="0.17"/>
<ellipse cx="2.47897" cy="2.01893" rx="2.47897" ry="2.01893" transform="matrix(0.368063 -0.929801 -0.908872 -0.417075 115.918 237.761)" fill="#FF9F9F" fill-opacity="0.17"/>
<ellipse cx="5.66621" cy="5.38382" rx="5.66621" ry="5.38382" transform="matrix(0.368063 -0.929801 -0.908872 -0.417075 80.5051 301.662)" fill="#FF9F9F" fill-opacity="0.17"/>
<ellipse cx="2.16421" cy="2.12879" rx="2.16421" ry="2.12879" transform="matrix(-0.594724 -0.80393 -0.759091 0.650984 314.555 112.787)" fill="#FF9F9F" fill-opacity="0.17"/>
<ellipse cx="1.20234" cy="1.18266" rx="1.20234" ry="1.18266" transform="matrix(-0.594724 -0.80393 -0.759091 0.650984 289.971 144.614)" fill="#FF9F9F" fill-opacity="0.17"/>
<ellipse cx="2.16421" cy="2.12879" rx="2.16421" ry="2.12879" transform="matrix(-0.594724 -0.80393 -0.759091 0.650984 269.05 101.259)" fill="#FF9F9F" fill-opacity="0.17"/>
<ellipse cx="1.92374" cy="1.89226" rx="1.92374" ry="1.89226" transform="matrix(-0.594724 -0.80393 -0.759091 0.650984 303.51 78.0243)" fill="#FF9F9F" fill-opacity="0.17"/>
<ellipse cx="1.68327" cy="1.4192" rx="1.68327" ry="1.4192" transform="matrix(-0.594724 -0.80393 -0.759091 0.650984 273.769 71.9337)" fill="#FF9F9F" fill-opacity="0.17"/>
<ellipse cx="3.84748" cy="3.78452" rx="3.84748" ry="3.78452" transform="matrix(-0.594724 -0.80393 -0.759091 0.650984 298.202 116.07)" fill="#FF9F9F" fill-opacity="0.17"/>
<ellipse cx="2.13208" cy="2.16097" rx="2.13208" ry="2.16097" transform="matrix(0.745054 -0.667004 -0.611213 -0.791466 169.124 372.849)" fill="#FF9F9F" fill-opacity="0.17"/>
<ellipse cx="1.18449" cy="1.20054" rx="1.18449" ry="1.20054" transform="matrix(0.745054 -0.667004 -0.611213 -0.791466 139.054 347.056)" fill="#FF9F9F" fill-opacity="0.17"/>
<ellipse cx="2.13208" cy="2.16097" rx="2.13208" ry="2.16097" transform="matrix(0.745054 -0.667004 -0.611213 -0.791466 178.872 323.623)" fill="#FF9F9F" fill-opacity="0.17"/>
<ellipse cx="1.89518" cy="1.92086" rx="1.89518" ry="1.92086" transform="matrix(0.745054 -0.667004 -0.611213 -0.791466 201.172 360.23)" fill="#FF9F9F" fill-opacity="0.17"/>
<ellipse cx="1.65828" cy="1.44065" rx="1.65828" ry="1.44065" transform="matrix(0.745054 -0.667004 -0.611213 -0.791466 206.201 328.085)" fill="#FF9F9F" fill-opacity="0.17"/>
<ellipse cx="3.79036" cy="3.84173" rx="3.79036" ry="3.84173" transform="matrix(0.745054 -0.667004 -0.611213 -0.791466 165.733 355.315)" fill="#FF9F9F" fill-opacity="0.17"/>
<ellipse cx="2.66254" cy="2.69862" rx="2.66254" ry="2.69862" transform="matrix(0.745054 -0.667004 -0.611213 -0.791466 73.8301 367.286)" fill="#FF9F9F" fill-opacity="0.17"/>
<ellipse cx="2.3667" cy="2.39877" rx="2.3667" ry="2.39877" transform="matrix(0.745054 -0.667004 -0.611213 -0.791466 101.678 413)" fill="#FF9F9F" fill-opacity="0.17"/>
<ellipse cx="2.07086" cy="1.79908" rx="2.07086" ry="1.79908" transform="matrix(0.745054 -0.667004 -0.611213 -0.791466 107.957 372.859)" fill="#FF9F9F" fill-opacity="0.17"/>
<ellipse cx="4.7334" cy="4.79754" rx="4.7334" ry="4.79754" transform="matrix(0.745054 -0.667004 -0.611213 -0.791466 57.4216 406.862)" fill="#FF9F9F" fill-opacity="0.17"/>
<ellipse cx="2.13208" cy="2.16097" rx="2.13208" ry="2.16097" transform="matrix(-0.745054 -0.667004 0.611213 -0.791466 280.529 375.832)" fill="#FF9F9F" fill-opacity="0.17"/>
<ellipse cx="1.89518" cy="1.92086" rx="1.89518" ry="1.92086" transform="matrix(-0.745054 -0.667004 0.611213 -0.791466 258.231 412.438)" fill="#FF9F9F" fill-opacity="0.17"/>
<ellipse cx="1.65828" cy="1.44065" rx="1.65828" ry="1.44065" transform="matrix(-0.745054 -0.667004 0.611213 -0.791466 253.201 380.294)" fill="#FF9F9F" fill-opacity="0.17"/>
<ellipse cx="3.79036" cy="3.84173" rx="3.79036" ry="3.84173" transform="matrix(-0.745054 -0.667004 0.611213 -0.791466 293.669 407.524)" fill="#FF9F9F" fill-opacity="0.17"/>
<path d="M255.503 339H102.692V147.184L255.503 198.69V339Z" fill="#F2F2F2"/>
<path d="M236.983 271.213H116.917V331.896H236.983V271.213Z" fill="#3F3D56"/>
<path d="M210.98 259.861C220.201 259.861 227.677 251.752 227.677 241.749C227.677 231.746 220.201 223.637 210.98 223.637C201.759 223.637 194.284 231.746 194.284 241.749C194.284 251.752 201.759 259.861 210.98 259.861Z" fill="#E97777"/>
<path d="M210.829 274.503L210.966 241.649" stroke="#3F3D56" stroke-width="2" stroke-miterlimit="10"/>
<path d="M210.966 246.295C213.331 246.295 215.249 244.215 215.249 241.649C215.249 239.083 213.331 237.003 210.966 237.003C208.601 237.003 206.683 239.083 206.683 241.649C206.683 244.215 208.601 246.295 210.966 246.295Z" fill="#3F3D56"/>
<path d="M210.882 261.898C210.882 261.898 210.329 247.62 197.78 249.218L210.882 261.898Z" fill="#3F3D56"/>
<path d="M141.038 223.498C150.259 223.498 157.734 215.389 157.734 205.386C157.734 195.383 150.259 187.274 141.038 187.274C131.817 187.274 124.342 195.383 124.342 205.386C124.342 215.389 131.817 223.498 141.038 223.498Z" fill="#E97777"/>
<path d="M140.093 272.25L141.053 205.366" stroke="#3F3D56" stroke-width="2" stroke-miterlimit="10"/>
<path d="M141.053 210.012C143.419 210.012 145.336 207.932 145.336 205.366C145.336 202.8 143.419 200.72 141.053 200.72C138.688 200.72 136.771 202.8 136.771 205.366C136.771 207.932 138.688 210.012 141.053 210.012Z" fill="#3F3D56"/>
<path d="M140.782 224.285C140.782 224.285 140.375 210.001 127.81 211.448L140.782 224.285Z" fill="#3F3D56"/>
<path d="M140.111 270.973C140.111 270.973 143.258 243.572 127.371 241.976" stroke="#3F3D56" stroke-width="2" stroke-miterlimit="10"/>
<path d="M127.371 246.622C129.737 246.622 131.654 244.542 131.654 241.976C131.654 239.41 129.737 237.33 127.371 237.33C125.006 237.33 123.088 239.41 123.088 241.976C123.088 244.542 125.006 246.622 127.371 246.622Z" fill="#3F3D56"/>
<path d="M176.943 183.289C186.164 183.289 193.639 175.18 193.639 165.177C193.639 155.174 186.164 147.066 176.943 147.066C167.722 147.066 160.247 155.174 160.247 165.177C160.247 175.18 167.722 183.289 176.943 183.289Z" fill="#E97777"/>
<path d="M176.953 274.829V165.244" stroke="#3F3D56" stroke-width="2" stroke-miterlimit="10"/>
<path d="M176.954 169.838C179.319 169.838 181.236 167.758 181.236 165.192C181.236 162.626 179.319 160.546 176.954 160.546C174.588 160.546 172.671 162.626 172.671 165.192C172.671 167.758 174.588 169.838 176.954 169.838Z" fill="#3F3D56"/>
<path d="M163.799 249.124C166.164 249.124 168.082 247.043 168.082 244.478C168.082 241.912 166.164 239.832 163.799 239.832C161.433 239.832 159.516 241.912 159.516 244.478C159.516 247.043 161.433 249.124 163.799 249.124Z" fill="#3F3D56"/>
<path d="M176.953 188.924C176.953 188.924 176.342 174.649 163.799 176.308L176.953 188.924Z" fill="#3F3D56"/>
<path d="M176.953 229.392C176.953 229.392 176.342 215.117 163.799 216.777L176.953 229.392Z" fill="#3F3D56"/>
<path d="M176.953 273.552C176.953 273.552 179.707 245.805 163.799 244.478" stroke="#3F3D56" stroke-width="2" stroke-miterlimit="10"/>
<path d="M190.371 205.542C192.736 205.542 194.654 203.462 194.654 200.896C194.654 198.33 192.736 196.25 190.371 196.25C188.005 196.25 186.088 198.33 186.088 200.896C186.088 203.462 188.005 205.542 190.371 205.542Z" fill="#3F3D56"/>
<path d="M177.216 228.491C177.216 228.491 174.463 202.224 190.371 200.896" stroke="#3F3D56" stroke-width="2" stroke-miterlimit="10"/>
<path d="M212.662 190.402C211.474 190.402 210.314 190.02 209.326 189.304C208.339 188.589 207.57 187.572 207.115 186.382C206.661 185.192 206.542 183.882 206.774 182.619C207.005 181.356 207.577 180.195 208.417 179.285C209.256 178.374 210.326 177.754 211.491 177.502C212.655 177.251 213.862 177.38 214.959 177.873C216.056 178.366 216.994 179.201 217.653 180.272C218.313 181.343 218.665 182.602 218.665 183.89C218.663 185.616 218.03 187.271 216.905 188.492C215.779 189.713 214.253 190.4 212.662 190.402ZM212.662 177.969C211.582 177.969 210.527 178.317 209.63 178.967C208.732 179.618 208.033 180.542 207.62 181.624C207.207 182.706 207.098 183.896 207.309 185.045C207.52 186.193 208.039 187.248 208.803 188.076C209.566 188.904 210.538 189.468 211.597 189.696C212.656 189.925 213.753 189.807 214.75 189.359C215.747 188.911 216.6 188.152 217.2 187.179C217.799 186.205 218.119 185.061 218.119 183.89C218.118 182.32 217.542 180.815 216.519 179.705C215.496 178.595 214.109 177.971 212.662 177.969Z" fill="#3F3D56"/>
<path d="M118.246 159.025C117.059 159.025 115.898 158.643 114.911 157.927C113.924 157.211 113.154 156.194 112.7 155.004C112.246 153.814 112.127 152.505 112.358 151.242C112.59 149.979 113.162 148.818 114.001 147.907C114.841 146.997 115.911 146.376 117.075 146.125C118.24 145.874 119.447 146.003 120.544 146.496C121.641 146.989 122.578 147.823 123.238 148.894C123.897 149.965 124.25 151.224 124.25 152.512C124.248 154.239 123.615 155.894 122.489 157.115C121.364 158.336 119.838 159.023 118.246 159.025ZM118.246 146.592C117.167 146.592 116.112 146.939 115.214 147.59C114.317 148.24 113.617 149.165 113.204 150.247C112.791 151.328 112.683 152.519 112.894 153.667C113.104 154.816 113.624 155.871 114.387 156.699C115.15 157.526 116.123 158.09 117.182 158.319C118.24 158.547 119.337 158.43 120.335 157.982C121.332 157.534 122.184 156.775 122.784 155.801C123.384 154.828 123.704 153.683 123.704 152.512C123.702 150.943 123.127 149.438 122.103 148.328C121.08 147.218 119.693 146.594 118.246 146.592Z" fill="#3F3D56"/>
<path d="M255.503 255.525C254.316 255.525 253.155 255.143 252.168 254.427C251.181 253.711 250.411 252.694 249.957 251.504C249.503 250.314 249.384 249.005 249.615 247.742C249.847 246.479 250.419 245.318 251.258 244.407C252.098 243.497 253.168 242.876 254.332 242.625C255.497 242.374 256.704 242.503 257.801 242.996C258.898 243.489 259.835 244.323 260.495 245.394C261.154 246.465 261.507 247.724 261.507 249.012C261.505 250.739 260.872 252.394 259.746 253.615C258.621 254.836 257.095 255.523 255.503 255.525ZM255.503 243.092C254.424 243.092 253.369 243.439 252.471 244.09C251.574 244.74 250.874 245.665 250.461 246.747C250.048 247.828 249.94 249.019 250.151 250.167C250.361 251.316 250.881 252.371 251.644 253.199C252.407 254.026 253.38 254.59 254.439 254.819C255.497 255.047 256.595 254.93 257.592 254.482C258.589 254.034 259.441 253.275 260.041 252.301C260.641 251.328 260.961 250.183 260.961 249.012C260.959 247.443 260.384 245.938 259.361 244.828C258.337 243.718 256.95 243.094 255.503 243.092Z" fill="#3F3D56"/>
<path d="M230.126 204.61C232.085 204.61 233.673 202.888 233.673 200.762C233.673 198.637 232.085 196.914 230.126 196.914C228.167 196.914 226.578 198.637 226.578 200.762C226.578 202.888 228.167 204.61 230.126 204.61Z" fill="#3F3D56"/>
<path d="M102.547 269.696C104.507 269.696 106.095 267.973 106.095 265.848C106.095 263.723 104.507 262 102.547 262C100.588 262 99 263.723 99 265.848C99 267.973 100.588 269.696 102.547 269.696Z" fill="#3F3D56"/>
<path d="M255.503 339V271.213H230.126C230.126 302.929 206.425 328.64 177.188 328.64C147.951 328.64 124.25 302.929 124.25 271.213H102.692V339H255.503Z" fill="#3F3D56"/>
<path d="M177.188 328.64C206.425 328.64 230.126 302.929 230.126 271.213H124.25C124.25 302.929 147.951 328.64 177.188 328.64Z" fill="#E97777"/>
<path d="M139.112 353.664C139.112 354.144 139.2 354.576 139.376 354.96C139.552 355.328 139.792 355.648 140.096 355.92C140.416 356.176 140.784 356.376 141.2 356.52C141.616 356.664 142.072 356.736 142.568 356.736C143.064 356.736 143.52 356.664 143.936 356.52C144.368 356.376 144.736 356.176 145.04 355.92C145.36 355.648 145.608 355.328 145.784 354.96C145.96 354.576 146.048 354.144 146.048 353.664C146.048 353.184 145.96 352.752 145.784 352.368C145.608 351.984 145.36 351.656 145.04 351.384C144.736 351.112 144.368 350.904 143.936 350.76C143.52 350.616 143.064 350.544 142.568 350.544C142.072 350.544 141.616 350.616 141.2 350.76C140.784 350.904 140.416 351.112 140.096 351.384C139.792 351.656 139.552 351.984 139.376 352.368C139.2 352.752 139.112 353.184 139.112 353.664ZM137.384 353.664C137.384 353.088 137.504 352.544 137.744 352.032C137.984 351.504 138.328 351.048 138.776 350.664C139.224 350.28 139.768 349.976 140.408 349.752C141.048 349.528 141.76 349.416 142.544 349.416C143.312 349.416 144.016 349.528 144.656 349.752C145.296 349.976 145.84 350.28 146.288 350.664C146.736 351.048 147.08 351.504 147.32 352.032C147.576 352.544 147.704 353.088 147.704 353.664C147.704 354.24 147.576 354.792 147.32 355.32C147.08 355.848 146.736 356.312 146.288 356.712C145.84 357.112 145.296 357.432 144.656 357.672C144.016 357.912 143.312 358.032 142.544 358.032C141.76 358.032 141.048 357.912 140.408 357.672C139.768 357.432 139.224 357.112 138.776 356.712C138.328 356.312 137.984 355.848 137.744 355.32C137.504 354.792 137.384 354.24 137.384 353.664ZM153.776 349.392V355.152C153.776 355.408 153.768 355.752 153.752 356.184C153.752 356.616 153.72 357.04 153.656 357.456C153.592 357.872 153.488 358.232 153.344 358.536C153.216 358.84 153.024 358.992 152.768 358.992C152.4 358.992 152.216 358.312 152.216 356.952V349.848C152.216 349.56 152.064 349.296 151.76 349.056C151.472 348.816 151.032 348.584 150.44 348.36C150.312 348.296 150.2 348.24 150.104 348.192C150.024 348.128 149.984 348.056 149.984 347.976C149.984 347.896 150.04 347.808 150.152 347.712C150.28 347.616 150.464 347.568 150.704 347.568C150.816 347.568 151.024 347.584 151.328 347.616C151.632 347.648 151.952 347.696 152.288 347.76C152.64 347.808 152.968 347.864 153.272 347.928C153.576 347.992 153.776 348.048 153.872 348.096L153.776 349.392ZM153.2 363.576C153.504 363.64 153.712 363.72 153.824 363.816C153.936 363.912 153.992 364.032 153.992 364.176C153.992 364.544 153.704 364.736 153.128 364.752L145.52 364.92V367.392C145.52 367.792 145.728 367.992 146.144 367.992L150.944 367.968C151.392 367.968 151.768 367.904 152.072 367.776C152.392 367.648 152.624 367.52 152.768 367.392C153.184 367.392 153.576 367.408 153.944 367.44C154.312 367.488 154.632 367.544 154.904 367.608C155.32 367.736 155.528 367.96 155.528 368.28C155.528 368.68 155.24 368.88 154.664 368.88L145.784 368.904C144.536 368.904 143.912 368.288 143.912 367.056V365.232C143.688 364.864 143.248 364.6 142.592 364.44C142.288 364.376 142.136 364.264 142.136 364.104C142.136 363.992 142.192 363.896 142.304 363.816C142.432 363.736 142.624 363.696 142.88 363.696C143.456 363.696 143.92 363.712 144.272 363.744C144.64 363.776 145.024 363.88 145.424 364.056C146.448 364.024 147.488 364 148.544 363.984C149.616 363.952 150.656 363.92 151.664 363.888C151.76 363.888 151.848 363.84 151.928 363.744V360.864C151.624 360.864 151.24 360.872 150.776 360.888C150.328 360.888 149.856 360.896 149.36 360.912C148.88 360.928 148.408 360.952 147.944 360.984C147.48 361 147.096 361.024 146.792 361.056C146.424 361.088 146.088 361.16 145.784 361.272C145.48 361.368 145.184 361.496 144.896 361.656C144.672 361.608 144.44 361.536 144.2 361.44C143.96 361.328 143.728 361.216 143.504 361.104C143.296 360.992 143.104 360.888 142.928 360.792C142.768 360.68 142.648 360.592 142.568 360.528C142.472 360.432 142.424 360.328 142.424 360.216C142.424 359.992 142.632 359.92 143.048 360C143.464 360.064 143.864 360.104 144.248 360.12C144.632 360.12 145.008 360.12 145.376 360.12C145.696 360.12 146.064 360.12 146.48 360.12C146.896 360.12 147.336 360.12 147.8 360.12C148.28 360.104 148.76 360.096 149.24 360.096C149.72 360.08 150.184 360.056 150.632 360.024C150.92 360.008 151.2 359.96 151.472 359.88C151.76 359.8 151.944 359.728 152.024 359.664C152.248 359.648 152.488 359.648 152.744 359.664C153 359.68 153.216 359.704 153.392 359.736C153.68 359.784 153.832 359.872 153.848 360C153.864 360.128 153.856 360.256 153.824 360.384C153.792 360.608 153.744 360.808 153.68 360.984C153.632 361.16 153.576 361.384 153.512 361.656L153.2 363.576ZM172.854 360.768C173.078 360.752 173.318 360.752 173.574 360.768C173.83 360.784 174.046 360.808 174.222 360.84C174.51 360.904 174.654 361 174.654 361.128C174.67 361.256 174.67 361.384 174.654 361.512C174.622 361.784 174.574 362 174.51 362.16C174.462 362.32 174.422 362.56 174.39 362.88C174.358 363.184 174.326 363.52 174.294 363.888C174.262 364.24 174.23 364.6 174.198 364.968C174.166 365.336 174.134 365.688 174.102 366.024C174.07 366.376 174.038 366.696 174.006 366.984C174.31 367.048 174.518 367.136 174.63 367.248C174.758 367.376 174.822 367.504 174.822 367.632C174.822 367.984 174.526 368.176 173.934 368.208C172.606 368.176 171.334 368.168 170.118 368.184C168.918 368.2 167.67 368.224 166.374 368.256C166.358 368.416 166.286 368.6 166.158 368.808C166.046 369.016 165.902 369.12 165.726 369.12C165.502 369.12 165.342 369.016 165.246 368.808C165.166 368.6 165.11 368.36 165.078 368.088L164.67 362.688C164.558 362.448 164.398 362.272 164.19 362.16C163.998 362.032 163.75 361.92 163.446 361.824C163.318 361.776 163.206 361.72 163.11 361.656C163.014 361.576 162.966 361.496 162.966 361.416C162.966 361.336 163.022 361.248 163.134 361.152C163.262 361.056 163.446 361.008 163.686 361.008C164.054 361.008 164.494 361.04 165.006 361.104C165.534 361.152 166.038 361.2 166.518 361.248C167.446 361.28 168.326 361.28 169.158 361.248C170.006 361.216 170.862 361.168 171.726 361.104C171.998 361.072 172.222 361.032 172.398 360.984C172.574 360.92 172.726 360.848 172.854 360.768ZM172.566 367.224C172.662 367.224 172.75 367.176 172.83 367.08V362.112C172.334 362.112 171.782 362.112 171.174 362.112C170.566 362.112 169.958 362.12 169.35 362.136C168.758 362.152 168.198 362.176 167.67 362.208C167.158 362.224 166.742 362.24 166.422 362.256C166.406 362.432 166.398 362.56 166.398 362.64C166.398 362.704 166.398 362.76 166.398 362.808V367.272C166.67 367.272 167.086 367.272 167.646 367.272C168.222 367.272 168.822 367.272 169.446 367.272C170.07 367.272 170.67 367.264 171.246 367.248C171.822 367.248 172.262 367.24 172.566 367.224ZM169.23 351.288C168.702 352.376 168.03 353.408 167.214 354.384C166.414 355.36 165.55 356.256 164.622 357.072C163.71 357.888 162.766 358.624 161.79 359.28C160.814 359.92 159.886 360.456 159.006 360.888C158.798 360.984 158.63 361.032 158.502 361.032C158.374 361.016 158.286 360.968 158.238 360.888C158.206 360.808 158.214 360.712 158.262 360.6C158.326 360.488 158.438 360.384 158.598 360.288C159.414 359.792 160.254 359.216 161.118 358.56C161.982 357.904 162.806 357.184 163.59 356.4C164.374 355.6 165.086 354.744 165.726 353.832C166.382 352.904 166.91 351.928 167.31 350.904C167.038 350.904 166.718 350.912 166.35 350.928C165.982 350.928 165.598 350.936 165.198 350.952C164.798 350.968 164.406 350.992 164.022 351.024C163.638 351.04 163.31 351.064 163.038 351.096C162.718 351.128 162.414 351.184 162.126 351.264C161.854 351.344 161.59 351.464 161.334 351.624C161.142 351.576 160.934 351.512 160.71 351.432C160.486 351.336 160.27 351.24 160.062 351.144C159.854 351.048 159.67 350.952 159.51 350.856C159.35 350.744 159.238 350.656 159.174 350.592C159.078 350.496 159.03 350.392 159.03 350.28C159.03 350.056 159.214 349.984 159.582 350.064C159.95 350.128 160.302 350.168 160.638 350.184C160.974 350.184 161.302 350.184 161.622 350.184C161.91 350.184 162.278 350.184 162.726 350.184C163.174 350.168 163.654 350.152 164.166 350.136C164.678 350.104 165.19 350.08 165.702 350.064C166.214 350.048 166.662 350.024 167.046 349.992C167.302 349.976 167.526 349.928 167.718 349.848C167.91 349.768 168.046 349.704 168.126 349.656C168.27 349.656 168.446 349.664 168.654 349.68C168.878 349.696 169.102 349.72 169.326 349.752C169.518 349.784 169.646 349.848 169.71 349.944C169.79 350.024 169.83 350.128 169.83 350.256C169.83 350.368 169.702 350.584 169.446 350.904C169.414 350.952 169.374 351.016 169.326 351.096C169.294 351.176 169.262 351.24 169.23 351.288ZM174.582 349.392V354.264C174.71 354.248 174.83 354.24 174.942 354.24C175.054 354.24 175.142 354.24 175.206 354.24C175.558 354.208 175.87 354.136 176.142 354.024C176.43 353.912 176.63 353.784 176.742 353.64C176.966 353.64 177.246 353.656 177.582 353.688C177.934 353.704 178.246 353.728 178.518 353.76C178.982 353.84 179.214 354.072 179.214 354.456C179.214 354.872 178.934 355.08 178.374 355.08C177.798 355.096 177.166 355.112 176.478 355.128C175.806 355.128 175.174 355.136 174.582 355.152V356.184C174.582 356.44 174.574 356.784 174.558 357.216C174.558 357.648 174.526 358.072 174.462 358.488C174.398 358.904 174.294 359.264 174.15 359.568C174.022 359.872 173.83 360.024 173.574 360.024C173.206 360.024 173.022 359.344 173.022 357.984V349.848C173.022 349.56 172.87 349.296 172.566 349.056C172.278 348.816 171.838 348.584 171.246 348.36C171.118 348.296 171.006 348.24 170.91 348.192C170.83 348.128 170.79 348.056 170.79 347.976C170.79 347.896 170.846 347.808 170.958 347.712C171.086 347.616 171.27 347.568 171.51 347.568C171.622 347.568 171.83 347.584 172.134 347.616C172.438 347.648 172.758 347.696 173.094 347.76C173.446 347.808 173.774 347.864 174.078 347.928C174.382 347.992 174.582 348.048 174.678 348.096L174.582 349.392ZM185.476 363.48C185.348 363.272 185.172 363.112 184.948 363C184.74 362.888 184.516 362.792 184.276 362.712C183.956 362.616 183.788 362.464 183.772 362.256C183.756 362.032 183.932 361.912 184.3 361.896C184.636 361.88 185.076 361.896 185.62 361.944C186.164 361.992 186.724 362.04 187.3 362.088C188.308 362.12 189.332 362.112 190.372 362.064C191.412 362.016 192.34 361.976 193.156 361.944C193.62 361.912 194.108 361.888 194.62 361.872C195.132 361.84 195.5 361.816 195.724 361.8C195.98 361.784 196.148 361.824 196.228 361.92C196.324 362 196.364 362.096 196.348 362.208C196.332 362.32 196.3 362.472 196.252 362.664C196.22 362.856 196.188 363.04 196.156 363.216C196.076 363.776 195.964 364.424 195.82 365.16C195.692 365.88 195.556 366.608 195.412 367.344C196.004 367.328 196.292 367.536 196.276 367.968C196.26 368.112 196.188 368.232 196.06 368.328C195.948 368.44 195.74 368.496 195.436 368.496C194.092 368.496 192.756 368.512 191.428 368.544C190.1 368.576 188.748 368.624 187.372 368.688C187.356 368.832 187.276 368.976 187.132 369.12C186.988 369.28 186.828 369.368 186.652 369.384C186.476 369.4 186.332 369.328 186.22 369.168C186.108 369.008 186.036 368.8 186.004 368.544L185.476 363.48ZM187.3 363.096C187.284 363.272 187.276 363.4 187.276 363.48C187.276 363.544 187.276 363.6 187.276 363.648L187.396 367.704C187.748 367.704 188.204 367.696 188.764 367.68C189.34 367.68 189.94 367.664 190.564 367.632C191.204 367.616 191.844 367.592 192.484 367.56C193.124 367.528 193.7 367.48 194.212 367.416L194.332 362.952C193.82 362.936 193.244 362.936 192.604 362.952C191.98 362.952 191.348 362.96 190.708 362.976C190.068 362.976 189.444 362.992 188.836 363.024C188.244 363.04 187.732 363.064 187.3 363.096ZM196.252 358.44C196.364 358.44 196.508 358.432 196.684 358.416C196.86 358.384 197.036 358.352 197.212 358.32C197.388 358.272 197.556 358.224 197.716 358.176C197.876 358.112 198.004 358.04 198.1 357.96C198.372 357.944 198.7 357.96 199.084 358.008C199.468 358.04 199.772 358.08 199.996 358.128C200.252 358.176 200.476 358.264 200.668 358.392C200.876 358.504 200.964 358.696 200.932 358.968C200.9 359.24 200.748 359.432 200.476 359.544C200.204 359.64 199.868 359.672 199.468 359.64C199.26 359.624 199.004 359.608 198.7 359.592C198.396 359.576 198.076 359.568 197.74 359.568C197.42 359.552 197.092 359.544 196.756 359.544C196.436 359.528 196.156 359.52 195.916 359.52C195.404 359.52 194.812 359.52 194.14 359.52C193.484 359.52 192.788 359.528 192.052 359.544C191.332 359.544 190.604 359.552 189.868 359.568C189.132 359.584 188.436 359.6 187.78 359.616C187.124 359.632 186.54 359.656 186.028 359.688C185.516 359.704 185.116 359.728 184.828 359.76C184.428 359.792 184.044 359.872 183.676 360C183.308 360.112 183.044 360.208 182.884 360.288C182.708 360.24 182.508 360.168 182.284 360.072C182.06 359.976 181.836 359.872 181.612 359.76C181.388 359.648 181.18 359.536 180.988 359.424C180.796 359.296 180.66 359.184 180.58 359.088C180.388 358.88 180.348 358.712 180.46 358.584C180.588 358.456 180.74 358.408 180.916 358.44C181.012 358.456 181.156 358.48 181.348 358.512C181.54 358.528 181.74 358.544 181.948 358.56C182.172 358.576 182.38 358.592 182.572 358.608C182.78 358.624 182.932 358.632 183.028 358.632C185.364 358.664 187.604 358.672 189.748 358.656C191.892 358.64 194.06 358.568 196.252 358.44ZM187.012 352.56C187.012 353.008 187.1 353.416 187.276 353.784C187.468 354.136 187.724 354.44 188.044 354.696C188.364 354.936 188.74 355.12 189.172 355.248C189.62 355.376 190.108 355.44 190.636 355.44C191.164 355.44 191.644 355.376 192.076 355.248C192.524 355.12 192.908 354.936 193.228 354.696C193.564 354.44 193.82 354.136 193.996 353.784C194.188 353.416 194.284 353.008 194.284 352.56C194.284 352.112 194.188 351.712 193.996 351.36C193.82 350.992 193.564 350.68 193.228 350.424C192.908 350.168 192.524 349.976 192.076 349.848C191.644 349.72 191.164 349.656 190.636 349.656C190.108 349.656 189.62 349.72 189.172 349.848C188.74 349.976 188.364 350.168 188.044 350.424C187.724 350.68 187.468 350.992 187.276 351.36C187.1 351.712 187.012 352.112 187.012 352.56ZM185.332 352.536C185.332 351.944 185.46 351.408 185.716 350.928C185.972 350.448 186.332 350.032 186.796 349.68C187.276 349.328 187.836 349.056 188.476 348.864C189.116 348.672 189.82 348.576 190.588 348.576C191.356 348.576 192.06 348.672 192.7 348.864C193.356 349.056 193.916 349.328 194.38 349.68C194.86 350.032 195.228 350.448 195.484 350.928C195.756 351.408 195.892 351.944 195.892 352.536C195.892 353.112 195.756 353.648 195.484 354.144C195.228 354.624 194.86 355.04 194.38 355.392C193.916 355.728 193.356 355.992 192.7 356.184C192.06 356.376 191.356 356.472 190.588 356.472C189.82 356.472 189.116 356.376 188.476 356.184C187.836 355.992 187.276 355.728 186.796 355.392C186.332 355.04 185.972 354.624 185.716 354.144C185.46 353.648 185.332 353.112 185.332 352.536ZM205.226 358.584C205.034 358.632 204.874 358.632 204.746 358.584C204.618 358.536 204.522 358.464 204.458 358.368C204.41 358.272 204.402 358.176 204.434 358.08C204.482 357.984 204.594 357.912 204.77 357.864C207.298 357.096 209.482 356.208 211.322 355.2C213.178 354.192 214.706 353.176 215.906 352.152C215.602 352.152 215.17 352.16 214.61 352.176C214.066 352.176 213.49 352.184 212.882 352.2C212.29 352.216 211.714 352.24 211.154 352.272C210.594 352.288 210.162 352.312 209.858 352.344C209.49 352.376 209.154 352.448 208.85 352.56C208.546 352.656 208.25 352.784 207.962 352.944C207.738 352.896 207.506 352.824 207.266 352.728C207.026 352.616 206.794 352.504 206.57 352.392C206.362 352.28 206.17 352.176 205.994 352.08C205.834 351.968 205.714 351.88 205.634 351.816C205.538 351.72 205.49 351.616 205.49 351.504C205.49 351.28 205.698 351.208 206.114 351.288C206.53 351.352 206.93 351.392 207.314 351.408C207.698 351.408 208.074 351.408 208.442 351.408C208.762 351.408 209.218 351.408 209.81 351.408C210.418 351.392 211.066 351.384 211.754 351.384C212.442 351.368 213.114 351.352 213.77 351.336C214.442 351.32 215.002 351.296 215.45 351.264C215.738 351.248 215.994 351.2 216.218 351.12C216.458 351.04 216.618 350.976 216.698 350.928C216.858 350.928 217.09 350.944 217.394 350.976C217.698 350.992 217.978 351.016 218.234 351.048C218.458 351.08 218.61 351.144 218.69 351.24C218.77 351.32 218.81 351.424 218.81 351.552C218.81 351.616 218.77 351.712 218.69 351.84C218.61 351.968 218.498 352.088 218.354 352.2C218.274 352.28 218.186 352.352 218.09 352.416C217.994 352.48 217.93 352.528 217.898 352.56C217.338 353.056 216.73 353.528 216.074 353.976C215.434 354.408 214.738 354.832 213.986 355.248C214.162 355.312 214.354 355.376 214.562 355.44C214.77 355.504 214.978 355.568 215.186 355.632C215.394 355.68 215.586 355.728 215.762 355.776C215.954 355.808 216.106 355.832 216.218 355.848C216.346 355.896 216.506 355.912 216.698 355.896C216.89 355.88 217.05 355.856 217.178 355.824C217.354 355.76 217.49 355.736 217.586 355.752C217.682 355.752 217.794 355.768 217.922 355.8C218.098 355.848 218.298 355.92 218.522 356.016C218.746 356.112 218.97 356.216 219.194 356.328C219.418 356.424 219.618 356.528 219.794 356.64C219.986 356.736 220.138 356.816 220.25 356.88C220.522 357.056 220.73 357.24 220.874 357.432C220.97 357.56 221.002 357.688 220.97 357.816C220.954 357.928 220.882 358.016 220.754 358.08C220.658 358.128 220.506 358.152 220.298 358.152C220.106 358.136 219.826 358.064 219.458 357.936L212.882 355.824C211.698 356.4 210.458 356.928 209.162 357.408C207.866 357.872 206.554 358.264 205.226 358.584ZM211.85 360.84C211.13 360.872 210.418 360.904 209.714 360.936C209.01 360.968 208.298 361 207.578 361.032C207.258 361.064 206.93 361.128 206.594 361.224C206.274 361.304 205.97 361.432 205.682 361.608C205.458 361.592 205.218 361.552 204.962 361.488C204.706 361.408 204.45 361.32 204.194 361.224C203.938 361.112 203.69 361 203.45 360.888C203.226 360.76 203.026 360.632 202.85 360.504C202.738 360.424 202.65 360.336 202.586 360.24C202.538 360.128 202.514 360.032 202.514 359.952C202.514 359.712 202.77 359.632 203.282 359.712C203.746 359.792 204.242 359.856 204.77 359.904C205.298 359.936 205.85 359.952 206.426 359.952C208.474 359.952 210.386 359.936 212.162 359.904C213.954 359.856 215.658 359.792 217.274 359.712C217.882 359.68 218.37 359.624 218.738 359.544C219.106 359.448 219.434 359.312 219.722 359.136C220.042 359.152 220.402 359.184 220.802 359.232C221.218 359.28 221.61 359.344 221.978 359.424C222.586 359.552 222.89 359.8 222.89 360.168C222.89 360.664 222.586 360.912 221.978 360.912C221.818 360.912 221.554 360.904 221.186 360.888C220.834 360.856 220.402 360.816 219.89 360.768C219.682 360.752 219.33 360.744 218.834 360.744C218.338 360.728 217.738 360.72 217.034 360.72C216.442 360.736 215.85 360.752 215.258 360.768C214.666 360.768 214.074 360.776 213.482 360.792V364.776C213.482 365.064 213.474 365.464 213.458 365.976C213.458 366.472 213.418 366.96 213.338 367.44C213.274 367.92 213.17 368.336 213.026 368.688C212.882 369.04 212.674 369.216 212.402 369.216C212.034 369.216 211.85 368.312 211.85 366.504V360.84ZM215.69 349.104C215.69 349.36 215.586 349.544 215.378 349.656C215.17 349.768 214.93 349.816 214.658 349.8C214.466 349.8 214.21 349.8 213.89 349.8C213.586 349.784 213.266 349.784 212.93 349.8C212.594 349.8 212.258 349.808 211.922 349.824C211.602 349.84 211.322 349.872 211.082 349.92C210.586 349.76 210.178 349.576 209.858 349.368C209.554 349.16 209.274 348.92 209.018 348.648C208.954 348.584 208.914 348.512 208.898 348.432C208.882 348.352 208.89 348.28 208.922 348.216C208.97 348.136 209.034 348.08 209.114 348.048C209.194 348.016 209.306 348.024 209.45 348.072C209.562 348.104 209.77 348.16 210.074 348.24C210.394 348.304 210.674 348.352 210.914 348.384C211.122 348.416 211.378 348.44 211.682 348.456C212.002 348.472 212.33 348.488 212.666 348.504C213.018 348.504 213.37 348.512 213.722 348.528C214.074 348.528 214.394 348.528 214.682 348.528C215.002 348.544 215.25 348.584 215.426 348.648C215.602 348.712 215.69 348.864 215.69 349.104Z" fill="#DE5757"/>
<path d="M120.567 392.53C120.492 392.409 120.39 392.315 120.259 392.25C120.138 392.185 120.007 392.129 119.867 392.082C119.68 392.026 119.582 391.937 119.573 391.816C119.564 391.685 119.666 391.615 119.881 391.606C120.077 391.597 120.334 391.606 120.651 391.634C120.968 391.662 121.295 391.69 121.631 391.718C122.219 391.737 122.816 391.732 123.423 391.704C124.03 391.676 124.571 391.653 125.047 391.634C125.318 391.615 125.602 391.601 125.901 391.592C126.2 391.573 126.414 391.559 126.545 391.55C126.694 391.541 126.792 391.564 126.839 391.62C126.895 391.667 126.918 391.723 126.909 391.788C126.9 391.853 126.881 391.942 126.853 392.054C126.834 392.166 126.816 392.273 126.797 392.376C126.75 392.703 126.685 393.081 126.601 393.51C126.526 393.93 126.447 394.355 126.363 394.784C126.708 394.775 126.876 394.896 126.867 395.148C126.858 395.232 126.816 395.302 126.741 395.358C126.676 395.423 126.554 395.456 126.377 395.456C125.593 395.456 124.814 395.465 124.039 395.484C123.264 395.503 122.476 395.531 121.673 395.568C121.664 395.652 121.617 395.736 121.533 395.82C121.449 395.913 121.356 395.965 121.253 395.974C121.15 395.983 121.066 395.941 121.001 395.848C120.936 395.755 120.894 395.633 120.875 395.484L120.567 392.53ZM121.631 392.306C121.622 392.409 121.617 392.483 121.617 392.53C121.617 392.567 121.617 392.6 121.617 392.628L121.687 394.994C121.892 394.994 122.158 394.989 122.485 394.98C122.821 394.98 123.171 394.971 123.535 394.952C123.908 394.943 124.282 394.929 124.655 394.91C125.028 394.891 125.364 394.863 125.663 394.826L125.733 392.222C125.434 392.213 125.098 392.213 124.725 392.222C124.361 392.222 123.992 392.227 123.619 392.236C123.246 392.236 122.882 392.245 122.527 392.264C122.182 392.273 121.883 392.287 121.631 392.306ZM126.853 389.59C126.918 389.59 127.002 389.585 127.105 389.576C127.208 389.557 127.31 389.539 127.413 389.52C127.516 389.492 127.614 389.464 127.707 389.436C127.8 389.399 127.875 389.357 127.931 389.31C128.09 389.301 128.281 389.31 128.505 389.338C128.729 389.357 128.906 389.38 129.037 389.408C129.186 389.436 129.317 389.487 129.429 389.562C129.55 389.627 129.602 389.739 129.583 389.898C129.564 390.057 129.476 390.169 129.317 390.234C129.158 390.29 128.962 390.309 128.729 390.29C128.608 390.281 128.458 390.271 128.281 390.262C128.104 390.253 127.917 390.248 127.721 390.248C127.534 390.239 127.343 390.234 127.147 390.234C126.96 390.225 126.797 390.22 126.657 390.22C126.358 390.22 126.013 390.22 125.621 390.22C125.238 390.22 124.832 390.225 124.403 390.234C123.983 390.234 123.558 390.239 123.129 390.248C122.7 390.257 122.294 390.267 121.911 390.276C121.528 390.285 121.188 390.299 120.889 390.318C120.59 390.327 120.357 390.341 120.189 390.36C119.956 390.379 119.732 390.425 119.517 390.5C119.302 390.565 119.148 390.621 119.055 390.668C118.952 390.64 118.836 390.598 118.705 390.542C118.574 390.486 118.444 390.425 118.313 390.36C118.182 390.295 118.061 390.229 117.949 390.164C117.837 390.089 117.758 390.024 117.711 389.968C117.599 389.847 117.576 389.749 117.641 389.674C117.716 389.599 117.804 389.571 117.907 389.59C117.963 389.599 118.047 389.613 118.159 389.632C118.271 389.641 118.388 389.651 118.509 389.66C118.64 389.669 118.761 389.679 118.873 389.688C118.994 389.697 119.083 389.702 119.139 389.702C120.502 389.721 121.808 389.725 123.059 389.716C124.31 389.707 125.574 389.665 126.853 389.59ZM121.463 386.16C121.463 386.421 121.514 386.659 121.617 386.874C121.729 387.079 121.878 387.257 122.065 387.406C122.252 387.546 122.471 387.653 122.723 387.728C122.984 387.803 123.269 387.84 123.577 387.84C123.885 387.84 124.165 387.803 124.417 387.728C124.678 387.653 124.902 387.546 125.089 387.406C125.285 387.257 125.434 387.079 125.537 386.874C125.649 386.659 125.705 386.421 125.705 386.16C125.705 385.899 125.649 385.665 125.537 385.46C125.434 385.245 125.285 385.063 125.089 384.914C124.902 384.765 124.678 384.653 124.417 384.578C124.165 384.503 123.885 384.466 123.577 384.466C123.269 384.466 122.984 384.503 122.723 384.578C122.471 384.653 122.252 384.765 122.065 384.914C121.878 385.063 121.729 385.245 121.617 385.46C121.514 385.665 121.463 385.899 121.463 386.16ZM120.483 386.146C120.483 385.801 120.558 385.488 120.707 385.208C120.856 384.928 121.066 384.685 121.337 384.48C121.617 384.275 121.944 384.116 122.317 384.004C122.69 383.892 123.101 383.836 123.549 383.836C123.997 383.836 124.408 383.892 124.781 384.004C125.164 384.116 125.49 384.275 125.761 384.48C126.041 384.685 126.256 384.928 126.405 385.208C126.564 385.488 126.643 385.801 126.643 386.146C126.643 386.482 126.564 386.795 126.405 387.084C126.256 387.364 126.041 387.607 125.761 387.812C125.49 388.008 125.164 388.162 124.781 388.274C124.408 388.386 123.997 388.442 123.549 388.442C123.101 388.442 122.69 388.386 122.317 388.274C121.944 388.162 121.617 388.008 121.337 387.812C121.066 387.607 120.856 387.364 120.707 387.084C120.558 386.795 120.483 386.482 120.483 386.146ZM137.072 387.294C137.072 387.695 136.993 388.064 136.834 388.4C136.675 388.727 136.461 389.007 136.19 389.24C135.919 389.473 135.602 389.655 135.238 389.786C134.883 389.917 134.505 389.982 134.104 389.982C133.703 389.982 133.32 389.917 132.956 389.786C132.601 389.655 132.289 389.473 132.018 389.24C131.747 388.997 131.533 388.713 131.374 388.386C131.215 388.059 131.136 387.695 131.136 387.294C131.136 386.893 131.215 386.529 131.374 386.202C131.533 385.875 131.747 385.595 132.018 385.362C132.289 385.129 132.601 384.947 132.956 384.816C133.32 384.685 133.703 384.62 134.104 384.62C134.505 384.62 134.883 384.685 135.238 384.816C135.602 384.947 135.919 385.129 136.19 385.362C136.461 385.595 136.675 385.875 136.834 386.202C136.993 386.529 137.072 386.893 137.072 387.294ZM136.092 387.308C136.092 387.019 136.041 386.753 135.938 386.51C135.835 386.267 135.695 386.062 135.518 385.894C135.341 385.717 135.131 385.581 134.888 385.488C134.645 385.395 134.384 385.348 134.104 385.348C133.824 385.348 133.563 385.395 133.32 385.488C133.077 385.581 132.867 385.717 132.69 385.894C132.513 386.062 132.373 386.267 132.27 386.51C132.167 386.753 132.116 387.019 132.116 387.308C132.116 387.597 132.167 387.863 132.27 388.106C132.373 388.339 132.513 388.545 132.69 388.722C132.867 388.89 133.077 389.025 133.32 389.128C133.563 389.221 133.824 389.268 134.104 389.268C134.384 389.268 134.645 389.221 134.888 389.128C135.131 389.025 135.341 388.89 135.518 388.722C135.695 388.545 135.835 388.335 135.938 388.092C136.041 387.849 136.092 387.588 136.092 387.308ZM139.97 384.312V386.93C140.045 386.921 140.115 386.916 140.18 386.916C140.245 386.916 140.297 386.916 140.334 386.916C140.539 386.897 140.721 386.855 140.88 386.79C141.048 386.725 141.165 386.65 141.23 386.566C141.361 386.566 141.524 386.575 141.72 386.594C141.925 386.603 142.107 386.617 142.266 386.636C142.537 386.683 142.672 386.818 142.672 387.042C142.672 387.285 142.509 387.406 142.182 387.406C141.846 387.415 141.477 387.425 141.076 387.434C140.684 387.434 140.315 387.439 139.97 387.448V388.582C139.97 388.731 139.965 388.932 139.956 389.184C139.956 389.436 139.937 389.683 139.9 389.926C139.863 390.169 139.802 390.379 139.718 390.556C139.643 390.733 139.531 390.822 139.382 390.822C139.167 390.822 139.06 390.425 139.06 389.632V384.578C139.06 384.41 138.971 384.256 138.794 384.116C138.626 383.976 138.369 383.841 138.024 383.71C137.949 383.673 137.884 383.64 137.828 383.612C137.781 383.575 137.758 383.533 137.758 383.486C137.758 383.439 137.791 383.388 137.856 383.332C137.931 383.276 138.038 383.248 138.178 383.248C138.243 383.248 138.365 383.257 138.542 383.276C138.719 383.295 138.906 383.323 139.102 383.36C139.307 383.388 139.499 383.421 139.676 383.458C139.853 383.495 139.97 383.528 140.026 383.556L139.97 384.312ZM138.136 391.536C138.304 391.527 138.467 391.503 138.626 391.466C138.794 391.419 138.901 391.377 138.948 391.34C139.079 391.331 139.223 391.331 139.382 391.34C139.541 391.349 139.671 391.363 139.774 391.382C139.942 391.41 140.026 391.466 140.026 391.55C140.035 391.625 140.035 391.699 140.026 391.774C140.007 391.933 139.979 392.087 139.942 392.236C139.914 392.385 139.895 392.535 139.886 392.684C139.867 392.992 139.858 393.3 139.858 393.608C139.858 393.907 139.849 394.21 139.83 394.518C139.83 394.621 139.816 394.77 139.788 394.966C139.769 395.162 139.737 395.353 139.69 395.54C139.653 395.736 139.597 395.904 139.522 396.044C139.447 396.193 139.354 396.268 139.242 396.268C139.121 396.268 139.032 396.137 138.976 395.876C138.929 395.624 138.906 395.19 138.906 394.574V392.04C138.747 392.04 138.523 392.045 138.234 392.054C137.954 392.054 137.655 392.063 137.338 392.082C137.021 392.091 136.713 392.105 136.414 392.124C136.115 392.133 135.877 392.147 135.7 392.166C135.317 392.203 134.963 392.32 134.636 392.516C134.505 392.488 134.37 392.446 134.23 392.39C134.09 392.334 133.955 392.273 133.824 392.208C133.703 392.143 133.591 392.082 133.488 392.026C133.385 391.961 133.315 391.909 133.278 391.872C133.213 391.816 133.18 391.755 133.18 391.69C133.18 391.559 133.297 391.517 133.53 391.564C133.754 391.601 133.973 391.625 134.188 391.634C134.403 391.634 134.613 391.634 134.818 391.634C134.995 391.634 135.224 391.634 135.504 391.634C135.784 391.625 136.083 391.615 136.4 391.606C136.717 391.597 137.03 391.587 137.338 391.578C137.646 391.569 137.912 391.555 138.136 391.536ZM150.739 387.154C150.739 387.378 150.664 387.569 150.515 387.728C150.365 387.877 150.188 387.952 149.983 387.952C149.777 387.952 149.6 387.877 149.451 387.728C149.301 387.569 149.227 387.378 149.227 387.154C149.227 386.921 149.301 386.725 149.451 386.566C149.6 386.407 149.777 386.328 149.983 386.328C150.188 386.328 150.365 386.407 150.515 386.566C150.664 386.725 150.739 386.921 150.739 387.154ZM150.739 392.404C150.739 392.637 150.664 392.833 150.515 392.992C150.365 393.151 150.188 393.23 149.983 393.23C149.777 393.23 149.6 393.151 149.451 392.992C149.301 392.833 149.227 392.637 149.227 392.404C149.227 392.18 149.301 391.989 149.451 391.83C149.6 391.671 149.777 391.592 149.983 391.592C150.188 391.592 150.365 391.671 150.515 391.83C150.664 391.989 150.739 392.18 150.739 392.404ZM159.324 386.804C159.324 387.084 159.375 387.336 159.478 387.56C159.581 387.775 159.721 387.961 159.898 388.12C160.085 388.269 160.299 388.386 160.542 388.47C160.785 388.554 161.051 388.596 161.34 388.596C161.629 388.596 161.895 388.554 162.138 388.47C162.39 388.386 162.605 388.269 162.782 388.12C162.969 387.961 163.113 387.775 163.216 387.56C163.319 387.336 163.37 387.084 163.37 386.804C163.37 386.524 163.319 386.272 163.216 386.048C163.113 385.824 162.969 385.633 162.782 385.474C162.605 385.315 162.39 385.194 162.138 385.11C161.895 385.026 161.629 384.984 161.34 384.984C161.051 384.984 160.785 385.026 160.542 385.11C160.299 385.194 160.085 385.315 159.898 385.474C159.721 385.633 159.581 385.824 159.478 386.048C159.375 386.272 159.324 386.524 159.324 386.804ZM158.316 386.804C158.316 386.468 158.386 386.151 158.526 385.852C158.666 385.544 158.867 385.278 159.128 385.054C159.389 384.83 159.707 384.653 160.08 384.522C160.453 384.391 160.869 384.326 161.326 384.326C161.774 384.326 162.185 384.391 162.558 384.522C162.931 384.653 163.249 384.83 163.51 385.054C163.771 385.278 163.972 385.544 164.112 385.852C164.261 386.151 164.336 386.468 164.336 386.804C164.336 387.14 164.261 387.462 164.112 387.77C163.972 388.078 163.771 388.349 163.51 388.582C163.249 388.815 162.931 389.002 162.558 389.142C162.185 389.282 161.774 389.352 161.326 389.352C160.869 389.352 160.453 389.282 160.08 389.142C159.707 389.002 159.389 388.815 159.128 388.582C158.867 388.349 158.666 388.078 158.526 387.77C158.386 387.462 158.316 387.14 158.316 386.804ZM167.878 384.312V387.672C167.878 387.821 167.873 388.022 167.864 388.274C167.864 388.526 167.845 388.773 167.808 389.016C167.771 389.259 167.71 389.469 167.626 389.646C167.551 389.823 167.439 389.912 167.29 389.912C167.075 389.912 166.968 389.515 166.968 388.722V384.578C166.968 384.41 166.879 384.256 166.702 384.116C166.534 383.976 166.277 383.841 165.932 383.71C165.857 383.673 165.792 383.64 165.736 383.612C165.689 383.575 165.666 383.533 165.666 383.486C165.666 383.439 165.699 383.388 165.764 383.332C165.839 383.276 165.946 383.248 166.086 383.248C166.151 383.248 166.273 383.257 166.45 383.276C166.627 383.295 166.814 383.323 167.01 383.36C167.215 383.388 167.407 383.421 167.584 383.458C167.761 383.495 167.878 383.528 167.934 383.556L167.878 384.312ZM167.542 392.586C167.719 392.623 167.841 392.67 167.906 392.726C167.971 392.782 168.004 392.852 168.004 392.936C168.004 393.151 167.836 393.263 167.5 393.272L163.062 393.37V394.812C163.062 395.045 163.183 395.162 163.426 395.162L166.226 395.148C166.487 395.148 166.707 395.111 166.884 395.036C167.071 394.961 167.206 394.887 167.29 394.812C167.533 394.812 167.761 394.821 167.976 394.84C168.191 394.868 168.377 394.901 168.536 394.938C168.779 395.013 168.9 395.143 168.9 395.33C168.9 395.563 168.732 395.68 168.396 395.68L163.216 395.694C162.488 395.694 162.124 395.335 162.124 394.616V393.552C161.993 393.337 161.737 393.183 161.354 393.09C161.177 393.053 161.088 392.987 161.088 392.894C161.088 392.829 161.121 392.773 161.186 392.726C161.261 392.679 161.373 392.656 161.522 392.656C161.858 392.656 162.129 392.665 162.334 392.684C162.549 392.703 162.773 392.763 163.006 392.866C163.603 392.847 164.21 392.833 164.826 392.824C165.451 392.805 166.058 392.787 166.646 392.768C166.702 392.768 166.753 392.74 166.8 392.684V391.004C166.623 391.004 166.399 391.009 166.128 391.018C165.867 391.018 165.591 391.023 165.302 391.032C165.022 391.041 164.747 391.055 164.476 391.074C164.205 391.083 163.981 391.097 163.804 391.116C163.589 391.135 163.393 391.177 163.216 391.242C163.039 391.298 162.866 391.373 162.698 391.466C162.567 391.438 162.432 391.396 162.292 391.34C162.152 391.275 162.017 391.209 161.886 391.144C161.765 391.079 161.653 391.018 161.55 390.962C161.457 390.897 161.387 390.845 161.34 390.808C161.284 390.752 161.256 390.691 161.256 390.626C161.256 390.495 161.377 390.453 161.62 390.5C161.863 390.537 162.096 390.561 162.32 390.57C162.544 390.57 162.763 390.57 162.978 390.57C163.165 390.57 163.379 390.57 163.622 390.57C163.865 390.57 164.121 390.57 164.392 390.57C164.672 390.561 164.952 390.556 165.232 390.556C165.512 390.547 165.783 390.533 166.044 390.514C166.212 390.505 166.375 390.477 166.534 390.43C166.702 390.383 166.809 390.341 166.856 390.304C166.987 390.295 167.127 390.295 167.276 390.304C167.425 390.313 167.551 390.327 167.654 390.346C167.822 390.374 167.911 390.425 167.92 390.5C167.929 390.575 167.925 390.649 167.906 390.724C167.887 390.855 167.859 390.971 167.822 391.074C167.794 391.177 167.761 391.307 167.724 391.466L167.542 392.586ZM180.673 384.312V392.46C180.673 392.581 180.673 392.745 180.673 392.95C180.673 393.155 180.668 393.379 180.659 393.622C180.65 393.865 180.631 394.107 180.603 394.35C180.575 394.602 180.538 394.826 180.491 395.022C180.454 395.227 180.398 395.391 180.323 395.512C180.258 395.643 180.174 395.708 180.071 395.708C179.866 395.708 179.763 395.129 179.763 393.972V384.578C179.763 384.41 179.674 384.256 179.497 384.116C179.329 383.976 179.072 383.841 178.727 383.71C178.652 383.673 178.587 383.64 178.531 383.612C178.484 383.575 178.461 383.533 178.461 383.486C178.461 383.439 178.494 383.388 178.559 383.332C178.634 383.276 178.741 383.248 178.881 383.248C178.946 383.248 179.068 383.257 179.245 383.276C179.422 383.295 179.609 383.323 179.805 383.36C180.01 383.388 180.202 383.421 180.379 383.458C180.556 383.495 180.673 383.528 180.729 383.556L180.673 384.312ZM176.011 385.53C176.16 385.521 176.291 385.493 176.403 385.446C176.515 385.399 176.594 385.362 176.641 385.334C176.725 385.334 176.828 385.339 176.949 385.348C177.08 385.357 177.21 385.371 177.341 385.39C177.453 385.409 177.528 385.446 177.565 385.502C177.612 385.549 177.635 385.609 177.635 385.684C177.635 385.749 177.56 385.875 177.411 386.062C177.43 386.043 177.416 386.071 177.369 386.146C177.322 386.221 177.294 386.267 177.285 386.286C176.641 387.695 175.862 388.927 174.947 389.982C174.042 391.027 172.95 391.961 171.671 392.782C171.606 392.819 171.54 392.833 171.475 392.824C171.419 392.805 171.372 392.777 171.335 392.74C171.298 392.693 171.279 392.642 171.279 392.586C171.279 392.53 171.312 392.474 171.377 392.418C171.918 392.017 172.432 391.569 172.917 391.074C173.402 390.579 173.85 390.061 174.261 389.52C174.672 388.969 175.036 388.4 175.353 387.812C175.68 387.224 175.95 386.636 176.165 386.048C176.006 386.048 175.82 386.053 175.605 386.062C175.39 386.062 175.166 386.067 174.933 386.076C174.709 386.085 174.485 386.099 174.261 386.118C174.046 386.127 173.86 386.141 173.701 386.16C173.514 386.179 173.337 386.211 173.169 386.258C173.01 386.305 172.856 386.375 172.707 386.468C172.595 386.44 172.474 386.403 172.343 386.356C172.212 386.3 172.086 386.244 171.965 386.188C171.844 386.132 171.736 386.076 171.643 386.02C171.55 385.964 171.484 385.917 171.447 385.88C171.391 385.824 171.363 385.763 171.363 385.698C171.363 385.567 171.47 385.525 171.685 385.572C171.9 385.609 172.105 385.633 172.301 385.642C172.497 385.642 172.688 385.642 172.875 385.642C173.043 385.642 173.258 385.642 173.519 385.642C173.78 385.633 174.056 385.623 174.345 385.614C174.644 385.595 174.938 385.581 175.227 385.572C175.526 385.563 175.787 385.549 176.011 385.53ZM183.584 388.778C183.584 388.395 183.649 388.036 183.78 387.7C183.92 387.364 184.116 387.07 184.368 386.818C184.62 386.566 184.918 386.37 185.264 386.23C185.618 386.081 186.01 386.006 186.44 386.006C186.813 386.006 187.158 386.062 187.476 386.174C187.793 386.286 188.073 386.445 188.316 386.65C188.558 386.855 188.759 387.098 188.918 387.378C189.076 387.649 189.184 387.943 189.24 388.26C189.473 388.269 189.716 388.274 189.968 388.274C190.229 388.265 190.495 388.255 190.766 388.246V385.474C190.766 385.343 190.733 385.231 190.668 385.138C190.612 385.035 190.532 384.951 190.43 384.886C190.336 384.811 190.224 384.751 190.094 384.704C189.972 384.648 189.846 384.597 189.716 384.55C189.548 384.485 189.464 384.41 189.464 384.326C189.464 384.27 189.496 384.214 189.562 384.158C189.627 384.102 189.725 384.074 189.856 384.074C189.921 384.074 190.042 384.088 190.22 384.116C190.397 384.135 190.588 384.158 190.794 384.186C190.999 384.214 191.19 384.247 191.368 384.284C191.545 384.321 191.662 384.354 191.718 384.382L191.662 385.124V391.62C191.662 391.741 191.662 391.905 191.662 392.11C191.662 392.315 191.657 392.539 191.648 392.782C191.638 393.025 191.62 393.272 191.592 393.524C191.573 393.767 191.54 393.986 191.494 394.182C191.447 394.387 191.391 394.551 191.326 394.672C191.26 394.803 191.176 394.868 191.074 394.868C190.868 394.868 190.766 394.289 190.766 393.132V388.792C190.691 388.801 190.621 388.811 190.556 388.82C190.5 388.829 190.448 388.839 190.402 388.848C190.299 388.876 190.21 388.904 190.136 388.932C190.061 388.951 189.972 388.997 189.87 389.072C189.776 389.053 189.683 389.03 189.59 389.002C189.496 388.974 189.398 388.941 189.296 388.904C189.277 389.277 189.193 389.623 189.044 389.94C188.904 390.257 188.708 390.533 188.456 390.766C188.204 390.999 187.905 391.186 187.56 391.326C187.224 391.457 186.85 391.522 186.44 391.522C186.01 391.522 185.618 391.452 185.264 391.312C184.918 391.172 184.62 390.981 184.368 390.738C184.116 390.486 183.92 390.192 183.78 389.856C183.649 389.52 183.584 389.161 183.584 388.778ZM184.606 388.722C184.606 389.039 184.652 389.324 184.746 389.576C184.839 389.828 184.97 390.047 185.138 390.234C185.306 390.411 185.502 390.551 185.726 390.654C185.95 390.747 186.192 390.794 186.454 390.794C186.715 390.794 186.958 390.747 187.182 390.654C187.415 390.551 187.616 390.411 187.784 390.234C187.952 390.047 188.082 389.828 188.176 389.576C188.269 389.324 188.316 389.039 188.316 388.722C188.316 388.414 188.269 388.134 188.176 387.882C188.082 387.621 187.952 387.401 187.784 387.224C187.616 387.037 187.415 386.897 187.182 386.804C186.958 386.701 186.715 386.65 186.454 386.65C186.192 386.65 185.95 386.701 185.726 386.804C185.502 386.897 185.306 387.037 185.138 387.224C184.97 387.401 184.839 387.621 184.746 387.882C184.652 388.134 184.606 388.414 184.606 388.722ZM194.014 384.312V392.46C194.014 392.581 194.014 392.745 194.014 392.95C194.014 393.155 194.009 393.379 194 393.622C193.99 393.865 193.972 394.107 193.944 394.35C193.916 394.602 193.878 394.826 193.832 395.022C193.794 395.227 193.738 395.391 193.664 395.512C193.598 395.643 193.514 395.708 193.412 395.708C193.206 395.708 193.104 395.129 193.104 393.972V384.578C193.104 384.41 193.015 384.256 192.838 384.116C192.67 383.976 192.413 383.841 192.068 383.71C191.993 383.673 191.928 383.64 191.872 383.612C191.825 383.575 191.802 383.533 191.802 383.486C191.802 383.439 191.834 383.388 191.9 383.332C191.974 383.276 192.082 383.248 192.222 383.248C192.287 383.248 192.408 383.257 192.586 383.276C192.763 383.295 192.95 383.323 193.146 383.36C193.351 383.388 193.542 383.421 193.72 383.458C193.897 383.495 194.014 383.528 194.07 383.556L194.014 384.312ZM202.991 395.722C202.916 395.75 202.841 395.755 202.767 395.736C202.701 395.727 202.65 395.703 202.613 395.666C202.575 395.638 202.561 395.596 202.571 395.54C202.58 395.484 202.631 395.428 202.725 395.372C203.21 395.083 203.658 394.775 204.069 394.448C204.489 394.121 204.862 393.795 205.189 393.468C205.525 393.141 205.814 392.824 206.057 392.516C206.299 392.208 206.486 391.928 206.617 391.676C206.663 391.601 206.687 391.536 206.687 391.48C206.696 391.405 206.626 391.312 206.477 391.2C206.327 391.079 206.117 390.957 205.847 390.836C205.772 390.799 205.716 390.752 205.679 390.696C205.641 390.631 205.632 390.575 205.651 390.528C205.669 390.481 205.711 390.439 205.777 390.402C205.851 390.355 205.954 390.341 206.085 390.36C206.206 390.379 206.365 390.421 206.561 390.486C206.757 390.551 206.953 390.626 207.149 390.71C207.354 390.785 207.541 390.869 207.709 390.962C207.886 391.046 208.012 391.125 208.087 391.2C208.059 391.349 207.998 391.494 207.905 391.634C207.821 391.765 207.732 391.895 207.639 392.026C207.555 392.147 207.461 392.273 207.359 392.404C207.461 392.479 207.583 392.567 207.723 392.67C207.872 392.773 208.017 392.88 208.157 392.992C208.306 393.095 208.441 393.193 208.563 393.286C208.693 393.37 208.791 393.431 208.857 393.468C208.931 393.515 209.025 393.552 209.137 393.58C209.249 393.599 209.342 393.617 209.417 393.636C209.529 393.655 209.622 393.683 209.697 393.72C209.771 393.757 209.841 393.799 209.907 393.846C210.084 393.977 210.266 394.14 210.453 394.336C210.649 394.541 210.803 394.714 210.915 394.854C210.961 394.919 211.008 394.985 211.055 395.05C211.101 395.125 211.134 395.199 211.153 395.274C211.181 395.349 211.162 395.428 211.097 395.512C211.041 395.596 210.952 395.638 210.831 395.638C210.775 395.638 210.695 395.615 210.593 395.568C210.499 395.521 210.359 395.433 210.173 395.302L207.009 392.838C206.729 393.146 206.425 393.445 206.099 393.734C205.772 394.023 205.436 394.289 205.091 394.532C204.745 394.784 204.391 395.008 204.027 395.204C203.672 395.409 203.327 395.582 202.991 395.722ZM206.981 385.712C206.654 386.375 206.253 386.991 205.777 387.56C205.31 388.129 204.811 388.652 204.279 389.128C203.747 389.595 203.205 390.01 202.655 390.374C202.104 390.738 201.586 391.046 201.101 391.298C200.979 391.363 200.881 391.391 200.807 391.382C200.732 391.373 200.681 391.345 200.653 391.298C200.634 391.251 200.639 391.195 200.667 391.13C200.704 391.065 200.769 391.004 200.863 390.948C201.339 390.659 201.824 390.323 202.319 389.94C202.823 389.557 203.299 389.133 203.747 388.666C204.195 388.19 204.605 387.686 204.979 387.154C205.352 386.613 205.655 386.043 205.889 385.446C205.73 385.446 205.548 385.451 205.343 385.46C205.147 385.46 204.941 385.465 204.727 385.474C204.521 385.483 204.316 385.497 204.111 385.516C203.905 385.525 203.723 385.539 203.565 385.558C203.378 385.577 203.201 385.609 203.033 385.656C202.874 385.703 202.72 385.773 202.571 385.866C202.459 385.838 202.337 385.801 202.207 385.754C202.076 385.698 201.95 385.642 201.829 385.586C201.707 385.53 201.6 385.474 201.507 385.418C201.413 385.353 201.348 385.301 201.311 385.264C201.255 385.208 201.227 385.147 201.227 385.082C201.227 384.951 201.334 384.909 201.549 384.956C201.763 384.993 201.969 385.017 202.165 385.026C202.361 385.026 202.552 385.026 202.739 385.026C202.907 385.026 203.107 385.026 203.341 385.026C203.583 385.017 203.835 385.007 204.097 384.998C204.367 384.979 204.638 384.965 204.909 384.956C205.179 384.947 205.427 384.933 205.651 384.914C205.8 384.905 205.931 384.877 206.043 384.83C206.155 384.783 206.234 384.746 206.281 384.718C206.374 384.718 206.486 384.723 206.617 384.732C206.757 384.741 206.892 384.755 207.023 384.774C207.135 384.793 207.209 384.825 207.247 384.872C207.293 384.919 207.317 384.979 207.317 385.054C207.317 385.129 207.261 385.25 207.149 385.418C207.13 385.446 207.102 385.497 207.065 385.572C207.027 385.637 206.999 385.684 206.981 385.712ZM210.439 384.312V389.59C210.439 389.739 210.434 389.94 210.425 390.192C210.425 390.444 210.406 390.691 210.369 390.934C210.331 391.177 210.271 391.387 210.187 391.564C210.112 391.741 210 391.83 209.851 391.83C209.636 391.83 209.529 391.433 209.529 390.64V384.578C209.529 384.41 209.44 384.256 209.263 384.116C209.095 383.976 208.838 383.841 208.493 383.71C208.418 383.673 208.353 383.64 208.297 383.612C208.25 383.575 208.227 383.533 208.227 383.486C208.227 383.439 208.259 383.388 208.325 383.332C208.399 383.276 208.507 383.248 208.647 383.248C208.712 383.248 208.833 383.257 209.011 383.276C209.188 383.295 209.375 383.323 209.571 383.36C209.776 383.388 209.967 383.421 210.145 383.458C210.322 383.495 210.439 383.528 210.495 383.556L210.439 384.312ZM214.903 390.066C214.782 390.057 214.647 390.033 214.497 389.996C214.357 389.949 214.213 389.898 214.063 389.842C213.923 389.786 213.783 389.725 213.643 389.66C213.513 389.585 213.401 389.511 213.307 389.436C213.242 389.389 213.191 389.338 213.153 389.282C213.125 389.226 213.111 389.175 213.111 389.128C213.111 388.988 213.256 388.941 213.545 388.988C213.816 389.035 214.096 389.072 214.385 389.1C214.684 389.119 214.997 389.128 215.323 389.128C216.49 389.128 217.633 389.114 218.753 389.086C219.883 389.058 220.905 389.021 221.819 388.974C222.165 388.955 222.44 388.927 222.645 388.89C222.86 388.843 223.047 388.769 223.205 388.666C223.392 388.675 223.597 388.694 223.821 388.722C224.055 388.75 224.274 388.787 224.479 388.834C224.825 388.899 224.997 389.035 224.997 389.24C224.997 389.501 224.825 389.632 224.479 389.632C224.395 389.632 224.232 389.627 223.989 389.618C223.756 389.599 223.527 389.581 223.303 389.562C223.163 389.553 222.958 389.548 222.687 389.548C222.417 389.548 222.085 389.548 221.693 389.548C221.255 389.557 220.793 389.567 220.307 389.576C219.822 389.585 219.332 389.599 218.837 389.618C218.352 389.637 217.867 389.655 217.381 389.674C216.896 389.693 216.429 389.711 215.981 389.73C215.795 389.749 215.608 389.786 215.421 389.842C215.235 389.889 215.062 389.963 214.903 390.066ZM222.099 392.922C222.277 392.959 222.398 393.011 222.463 393.076C222.538 393.132 222.575 393.197 222.575 393.272C222.575 393.477 222.403 393.589 222.057 393.608L217.003 393.706V394.952C217.003 395.185 217.125 395.302 217.367 395.302L220.587 395.288C220.849 395.288 221.068 395.251 221.245 395.176C221.432 395.101 221.567 395.027 221.651 394.952C221.894 394.952 222.123 394.961 222.337 394.98C222.552 395.008 222.739 395.041 222.897 395.078C223.14 395.153 223.261 395.283 223.261 395.47C223.261 395.703 223.093 395.82 222.757 395.82L217.157 395.834C216.793 395.834 216.518 395.755 216.331 395.596C216.154 395.437 216.065 395.181 216.065 394.826V393.888C215.935 393.673 215.678 393.519 215.295 393.426C215.118 393.389 215.029 393.323 215.029 393.23C215.029 393.165 215.062 393.109 215.127 393.062C215.202 393.015 215.314 392.992 215.463 392.992C215.715 392.992 215.939 393.001 216.135 393.02C216.341 393.029 216.518 393.053 216.667 393.09C216.705 393.099 216.747 393.118 216.793 393.146C216.849 393.165 216.901 393.183 216.947 393.202C217.246 393.193 217.577 393.183 217.941 393.174C218.315 393.165 218.693 393.16 219.075 393.16C219.467 393.151 219.845 393.141 220.209 393.132C220.573 393.123 220.905 393.113 221.203 393.104C221.259 393.104 221.311 393.076 221.357 393.02V391.452C221.18 391.452 220.928 391.457 220.601 391.466C220.275 391.466 219.929 391.471 219.565 391.48C219.201 391.489 218.851 391.503 218.515 391.522C218.179 391.531 217.923 391.545 217.745 391.564C217.531 391.583 217.335 391.625 217.157 391.69C216.98 391.746 216.807 391.821 216.639 391.914C216.509 391.886 216.373 391.844 216.233 391.788C216.093 391.723 215.958 391.657 215.827 391.592C215.706 391.527 215.594 391.466 215.491 391.41C215.398 391.345 215.328 391.293 215.281 391.256C215.225 391.2 215.197 391.139 215.197 391.074C215.197 390.943 215.319 390.901 215.561 390.948C215.804 390.985 216.037 391.009 216.261 391.018C216.485 391.018 216.705 391.018 216.919 391.018C217.106 391.018 217.358 391.018 217.675 391.018C217.993 391.018 218.329 391.013 218.683 391.004C219.047 390.995 219.407 390.99 219.761 390.99C220.116 390.981 220.424 390.967 220.685 390.948C220.853 390.939 220.998 390.911 221.119 390.864C221.25 390.817 221.339 390.78 221.385 390.752C221.507 390.752 221.647 390.761 221.805 390.78C221.973 390.789 222.109 390.803 222.211 390.822C222.37 390.859 222.454 390.915 222.463 390.99C222.473 391.065 222.468 391.139 222.449 391.214C222.431 391.345 222.398 391.466 222.351 391.578C222.314 391.69 222.281 391.825 222.253 391.984L222.099 392.922ZM216.639 386.93C216.639 387.219 216.761 387.355 217.003 387.336L220.279 387.252C220.494 387.233 220.69 387.191 220.867 387.126C221.045 387.061 221.157 386.995 221.203 386.93C221.39 386.93 221.591 386.939 221.805 386.958C222.029 386.967 222.235 386.991 222.421 387.028C222.701 387.075 222.841 387.201 222.841 387.406C222.841 387.649 222.673 387.77 222.337 387.77L216.751 387.854C216.042 387.873 215.687 387.476 215.687 386.664V385.194C215.687 384.97 215.333 384.769 214.623 384.592C214.437 384.545 214.343 384.475 214.343 384.382C214.343 384.307 214.376 384.237 214.441 384.172C214.507 384.107 214.605 384.069 214.735 384.06C214.903 384.051 215.081 384.051 215.267 384.06C215.454 384.069 215.631 384.083 215.799 384.102C215.967 384.121 216.121 384.144 216.261 384.172C216.401 384.2 216.509 384.228 216.583 384.256C217.181 384.237 217.736 384.223 218.249 384.214C218.772 384.205 219.327 384.191 219.915 384.172C220.111 384.172 220.289 384.144 220.447 384.088C220.606 384.032 220.737 383.953 220.839 383.85C221.026 383.85 221.222 383.859 221.427 383.878C221.633 383.887 221.829 383.911 222.015 383.948C222.295 383.995 222.435 384.125 222.435 384.34C222.435 384.583 222.267 384.704 221.931 384.704C221.007 384.713 220.125 384.727 219.285 384.746C218.445 384.755 217.563 384.765 216.639 384.774V386.93ZM227.236 386.622C227.236 386.398 226.882 386.197 226.172 386.02C225.986 385.973 225.892 385.903 225.892 385.81C225.892 385.735 225.925 385.665 225.99 385.6C226.056 385.535 226.154 385.497 226.284 385.488C226.452 385.479 226.63 385.479 226.816 385.488C227.003 385.497 227.18 385.511 227.348 385.53C227.516 385.549 227.67 385.572 227.81 385.6C227.95 385.628 228.058 385.656 228.132 385.684C228.291 385.675 228.464 385.67 228.65 385.67C228.846 385.661 229.042 385.651 229.238 385.642C229.444 385.633 229.64 385.628 229.826 385.628C230.013 385.619 230.186 385.609 230.344 385.6C230.54 385.591 230.718 385.563 230.876 385.516C231.035 385.46 231.166 385.381 231.268 385.278C231.455 385.278 231.651 385.287 231.856 385.306C232.062 385.315 232.258 385.339 232.444 385.376C232.724 385.423 232.864 385.553 232.864 385.768C232.864 386.011 232.696 386.132 232.36 386.132C231.716 386.141 231.021 386.151 230.274 386.16C229.528 386.169 228.832 386.183 228.188 386.202V391.032C228.188 391.144 228.226 391.228 228.3 391.284C228.384 391.34 228.566 391.359 228.846 391.34C229.192 391.331 229.593 391.298 230.05 391.242C230.517 391.186 231.002 391.121 231.506 391.046C232.01 390.962 232.524 390.869 233.046 390.766C233.569 390.654 234.068 390.542 234.544 390.43V384.578C234.544 384.41 234.456 384.256 234.278 384.116C234.11 383.976 233.854 383.841 233.508 383.71C233.434 383.673 233.368 383.64 233.312 383.612C233.266 383.575 233.242 383.533 233.242 383.486C233.242 383.439 233.275 383.388 233.34 383.332C233.415 383.276 233.522 383.248 233.662 383.248C233.728 383.248 233.849 383.257 234.026 383.276C234.204 383.295 234.39 383.323 234.586 383.36C234.792 383.388 234.983 383.421 235.16 383.458C235.338 383.495 235.454 383.528 235.51 383.556L235.454 384.312V388.4C235.529 388.391 235.599 388.386 235.664 388.386C235.73 388.386 235.781 388.386 235.818 388.386C236.024 388.367 236.206 388.325 236.364 388.26C236.532 388.195 236.649 388.12 236.714 388.036C236.845 388.036 237.008 388.045 237.204 388.064C237.41 388.073 237.592 388.087 237.75 388.106C238.021 388.153 238.156 388.288 238.156 388.512C238.156 388.755 237.993 388.876 237.666 388.876C237.33 388.885 236.962 388.895 236.56 388.904C236.168 388.904 235.8 388.909 235.454 388.918V392.46C235.454 392.581 235.454 392.745 235.454 392.95C235.454 393.155 235.45 393.379 235.44 393.622C235.431 393.865 235.412 394.107 235.384 394.35C235.356 394.602 235.319 394.826 235.272 395.022C235.235 395.227 235.179 395.391 235.104 395.512C235.039 395.643 234.955 395.708 234.852 395.708C234.647 395.708 234.544 395.129 234.544 393.972V390.962C234.134 391.083 233.662 391.214 233.13 391.354C232.608 391.494 232.066 391.629 231.506 391.76C230.946 391.881 230.391 391.989 229.84 392.082C229.299 392.175 228.809 392.236 228.37 392.264C227.922 392.292 227.619 392.185 227.46 391.942C227.311 391.699 227.236 391.382 227.236 390.99V386.622ZM238.561 394.546C238.561 394.331 238.631 394.149 238.771 394C238.921 393.86 239.093 393.79 239.289 393.79C239.504 393.79 239.681 393.86 239.821 394C239.971 394.149 240.045 394.331 240.045 394.546C240.045 394.742 239.971 394.91 239.821 395.05C239.681 395.199 239.504 395.274 239.289 395.274C239.093 395.274 238.921 395.199 238.771 395.05C238.631 394.91 238.561 394.742 238.561 394.546Z" fill="#DE5757"/>
</svg>
